{
.appVersion = "1352";
DisplayStrings = (
"/dottedCircle"
);
classes = (
{
automatic = 1;

glyphs = (
{
color = 7;
glyphname = A;
lastChange = "2022-02-12 17:16:51 +0000";
layers = (
{
anchors = (
{
name = bottom;
position = "{230, 0}";
},
{
name = ogonek;
position = "{436, 10}";
},
{
name = top;
position = "{230, 700}";
}
);
background = {
anchors = (
{
name = bottom;
position = "{230, 0}";
},
{
name = ogonek;
position = "{441, 10}";
},
{
name = top;
position = "{230, 700}";
}
);
paths = (
{
closed = 1;
nodes = (
"453 0 LINE",
"263 700 LINE",
"197 700 LINE",
"387 0 LINE"
);
},
{
closed = 1;
nodes = (
"356 178 LINE",
"374 244 LINE",
"99 244 LINE",
"81 178 LINE"
);
},
{
closed = 1;
nodes = (
"73 0 LINE",
"263 700 LINE",
"197 700 LINE",
"7 0 LINE"
);
}
);
};
components = (
{
name = V;
transform = "{-1, 0, 0, -1, 468, 700}";
}
);
layerId = "EA4BDF10-EAD0-47D5-9AD5-B8C643A094C2";
paths = (
{
closed = 1;
nodes = (
"369 150 LINE",
"369 213 LINE",
"114 213 LINE",
"114 150 LINE"
);
}
);
width = 468;
},
{
anchors = (
{
name = bottom;
position = "{290, 0}";
},
{
name = ogonek;
position = "{525, 10}";
},
{
name = top;
position = "{290, 720}";
}
);
components = (
{
name = V;
transform = "{-1, 0, 0, -1, 580, 720}";
}
);
layerId = "5EDCAC97-4996-4925-B8D9-EA484E9BADFC";
paths = (
{
closed = 1;
nodes = (
"439 112 LINE",
"439 238 LINE",
"183 238 LINE",
"183 112 LINE"
);
}
);
width = 580;
},
{
anchors = (
{
name = bottom;
position = "{290, 0}";
},
{
name = ogonek;
position = "{525, 10}";
},
{
name = top;
position = "{290, 720}";
}
);
components = (
{
name = V;
transform = "{-1, 0, 0, -1, 580, 720}";
}
);
layerId = "79308226-C67D-4E5D-B2BB-40C77DA13664";
paths = (
{
closed = 1;
nodes = (
"419 142 LINE",
"419 208 LINE",
"123 208 LINE",
"123 142 LINE"
);
}
);
width = 580;
},
{
anchors = (
{
name = bottom;
position = "{230, 0}";
},
{
name = ogonek;
position = "{436, 10}";
},
{
name = top;
position = "{230, 700}";
}
);
background = {
anchors = (
{
name = bottom;
position = "{230, 0}";
},
{
name = ogonek;
position = "{441, 10}";
},
{
name = top;
position = "{230, 700}";
}
);
paths = (
{
closed = 1;
nodes = (
"453 0 LINE",
"263 700 LINE",
"197 700 LINE",
"387 0 LINE"
);
},
{
closed = 1;
nodes = (
"356 178 LINE",
"374 244 LINE",
"99 244 LINE",
"81 178 LINE"
);
},
{
closed = 1;
nodes = (
"73 0 LINE",
"263 700 LINE",
"197 700 LINE",
"7 0 LINE"
);
}
);
};
components = (
{
name = V;
transform = "{-1, 0, 0, -1, 468, 700}";
}
);
layerId = "F80F23F5-B815-46C8-A0F2-25F52E1E7134";
paths = (
{
closed = 1;
nodes = (
"359 165 LINE",
"359 198 LINE",
"94 198 LINE",
"94 165 LINE"
);
}
);
width = 468;
}
);
leftKerningGroup = A;
leftMetricsKey = "=30";
rightKerningGroup = A;
rightMetricsKey = "=30";
unicode = 0041;
},
{
glyphname = AE;
lastChange = "2022-03-11 01:02:58 +0000";
layers = (
{
anchors = (
{
name = bottom;
position = "{345, 0}";
},
{
name = top;
position = "{345, 700}";
}
);
components = (
{
name = E;
transform = "{1, 0, 0, 1, 280, 0}";
}
);
layerId = "EA4BDF10-EAD0-47D5-9AD5-B8C643A094C2";
paths = (
{
closed = 1;
nodes = (
"394 637 LINE",
"394 700 LINE",
"262 700 LINE",
"262 637 LINE"
);
},
{
closed = 1;
nodes = (
"359 150 LINE",
"359 213 LINE",
"104 213 LINE",
"104 150 LINE"
);
},
{
closed = 1;
nodes = (
"96 0 LINE",
"286 700 LINE",
"220 700 LINE",
"30 0 LINE"
);
}
);
width = 690;
},
{
anchors = (
{
name = bottom;
position = "{403, 0}";
},
{
name = top;
position = "{403, 720}";
}
);
components = (
{
name = E;
transform = "{1, 0, 0, 1, 306, 0}";
}
);
layerId = "5EDCAC97-4996-4925-B8D9-EA484E9BADFC";
paths = (
{
closed = 1;
nodes = (
"463 594 LINE",
"497 720 LINE",
"242 720 LINE",
"208 594 LINE"
);
},
{
closed = 1;
nodes = (
"483 135 LINE",
"497 241 LINE",
"142 241 LINE",
"128 135 LINE"
);
},
{
closed = 1;
nodes = (
"190 0 LINE",
"370 720 LINE",
"210 720 LINE",
"30 0 LINE"
);
}
);
width = 786;
},
{
anchors = (
{
name = bottom;
position = "{372, 0}";
},
{
name = top;
position = "{372, 720}";
}
);
components = (
{
name = E;
transform = "{1, 0, 0, 1, 275, 0}";
}
);
layerId = "79308226-C67D-4E5D-B2BB-40C77DA13664";
paths = (
{
closed = 1;
nodes = (
"449 654 LINE",
"466 720 LINE",
"211 720 LINE",
"194 654 LINE"
);
},
{
closed = 1;
nodes = (
"393 142 LINE",
"393 208 LINE",
"97 208 LINE",
"97 142 LINE"
);
},
{
closed = 1;
nodes = (
"130 0 LINE",
"309 720 LINE",
"209 720 LINE",
"30 0 LINE"
);
}
);
width = 755;
},
{
anchors = (
{
name = bottom;
position = "{303, 0}";
},
{
name = top;
position = "{303, 700}";
}
);
components = (
{
name = E;
transform = "{1, 0, 0, 1, 238, 0}";
}
);
layerId = "F80F23F5-B815-46C8-A0F2-25F52E1E7134";
paths = (
{
closed = 1;
nodes = (
"352 667 LINE",
"352 700 LINE",
"220 700 LINE",
"220 667 LINE"
);
},
{
closed = 1;
nodes = (
"327 165 LINE",
"327 198 LINE",
"92 198 LINE",
"92 165 LINE"
);
},
{
closed = 1;
nodes = (
"66 0 LINE",
"236 700 LINE",
"200 700 LINE",
"30 0 LINE"
);
}
);
width = 648;
}
);
leftKerningGroup = A;
leftMetricsKey = "=A";
rightKerningGroup = B;
rightMetricsKey = "=E";
unicode = 00C6;
},
{
color = 7;
glyphname = B;
lastChange = "2022-02-12 17:18:28 +0000";
layers = (
{
anchors = (
{
name = bottom;
position = "{203, 0}";
},
{
name = top;
position = "{203, 700}";
}
);
components = (
{
name = "tall-caps.curve";
transform = "{-1, 0, 0, 1, 380, -15}";
},
{
name = "tall-caps.curve";
transform = "{-1, 0, 0, -1, 390, 715}";
},
{
name = I;
transform = "{1, 0, 0, 1, -10, 0}";
}
);
layerId = "EA4BDF10-EAD0-47D5-9AD5-B8C643A094C2";
paths = (
{
closed = 1;
nodes = (
"301 331 OFFCURVE",
"380 412 OFFCURVE",
"380 521 CURVE",
"314 521 LINE",
"314 443 OFFCURVE",
"270 397 OFFCURVE",
"195 397 CURVE",
"195 331 LINE"
);
},
{
closed = 1;
nodes = (
"205 0 LINE",
"205 63 LINE",
"96 63 LINE",
"96 0 LINE"
);
},
{
closed = 1;
nodes = (
"205 331 LINE",
"205 397 LINE",
"96 397 LINE",
"96 331 LINE"
);
},
{
closed = 1;
nodes = (
"390 179 LINE",
"390 205 LINE",
"324 205 LINE",
"324 179 LINE"
);
},
{
closed = 1;
nodes = (
"390 204 LINE",
"390 314 OFFCURVE",
"311 397 OFFCURVE",
"205 397 CURVE",
"205 331 LINE",
"280 331 OFFCURVE",
"324 284 OFFCURVE",
"324 204 CURVE"
);
},
{
closed = 1;
nodes = (
"195 637 LINE",
"195 700 LINE",
"96 700 LINE",
"96 637 LINE"
);
}
);
width = 435;
},
{
anchors = (
{
name = bottom;
position = "{285, 0}";
},
{
name = top;
position = "{285, 720}";
}
);
components = (
{
name = "tall-caps.curve";
transform = "{-1, 0, 0, 1, 500, -16}";
},
{
name = "tall-caps.curve";
transform = "{-1, 0, 0, -1, 510, 736}";
},
{
name = I;
transform = "{1, 0, 0, 1, -10, 0}";
}
);
layerId = "5EDCAC97-4996-4925-B8D9-EA484E9BADFC";
paths = (
{
closed = 1;
nodes = (
"399 331 OFFCURVE",
"500 408 OFFCURVE",
"500 511 CURVE",
"334 511 LINE",
"334 458 OFFCURVE",
"308 427 OFFCURVE",
"265 427 CURVE",
"265 331 LINE"
);
},
{
closed = 1;
nodes = (
"276 0 LINE",
"276 126 LINE",
"216 126 LINE",
"216 0 LINE"
);
},
{
closed = 1;
nodes = (
"275 311 LINE",
"275 427 LINE",
"216 427 LINE",
"216 311 LINE"
);
},
{
closed = 1;
nodes = (
"510 209 LINE",
"510 228 LINE",
"344 228 LINE",
"344 209 LINE"
);
},
{
closed = 1;
nodes = (
"510 227 LINE",
"510 330 OFFCURVE",
"409 407 OFFCURVE",
"275 407 CURVE",
"275 311 LINE",
"318 311 OFFCURVE",
"344 280 OFFCURVE",
"344 227 CURVE"
);
},
{
closed = 1;
nodes = (
"266 594 LINE",
"266 720 LINE",
"216 720 LINE",
"216 594 LINE"
);
}
);
width = 555;
},
{
anchors = (
{
name = bottom;
position = "{285, 0}";
},
{
name = top;
position = "{285, 720}";
}
);
components = (
{
name = "tall-caps.curve";
transform = "{-1, 0, 0, 1, 500, -16}";
},
{
name = "tall-caps.curve";
transform = "{-1, 0, 0, -1, 510, 736}";
},
{
name = I;
transform = "{1, 0, 0, 1, -10, 0}";
}
);
layerId = "79308226-C67D-4E5D-B2BB-40C77DA13664";
paths = (
{
closed = 1;
nodes = (
"426 361 OFFCURVE",
"500 408 OFFCURVE",
"500 511 CURVE",
"334 511 LINE",
"334 439 OFFCURVE",
"308 397 OFFCURVE",
"265 397 CURVE",
"265 361 LINE"
);
},
{
closed = 1;
nodes = (
"276 0 LINE",
"276 66 LINE",
"216 66 LINE",
"216 0 LINE"
);
},
{
closed = 1;
nodes = (
"275 341 LINE",
"275 397 LINE",
"216 397 LINE",
"216 341 LINE"
);
},
{
closed = 1;
nodes = (
"510 209 LINE",
"510 228 LINE",
"344 228 LINE",
"344 209 LINE"
);
},
{
closed = 1;
nodes = (
"510 227 LINE",
"510 330 OFFCURVE",
"436 377 OFFCURVE",
"275 377 CURVE",
"275 341 LINE",
"318 341 OFFCURVE",
"344 299 OFFCURVE",
"344 227 CURVE"
);
},
{
closed = 1;
nodes = (
"266 654 LINE",
"266 720 LINE",
"216 720 LINE",
"216 654 LINE"
);
}
);
width = 555;
},
{
anchors = (
{
name = bottom;
position = "{203, 0}";
},
{
name = top;
position = "{203, 700}";
}
);
components = (
{
name = "tall-caps.curve";
transform = "{-1, 0, 0, 1, 380, -15}";
},
{
name = "tall-caps.curve";
transform = "{-1, 0, 0, -1, 390, 715}";
},
{
name = I;
transform = "{1, 0, 0, 1, -10, 0}";
}
);
layerId = "F80F23F5-B815-46C8-A0F2-25F52E1E7134";
paths = (
{
closed = 1;
nodes = (
"301 346 OFFCURVE",
"380 421 OFFCURVE",
"380 521 CURVE",
"314 521 LINE",
"314 442 OFFCURVE",
"263 382 OFFCURVE",
"195 382 CURVE",
"195 346 LINE"
);
},
{
closed = 1;
nodes = (
"205 0 LINE",
"205 33 LINE",
"96 33 LINE",
"96 0 LINE"
);
},
{
closed = 1;
nodes = (
"205 346 LINE",
"205 382 LINE",
"96 382 LINE",
"96 346 LINE"
);
},
{
closed = 1;
nodes = (
"390 179 LINE",
"390 205 LINE",
"324 205 LINE",
"324 179 LINE"
);
},
{
closed = 1;
nodes = (
"390 204 LINE",
"390 306 OFFCURVE",
"311 382 OFFCURVE",
"205 382 CURVE",
"205 346 LINE",
"273 346 OFFCURVE",
"324 285 OFFCURVE",
"324 204 CURVE"
);
},
{
closed = 1;
nodes = (
"195 667 LINE",
"195 700 LINE",
"96 700 LINE",
"96 667 LINE"
);
}
);
width = 435;
}
);
leftKerningGroup = B;
leftMetricsKey = "=+60";
rightKerningGroup = B;
rightMetricsKey = "=45";
unicode = 0042;
},
{
color = 7;
glyphname = C;
lastChange = "2022-02-08 23:36:02 +0000";
layers = (
{
anchors = (
{
name = bottom;
position = "{235, 0}";
},
{
name = top;
position = "{235, 700}";
}
);
components = (
{
name = "tall-caps.curve";
transform = "{1, 0, 0, 1, 50, 1}";
},
{
name = "tall-caps.curve";
transform = "{1, 0, 0, -1, 50, 699}";
},
{
name = "tall-cut.curve";
transform = "{1, 0, 0, 1, 234, 16}";
},
{
name = "tall-cut.curve";
transform = "{1, 0, 0, -1, 234, 684}";
}
);
layerId = "EA4BDF10-EAD0-47D5-9AD5-B8C643A094C2";
paths = (
{
closed = 1;
nodes = (
"116 164 LINE",
"116 536 LINE",
"50 536 LINE",
"50 164 LINE"
);
}
);
width = 455;
},
{
anchors = (
{
name = bottom;
position = "{281, 0}";
},
{
name = top;
position = "{281, 720}";
}
);
components = (
{
name = "tall-caps.curve";
transform = "{1, 0, 0, 1, 50, 0}";
},
{
name = "tall-caps.curve";
transform = "{1, 0, 0, -1, 50, 720}";
},
{
name = "tall-cut.curve";
transform = "{1, 0, 0, 1, 284, 16}";
},
{
name = "tall-cut.curve";
transform = "{1, 0, 0, -1, 284, 704}";
}
);
layerId = "5EDCAC97-4996-4925-B8D9-EA484E9BADFC";
paths = (
{
closed = 1;
nodes = (
"216 193 LINE",
"216 527 LINE",
"50 527 LINE",
"50 193 LINE"
);
}
);
width = 553;
},
{
anchors = (
{
name = bottom;
position = "{281, 0}";
},
{
name = top;
position = "{281, 720}";
}
);
components = (
{
name = "tall-caps.curve";
transform = "{1, 0, 0, 1, 50, 0}";
},
{
name = "tall-caps.curve";
transform = "{1, 0, 0, -1, 50, 720}";
},
{
name = "tall-cut.curve";
transform = "{1, 0, 0, 1, 284, 16}";
},
{
name = "tall-cut.curve";
transform = "{1, 0, 0, -1, 284, 704}";
}
);
layerId = "79308226-C67D-4E5D-B2BB-40C77DA13664";
paths = (
{
closed = 1;
nodes = (
"216 193 LINE",
"216 527 LINE",
"50 527 LINE",
"50 193 LINE"
);
}
);
width = 553;
},
{
anchors = (
{
name = bottom;
position = "{235, 0}";
},
{
name = top;
position = "{235, 700}";
}
);
components = (
{
name = "tall-caps.curve";
transform = "{1, 0, 0, 1, 50, 1}";
},
{
name = "tall-caps.curve";
transform = "{1, 0, 0, -1, 50, 699}";
},
{
name = "tall-cut.curve";
transform = "{1, 0, 0, 1, 234, 16}";
},
{
name = "tall-cut.curve";
transform = "{1, 0, 0, -1, 234, 684}";
}
);
layerId = "F80F23F5-B815-46C8-A0F2-25F52E1E7134";
paths = (
{
closed = 1;
nodes = (
"116 164 LINE",
"116 536 LINE",
"50 536 LINE",
"50 164 LINE"
);
}
);
width = 455;
}
);
leftKerningGroup = Q;
leftMetricsKey = "=50";
rightKerningGroup = Q;
rightMetricsKey = "=A";
unicode = 0043;
},
{
glyphname = D;
lastChange = "2022-02-12 18:30:24 +0000";
layers = (
{
anchors = (
{
name = bottom;
position = "{206, 0}";
},
{
name = center;
position = "{206, 350}";
},
{
name = top;
position = "{206, 700}";
}
);
components = (
{
name = "tall-caps.curve";
transform = "{-1, 0, 0, 1, 390, -15}";
},
{
name = "tall-caps.curve";
transform = "{-1, 0, 0, -1, 390, 715}";
},
{
name = I;
transform = "{1, 0, 0, 1, -10, 0}";
}
);
layerId = "EA4BDF10-EAD0-47D5-9AD5-B8C643A094C2";
paths = (
{
closed = 1;
nodes = (
"390 180 LINE",
"390 520 LINE",
"324 520 LINE",
"324 180 LINE"
);
},
{
closed = 1;
nodes = (
"205 0 LINE",
"205 63 LINE",
"96 63 LINE",
"96 0 LINE"
);
},
{
closed = 1;
nodes = (
"205 637 LINE",
"205 700 LINE",
"96 700 LINE",
"96 637 LINE"
);
},
{
closed = 1;
nodes = (
"205 637 LINE",
"205 700 LINE",
"96 700 LINE",
"96 637 LINE"
);
}
);
width = 445;
},
{
anchors = (
{
name = bottom;
position = "{268, 0}";
},
{
name = center;
position = "{268, 360}";
},
{
name = top;
position = "{268, 720}";
}
);
components = (
{
name = "tall-caps.curve";
transform = "{-1, 0, 0, 1, 510, -16}";
},
{
name = "tall-caps.curve";
transform = "{-1, 0, 0, -1, 510, 736}";
},
{
name = I;
transform = "{1, 0, 0, 1, -10, 0}";
}
);
layerId = "5EDCAC97-4996-4925-B8D9-EA484E9BADFC";
paths = (
{
closed = 1;
nodes = (
"510 208 LINE",
"510 511 LINE",
"344 511 LINE",
"344 208 LINE"
);
},
{
closed = 1;
nodes = (
"275 0 LINE",
"275 126 LINE",
"206 126 LINE",
"206 0 LINE"
);
},
{
closed = 1;
nodes = (
"275 594 LINE",
"275 720 LINE",
"206 720 LINE",
"206 594 LINE"
);
},
{
closed = 1;
nodes = (
"275 594 LINE",
"275 720 LINE",
"206 720 LINE",
"206 594 LINE"
);
}
);
width = 565;
},
{
anchors = (
{
name = bottom;
position = "{268, 0}";
},
{
name = center;
position = "{268, 360}";
},
{
name = top;
position = "{268, 720}";
}
);
components = (
{
name = "tall-caps.curve";
transform = "{-1, 0, 0, 1, 510, -16}";
},
{
name = "tall-caps.curve";
transform = "{-1, 0, 0, -1, 510, 736}";
},
{
name = I;
transform = "{1, 0, 0, 1, -10, 0}";
}
);
layerId = "79308226-C67D-4E5D-B2BB-40C77DA13664";
paths = (
{
closed = 1;
nodes = (
"510 208 LINE",
"510 511 LINE",
"344 511 LINE",
"344 208 LINE"
);
},
{
closed = 1;
nodes = (
"275 0 LINE",
"275 66 LINE",
"206 66 LINE",
"206 0 LINE"
);
},
{
closed = 1;
nodes = (
"275 654 LINE",
"275 720 LINE",
"206 720 LINE",
"206 654 LINE"
);
},
{
closed = 1;
nodes = (
"275 654 LINE",
"275 720 LINE",
"206 720 LINE",
"206 654 LINE"
);
}
);
width = 565;
},
{
anchors = (
{
name = bottom;
position = "{206, 0}";
},
{
name = center;
position = "{206, 350}";
},
{
name = top;
position = "{206, 700}";
}
);
components = (
{
name = "tall-caps.curve";
transform = "{-1, 0, 0, 1, 390, -15}";
},
{
name = "tall-caps.curve";
transform = "{-1, 0, 0, -1, 390, 715}";
},
{
name = I;
transform = "{1, 0, 0, 1, -10, 0}";
}
);
layerId = "F80F23F5-B815-46C8-A0F2-25F52E1E7134";
paths = (
{
closed = 1;
nodes = (
"390 180 LINE",
"390 520 LINE",
"324 520 LINE",
"324 180 LINE"
);
},
{
closed = 1;
nodes = (
"205 0 LINE",
"205 33 LINE",
"96 33 LINE",
"96 0 LINE"
);
},
{
closed = 1;
nodes = (
"205 667 LINE",
"205 700 LINE",
"96 700 LINE",
"96 667 LINE"
);
},
{
closed = 1;
nodes = (
"205 667 LINE",
"205 700 LINE",
"96 700 LINE",
"96 667 LINE"
);
}
);
width = 445;
}
);
leftKerningGroup = B;
leftMetricsKey = "=B";
rightKerningGroup = B;
rightMetricsKey = "=B+10";
unicode = 0044;
},
{
glyphname = E;
lastChange = "2022-02-12 18:56:41 +0000";
layers = (
{
anchors = (
{
name = bottom;
position = "{205, 0}";
},
{
name = ogonek;
position = "{402, 10}";
},
{
name = top;
position = "{205, 700}";
},
{
name = topleft;
position = "{20, 700}";
}
);
components = (
{
name = F;
}
);
layerId = "EA4BDF10-EAD0-47D5-9AD5-B8C643A094C2";
paths = (
{
closed = 1;
nodes = (
"370 0 LINE",
"370 63 LINE",
"86 63 LINE",
"86 0 LINE"
);
}
);
width = 410;
},
{
anchors = (
{
name = bottom;
position = "{240, 0}";
},
{
name = ogonek;
position = "{414, 10}";
},
{
name = top;
position = "{240, 720}";
},
{
name = topleft;
position = "{20, 720}";
}
);
components = (
{
name = F;
}
);
layerId = "5EDCAC97-4996-4925-B8D9-EA484E9BADFC";
paths = (
{
closed = 1;
nodes = (
"440 0 LINE",
"440 126 LINE",
"186 126 LINE",
"186 0 LINE"
);
}
);
width = 480;
},
{
anchors = (
{
name = bottom;
position = "{240, 0}";
},
{
name = ogonek;
position = "{414, 10}";
},
{
name = top;
position = "{240, 720}";
},
{
name = topleft;
position = "{20, 720}";
}
);
components = (
{
name = F;
}
);
layerId = "79308226-C67D-4E5D-B2BB-40C77DA13664";
paths = (
{
closed = 1;
nodes = (
"440 0 LINE",
"440 66 LINE",
"186 66 LINE",
"186 0 LINE"
);
}
);
width = 480;
},
{
anchors = (
{
name = bottom;
position = "{205, 0}";
},
{
name = ogonek;
position = "{402, 10}";
},
{
name = top;
position = "{205, 700}";
},
{
name = topleft;
position = "{20, 700}";
}
);
components = (
{
name = F;
}
);
layerId = "F80F23F5-B815-46C8-A0F2-25F52E1E7134";
paths = (
{
closed = 1;
nodes = (
"370 0 LINE",
"370 33 LINE",
"86 33 LINE",
"86 0 LINE"
);
}
);
width = 410;
}
);
leftKerningGroup = B;
leftMetricsKey = "=B";
rightKerningGroup = B;
rightMetricsKey = "=B-5";
unicode = 0045;
},
{
color = 7;
glyphname = F;
lastChange = "2022-02-07 23:51:18 +0000";
layers = (
{
anchors = (
{
name = bottom;
position = "{232, 0}";
},
{
name = top;
position = "{232, 700}";
}
);
components = (
{
name = L;
transform = "{1, 0, 0, -1, 0, 700}";
}
);
layerId = "EA4BDF10-EAD0-47D5-9AD5-B8C643A094C2";
paths = (
{
closed = 1;
nodes = (
"310 315 LINE",
"310 381 LINE",
"106 381 LINE",
"106 315 LINE"
);
}
);
width = 380;
},
{
anchors = (
{
name = bottom;
position = "{238, 0}";
},
{
name = top;
position = "{238, 720}";
}
);
components = (
{
name = L;
transform = "{1, 0, 0, -1, 0, 720}";
}
);
layerId = "5EDCAC97-4996-4925-B8D9-EA484E9BADFC";
paths = (
{
closed = 1;
nodes = (
"380 297 LINE",
"380 423 LINE",
"186 423 LINE",
"186 297 LINE"
);
}
);
width = 450;
},
{
anchors = (
{
name = bottom;
position = "{238, 0}";
},
{
name = top;
position = "{238, 720}";
}
);
components = (
{
name = L;
transform = "{1, 0, 0, -1, 0, 720}";
}
);
layerId = "79308226-C67D-4E5D-B2BB-40C77DA13664";
paths = (
{
closed = 1;
nodes = (
"380 327 LINE",
"380 393 LINE",
"186 393 LINE",
"186 327 LINE"
);
}
);
width = 450;
},
{
anchors = (
{
name = bottom;
position = "{232, 0}";
},
{
name = top;
position = "{232, 700}";
}
);
components = (
{
name = L;
transform = "{1, 0, 0, -1, 0, 700}";
}
);
layerId = "F80F23F5-B815-46C8-A0F2-25F52E1E7134";
paths = (
{
closed = 1;
nodes = (
"310 332 LINE",
"310 366 LINE",
"106 366 LINE",
"106 332 LINE"
);
}
);
width = 380;
}
);
leftKerningGroup = B;
leftMetricsKey = "=B";
rightKerningGroup = F;
rightMetricsKey = "=+20";
unicode = 0046;
},
{
glyphname = G;
lastChange = "2022-02-08 23:45:26 +0000";
layers = (
{
anchors = (
{
name = bottom;
position = "{235, 0}";
},
{
name = top;
position = "{240, 700}";
}
);
components = (
{
name = "tall-caps.curve";
transform = "{1, 0, 0, 1, 50, 1}";
},
{
name = "tall-caps.curve";
transform = "{1, 0, 0, -1, 50, 699}";
},
{
name = "tall-cut.curve";
transform = "{1, 0, 0, 1, 234, 16}";
},
{
name = "tall-caps.curve";
transform = "{-1, 0, 0, -1, 419, 699}";
}
);
layerId = "EA4BDF10-EAD0-47D5-9AD5-B8C643A094C2";
paths = (
{
closed = 1;
nodes = (
"419 302 LINE",
"419 365 LINE",
"230 365 LINE",
"230 302 LINE"
);
},
{
closed = 1;
nodes = (
"419 163 LINE",
"419 362 LINE",
"353 362 LINE",
"353 163 LINE"
);
},
{
closed = 1;
nodes = (
"116 164 LINE",
"116 536 LINE",
"50 536 LINE",
"50 164 LINE"
);
}
);
width = 480;
},
{
anchors = (
{
name = bottom;
position = "{289, 0}";
},
{
name = top;
position = "{289, 720}";
}
);
components = (
{
name = "tall-caps.curve";
transform = "{1, 0, 0, 1, 50, 0}";
},
{
name = "tall-caps.curve";
transform = "{1, 0, 0, -1, 50, 720}";
},
{
name = "tall-cut.curve";
transform = "{1, 0, 0, 1, 284, 16}";
},
{
name = "tall-caps.curve";
transform = "{-1, 0, 0, -1, 519, 720}";
}
);
layerId = "5EDCAC97-4996-4925-B8D9-EA484E9BADFC";
paths = (
{
closed = 1;
nodes = (
"519 279 LINE",
"519 405 LINE",
"270 405 LINE",
"270 279 LINE"
);
},
{
closed = 1;
nodes = (
"519 193 LINE",
"519 402 LINE",
"353 402 LINE",
"353 193 LINE"
);
},
{
closed = 1;
nodes = (
"216 193 LINE",
"216 527 LINE",
"50 527 LINE",
"50 193 LINE"
);
}
);
width = 578;
},
{
anchors = (
{
name = bottom;
position = "{289, 0}";
},
{
name = top;
position = "{289, 720}";
}
);
components = (
{
name = "tall-caps.curve";
transform = "{1, 0, 0, 1, 50, 0}";
},
{
name = "tall-caps.curve";
transform = "{1, 0, 0, -1, 50, 720}";
},
{
name = "tall-cut.curve";
transform = "{1, 0, 0, 1, 284, 16}";
},
{
name = "tall-caps.curve";
transform = "{-1, 0, 0, -1, 519, 720}";
}
);
layerId = "79308226-C67D-4E5D-B2BB-40C77DA13664";
paths = (
{
closed = 1;
nodes = (
"519 339 LINE",
"519 405 LINE",
"270 405 LINE",
"270 339 LINE"
);
},
{
closed = 1;
nodes = (
"519 193 LINE",
"519 402 LINE",
"353 402 LINE",
"353 193 LINE"
);
},
{
closed = 1;
nodes = (
"216 193 LINE",
"216 527 LINE",
"50 527 LINE",
"50 193 LINE"
);
}
);
width = 578;
},
{
anchors = (
{
name = bottom;
position = "{235, 0}";
},
{
name = top;
position = "{240, 700}";
}
);
components = (
{
name = "tall-caps.curve";
transform = "{1, 0, 0, 1, 50, 1}";
},
{
name = "tall-caps.curve";
transform = "{1, 0, 0, -1, 50, 699}";
},
{
name = "tall-cut.curve";
transform = "{1, 0, 0, 1, 234, 16}";
},
{
name = "tall-caps.curve";
transform = "{-1, 0, 0, -1, 419, 699}";
}
);
layerId = "F80F23F5-B815-46C8-A0F2-25F52E1E7134";
paths = (
{
closed = 1;
nodes = (
"419 332 LINE",
"419 365 LINE",
"230 365 LINE",
"230 332 LINE"
);
},
{
closed = 1;
nodes = (
"419 163 LINE",
"419 362 LINE",
"353 362 LINE",
"353 163 LINE"
);
},
{
closed = 1;
nodes = (
"116 164 LINE",
"116 536 LINE",
"50 536 LINE",
"50 164 LINE"
);
}
);
width = 480;
}
);
leftKerningGroup = Q;
leftMetricsKey = "=C";
rightKerningGroup = Q;
rightMetricsKey = "=D";
unicode = 0047;
},
{
glyphname = H;
lastChange = "2022-02-07 23:51:18 +0000";
layers = (
{
anchors = (
{
name = bottom;
position = "{226, 0}";
},
{
name = center;
position = "{226, 350}";
},
{
name = top;
position = "{226, 700}";
},
{
name = topleft;
position = "{10, 700}";
}
);
background = {
paths = (
{
closed = 1;
nodes = (
"356 697 LINE",
"356 3 LINE",
"359 0 LINE",
"419 0 LINE",
"422 3 LINE",
"422 697 LINE",
"419 700 LINE",
"359 700 LINE"
);
},
{
closed = 1;
nodes = (
"80 379 LINE",
"80 321 LINE",
"83 317 LINE",
"383 317 LINE",
"386 321 LINE",
"386 379 LINE",
"383 383 LINE",
"83 383 LINE"
);
},
{
closed = 1;
nodes = (
"50 697 LINE",
"50 3 LINE",
"53 0 LINE",
"113 0 LINE",
"116 3 LINE",
"116 697 LINE",
"113 700 LINE",
"53 700 LINE"
);
}
);
};
components = (
{
name = I;
transform = "{1, 0, 0, 1, 296, 0}";
},
{
name = I;
transform = "{1, 0, 0, 1, -10, 0}";
}
);
layerId = "EA4BDF10-EAD0-47D5-9AD5-B8C643A094C2";
paths = (
{
closed = 1;
nodes = (
"386 318 LINE",
"386 381 LINE",
"80 381 LINE",
"80 318 LINE"
);
}
);
width = 492;
},
{
anchors = (
{
name = bottom;
position = "{276, 0}";
},
{
name = center;
position = "{276, 360}";
},
{
name = top;
position = "{276, 720}";
},
{
name = topleft;
position = "{10, 720}";
}
);
components = (
{
name = I;
transform = "{1, 0, 0, 1, 296, 0}";
},
{
name = I;
transform = "{1, 0, 0, 1, -10, 0}";
}
);
layerId = "5EDCAC97-4996-4925-B8D9-EA484E9BADFC";
paths = (
{
closed = 1;
nodes = (
"426 296 LINE",
"426 422 LINE",
"120 422 LINE",
"120 296 LINE"
);
}
);
width = 592;
},
{
anchors = (
{
name = bottom;
position = "{276, 0}";
},
{
name = center;
position = "{276, 360}";
},
{
name = top;
position = "{276, 720}";
},
{
name = topleft;
position = "{10, 720}";
}
);
components = (
{
name = I;
transform = "{1, 0, 0, 1, 296, 0}";
},
{
name = I;
transform = "{1, 0, 0, 1, -10, 0}";
}
);
layerId = "79308226-C67D-4E5D-B2BB-40C77DA13664";
paths = (
{
closed = 1;
nodes = (
"426 326 LINE",
"426 392 LINE",
"120 392 LINE",
"120 326 LINE"
);
}
);
width = 592;
},
{
anchors = (
{
name = bottom;
position = "{226, 0}";
},
{
name = center;
position = "{226, 350}";
},
{
name = top;
position = "{226, 700}";
},
{
name = topleft;
position = "{10, 700}";
}
);
background = {
paths = (
{
closed = 1;
nodes = (
"356 697 LINE",
"356 3 LINE",
"359 0 LINE",
"419 0 LINE",
"422 3 LINE",
"422 697 LINE",
"419 700 LINE",
"359 700 LINE"
);
},
{
closed = 1;
nodes = (
"80 379 LINE",
"80 321 LINE",
"83 317 LINE",
"383 317 LINE",
"386 321 LINE",
"386 379 LINE",
"383 383 LINE",
"83 383 LINE"
);
},
{
closed = 1;
nodes = (
"50 697 LINE",
"50 3 LINE",
"53 0 LINE",
"113 0 LINE",
"116 3 LINE",
"116 697 LINE",
"113 700 LINE",
"53 700 LINE"
);
}
);
};
components = (
{
name = I;
transform = "{1, 0, 0, 1, 296, 0}";
},
{
name = I;
transform = "{1, 0, 0, 1, -10, 0}";
}
);
layerId = "F80F23F5-B815-46C8-A0F2-25F52E1E7134";
paths = (
{
closed = 1;
nodes = (
"386 333 LINE",
"386 366 LINE",
"80 366 LINE",
"80 333 LINE"
);
}
);
width = 492;
}
);
leftKerningGroup = B;
leftMetricsKey = "=B";
rightKerningGroup = H;
rightMetricsKey = "=|B";
unicode = 0048;
},
{
glyphname = I;
lastChange = "2022-02-06 22:23:15 +0000";
layers = (
{
anchors = (
{
name = bottom;
position = "{103, 0}";
},
{
name = ogonek;
position = "{182, 10}";
},
{
name = top;
position = "{103, 700}";
},
{
name = topleft;
position = "{24, 700}";
}
);
layerId = "EA4BDF10-EAD0-47D5-9AD5-B8C643A094C2";
paths = (
{
closed = 1;
nodes = (
"136 0 LINE",
"136 700 LINE",
"70 700 LINE",
"70 0 LINE"
);
}
);
width = 206;
},
{
anchors = (
{
name = bottom;
position = "{153, 0}";
},
{
name = ogonek;
position = "{182, 10}";
},
{
name = top;
position = "{153, 720}";
},
{
name = topleft;
position = "{24, 720}";
}
);
layerId = "5EDCAC97-4996-4925-B8D9-EA484E9BADFC";
paths = (
{
closed = 1;
nodes = (
"236 0 LINE",
"236 720 LINE",
"70 720 LINE",
"70 0 LINE"
);
}
);
width = 306;
},
{
anchors = (
{
name = bottom;
position = "{153, 0}";
},
{
name = ogonek;
position = "{182, 10}";
},
{
name = top;
position = "{153, 720}";
},
{
name = topleft;
position = "{24, 720}";
}
);
layerId = "79308226-C67D-4E5D-B2BB-40C77DA13664";
paths = (
{
closed = 1;
nodes = (
"236 0 LINE",
"236 720 LINE",
"70 720 LINE",
"70 0 LINE"
);
}
);
width = 306;
},
{
anchors = (
{
name = bottom;
position = "{103, 0}";
},
{
name = ogonek;
position = "{182, 10}";
},
{
name = top;
position = "{103, 700}";
},
{
name = topleft;
position = "{24, 700}";
}
);
layerId = "F80F23F5-B815-46C8-A0F2-25F52E1E7134";
paths = (
{
closed = 1;
nodes = (
"136 0 LINE",
"136 700 LINE",
"70 700 LINE",
"70 0 LINE"
);
}
);
width = 206;
}
);
leftKerningGroup = B;
leftMetricsKey = "=B+10";
rightKerningGroup = H;
rightMetricsKey = "=|B+10";
unicode = 0049;
},
{
glyphname = J;
lastChange = "2022-02-06 22:23:15 +0000";
layers = (
{
anchors = (
{
name = bottom;
position = "{141, 0}";
},
{
name = top;
position = "{141, 700}";
}
);
components = (
{
name = _fountain.curve.comp;
transform = "{-1, 0, 0, -1, 232, 684}";
}
);
layerId = "EA4BDF10-EAD0-47D5-9AD5-B8C643A094C2";
paths = (
{
closed = 1;
nodes = (
"232 139 LINE",
"232 700 LINE",
"166 700 LINE",
"166 139 LINE"
);
}
);
width = 292;
},
{
anchors = (
{
name = bottom;
position = "{185, 0}";
},
{
name = top;
position = "{185, 720}";
}
);
components = (
{
name = _fountain.curve.comp;
transform = "{-1, 0, 0, -1, 347, 720}";
}
);
layerId = "5EDCAC97-4996-4925-B8D9-EA484E9BADFC";
paths = (
{
closed = 1;
nodes = (
"347 193 LINE",
"347 720 LINE",
"181 720 LINE",
"181 193 LINE"
);
}
);
width = 407;
},
{
anchors = (
{
name = bottom;
position = "{185, 0}";
},
{
name = top;
position = "{185, 720}";
}
);
components = (
{
name = _fountain.curve.comp;
transform = "{-1, 0, 0, -1, 347, 720}";
}
);
layerId = "79308226-C67D-4E5D-B2BB-40C77DA13664";
paths = (
{
closed = 1;
nodes = (
"347 193 LINE",
"347 720 LINE",
"181 720 LINE",
"181 193 LINE"
);
}
);
width = 407;
},
{
anchors = (
{
name = bottom;
position = "{141, 0}";
},
{
name = top;
position = "{141, 700}";
}
);
components = (
{
name = _fountain.curve.comp;
transform = "{-1, 0, 0, -1, 232, 684}";
}
);
layerId = "F80F23F5-B815-46C8-A0F2-25F52E1E7134";
paths = (
{
closed = 1;
nodes = (
"232 139 LINE",
"232 700 LINE",
"166 700 LINE",
"166 139 LINE"
);
}
);
width = 292;
}
);
leftKerningGroup = J;
leftMetricsKey = "=|F";
rightKerningGroup = J;
rightMetricsKey = "=|B";
unicode = 004A;
},
{
glyphname = K;
lastChange = "2022-02-12 17:21:24 +0000";
layers = (
{
anchors = (
{
name = bottom;
position = "{252, 0}";
},
{
name = top;
position = "{252, 700}";
}
);
components = (
{
name = I;
transform = "{1, 0, 0, 1, -10, 0}";
}
);
layerId = "EA4BDF10-EAD0-47D5-9AD5-B8C643A094C2";
paths = (
{
closed = 1;
nodes = (
"146 378 LINE",
"359 700 LINE",
"289 700 LINE",
"76 378 LINE"
);
},
{
closed = 1;
nodes = (
"372 0 LINE",
"146 378 LINE",
"76 378 LINE",
"302 0 LINE"
);
}
);
width = 352;
},
{
anchors = (
{
name = bottom;
position = "{267, 0}";
},
{
name = top;
position = "{267, 720}";
}
);
components = (
{
name = I;
transform = "{1, 0, 0, 1, -10, 0}";
}
);
layerId = "5EDCAC97-4996-4925-B8D9-EA484E9BADFC";
paths = (
{
closed = 1;
nodes = (
"295 378 LINE",
"495 720 LINE",
"340 720 LINE",
"151 378 LINE"
);
},
{
closed = 1;
nodes = (
"507 0 LINE",
"295 378 LINE",
"118 378 LINE",
"332 0 LINE"
);
}
);
width = 487;
},
{
anchors = (
{
name = bottom;
position = "{267, 0}";
},
{
name = top;
position = "{267, 720}";
}
);
components = (
{
name = I;
transform = "{1, 0, 0, 1, -10, 0}";
}
);
layerId = "79308226-C67D-4E5D-B2BB-40C77DA13664";
paths = (
{
closed = 1;
nodes = (
"295 378 LINE",
"495 720 LINE",
"380 720 LINE",
"191 378 LINE"
);
},
{
closed = 1;
nodes = (
"507 0 LINE",
"295 378 LINE",
"118 378 LINE",
"332 0 LINE"
);
}
);
width = 487;
},
{
anchors = (
{
name = bottom;
position = "{252, 0}";
},
{
name = top;
position = "{252, 700}";
}
);
components = (
{
name = I;
transform = "{1, 0, 0, 1, -10, 0}";
}
);
layerId = "F80F23F5-B815-46C8-A0F2-25F52E1E7134";
paths = (
{
closed = 1;
nodes = (
"146 378 LINE",
"359 700 LINE",
"319 700 LINE",
"106 378 LINE"
);
},
{
closed = 1;
nodes = (
"372 0 LINE",
"146 378 LINE",
"76 378 LINE",
"302 0 LINE"
);
}
);
width = 352;
}
);
leftKerningGroup = B;
leftMetricsKey = "=B";
rightKerningGroup = K;
rightMetricsKey = "=F*-1";
unicode = 004B;
},
{
glyphname = L;
lastChange = "2022-02-06 22:23:15 +0000";
layers = (
{
anchors = (
{
name = bottom;
position = "{178, 0}";
},
{
name = center;
position = "{178, 350}";
},
{
name = top;
position = "{178, 700}";
},
{
name = topright;
position = "{460, 700}";
}
);
components = (
{
name = I;
transform = "{1, 0, 0, 1, -10, 0}";
}
);
layerId = "EA4BDF10-EAD0-47D5-9AD5-B8C643A094C2";
paths = (
{
closed = 1;
nodes = (
"360 0 LINE",
"360 63 LINE",
"96 63 LINE",
"96 0 LINE"
);
}
);
width = 380;
},
{
anchors = (
{
name = bottom;
position = "{213, 0}";
},
{
name = center;
position = "{213, 360}";
},
{
name = top;
position = "{213, 720}";
},
{
name = topright;
position = "{415, 720}";
}
);
components = (
{
name = I;
transform = "{1, 0, 0, 1, -10, 0}";
}
);
layerId = "5EDCAC97-4996-4925-B8D9-EA484E9BADFC";
paths = (
{
closed = 1;
nodes = (
"430 0 LINE",
"430 126 LINE",
"196 126 LINE",
"196 0 LINE"
);
}
);
width = 450;
},
{
anchors = (
{
name = bottom;
position = "{213, 0}";
},
{
name = center;
position = "{213, 360}";
},
{
name = top;
position = "{213, 720}";
},
{
name = topright;
position = "{415, 720}";
}
);
components = (
{
name = I;
transform = "{1, 0, 0, 1, -10, 0}";
}
);
layerId = "79308226-C67D-4E5D-B2BB-40C77DA13664";
paths = (
{
closed = 1;
nodes = (
"430 0 LINE",
"430 66 LINE",
"196 66 LINE",
"196 0 LINE"
);
}
);
width = 450;
},
{
anchors = (
{
name = bottom;
position = "{178, 0}";
},
{
name = center;
position = "{178, 350}";
},
{
name = top;
position = "{178, 700}";
},
{
name = topright;
position = "{460, 700}";
}
);
components = (
{
name = I;
transform = "{1, 0, 0, 1, -10, 0}";
}
);
layerId = "F80F23F5-B815-46C8-A0F2-25F52E1E7134";
paths = (
{
closed = 1;
nodes = (
"360 0 LINE",
"360 33 LINE",
"96 33 LINE",
"96 0 LINE"
);
}
);
width = 380;
}
);
leftKerningGroup = B;
leftMetricsKey = "=B";
rightKerningGroup = L;
rightMetricsKey = "=F";
unicode = 004C;
},
{
glyphname = M;
lastChange = "2022-02-12 18:52:17 +0000";
layers = (
{
anchors = (
{
name = bottom;
position = "{287, 0}";
},
{
name = top;
position = "{287, 700}";
}
);
components = (
{
name = I;
transform = "{1, 0, 0, 1, 378, 0}";
},
{
name = "I-narrow.comp";
transform = "{1, 0, 0, 1, -10, 0}";
}
);
layerId = "EA4BDF10-EAD0-47D5-9AD5-B8C643A094C2";
paths = (
{
closed = 1;
nodes = (
"321 0 LINE",
"478 700 LINE",
"412 700 LINE",
"255 0 LINE"
);
},
{
closed = 1;
nodes = (
"318 0 LINE",
"161 700 LINE",
"95 700 LINE",
"252 0 LINE"
);
}
);
width = 574;
},
{
anchors = (
{
name = bottom;
position = "{373, 0}";
},
{
name = top;
position = "{373, 720}";
}
);
components = (
{
name = I;
transform = "{1, 0, 0, 1, 450, 0}";
},
{
name = "I-narrow.comp";
transform = "{1, 0, 0, 1, -10, 0}";
}
);
layerId = "5EDCAC97-4996-4925-B8D9-EA484E9BADFC";
paths = (
{
closed = 1;
nodes = (
"435 0 LINE",
"591 720 LINE",
"471 720 LINE",
"315 0 LINE"
);
},
{
closed = 1;
nodes = (
"431 0 LINE",
"275 720 LINE",
"155 720 LINE",
"311 0 LINE"
);
}
);
width = 746;
},
{
anchors = (
{
name = bottom;
position = "{353, 0}";
},
{
name = top;
position = "{353, 720}";
}
);
components = (
{
name = I;
transform = "{1, 0, 0, 1, 430, 0}";
},
{
name = "I-narrow.comp";
transform = "{1, 0, 0, 1, -10, 0}";
}
);
layerId = "79308226-C67D-4E5D-B2BB-40C77DA13664";
paths = (
{
closed = 1;
nodes = (
"400 0 LINE",
"539 720 LINE",
"459 720 LINE",
"320 0 LINE"
);
},
{
closed = 1;
nodes = (
"396 0 LINE",
"255 720 LINE",
"105 720 LINE",
"246 0 LINE"
);
}
);
width = 726;
},
{
anchors = (
{
name = bottom;
position = "{287, 0}";
},
{
name = top;
position = "{287, 700}";
}
);
components = (
{
name = I;
transform = "{1, 0, 0, 1, 378, 0}";
},
{
name = "I-narrow.comp";
transform = "{1, 0, 0, 1, -10, 0}";
}
);
layerId = "F80F23F5-B815-46C8-A0F2-25F52E1E7134";
paths = (
{
closed = 1;
nodes = (
"301 0 LINE",
"458 700 LINE",
"422 700 LINE",
"265 0 LINE"
);
},
{
closed = 1;
nodes = (
"303 0 LINE",
"146 700 LINE",
"80 700 LINE",
"237 0 LINE"
);
}
);
width = 574;
}
);
leftKerningGroup = B;
leftMetricsKey = "=B";
rightKerningGroup = H;
rightMetricsKey = "=H";
unicode = 004D;
},
{
glyphname = N;
lastChange = "2022-02-08 23:50:44 +0000";
layers = (
{
anchors = (
{
name = bottom;
position = "{229, 0}";
},
{
name = top;
position = "{230, 700}";
}
);
components = (
{
name = "I-narrow.comp";
transform = "{1, 0, 0, 1, -10, 0}";
},
{
name = "I-narrow.comp";
transform = "{1, 0, 0, 1, 304, 0}";
}
);
layerId = "EA4BDF10-EAD0-47D5-9AD5-B8C643A094C2";
paths = (
{
closed = 1;
nodes = (
"426 0 LINE",
"146 700 LINE",
"74 700 LINE",
"355 0 LINE"
);
}
);
width = 500;
},
{
anchors = (
{
name = bottom;
position = "{299, 0}";
},
{
name = top;
position = "{299, 720}";
}
);
components = (
{
name = "I-narrow.comp";
transform = "{1, 0, 0, 1, -10, 0}";
},
{
name = "I-narrow.comp";
transform = "{1, 0, 0, 1, 341, 0}";
}
);
layerId = "5EDCAC97-4996-4925-B8D9-EA484E9BADFC";
paths = (
{
closed = 1;
nodes = (
"512 0 LINE",
"227 720 LINE",
"87 720 LINE",
"372 0 LINE"
);
}
);
width = 637;
},
{
anchors = (
{
name = bottom;
position = "{269, 0}";
},
{
name = top;
position = "{269, 720}";
}
);
components = (
{
name = "I-narrow.comp";
transform = "{1, 0, 0, 1, -10, 0}";
},
{
name = "I-narrow.comp";
transform = "{1, 0, 0, 1, 341, 0}";
}
);
layerId = "79308226-C67D-4E5D-B2BB-40C77DA13664";
paths = (
{
closed = 1;
nodes = (
"497 0 LINE",
"222 720 LINE",
"62 720 LINE",
"337 0 LINE"
);
}
);
width = 557;
},
{
anchors = (
{
name = bottom;
position = "{229, 0}";
},
{
name = top;
position = "{230, 700}";
}
);
components = (
{
name = "I-narrow.comp";
transform = "{1, 0, 0, 1, -10, 0}";
},
{
name = "I-narrow.comp";
transform = "{1, 0, 0, 1, 314, 0}";
}
);
layerId = "F80F23F5-B815-46C8-A0F2-25F52E1E7134";
paths = (
{
closed = 1;
nodes = (
"416 0 LINE",
"136 700 LINE",
"64 700 LINE",
"345 0 LINE"
);
}
);
width = 480;
}
);
leftKerningGroup = B;
leftMetricsKey = "=B";
rightKerningGroup = H;
rightMetricsKey = "=H";
unicode = 004E;
},
{
glyphname = O;
lastChange = "2022-02-06 22:23:04 +0000";
layers = (
{
anchors = (
{
name = bottom;
position = "{240, 0}";
},
{
name = center;
position = "{240, 350}";
},
{
name = ogonek;
position = "{436, 10}";
},
{
name = top;
position = "{240, 700}";
},
{
name = topleft;
position = "{15, 700}";
},
{
name = topright;
position = "{465, 700}";
}
);
background = {
paths = (
{
closed = 1;
nodes = (
"55 565 LINE",
"55 135 LINE",
"121 135 LINE",
"121 565 LINE"
);
},
{
closed = 1;
nodes = (
"240 715 LINE",
"129 715 OFFCURVE",
"55 655 OFFCURVE",
"55 565 CURVE",
"121 565 LINE",
"121 615 OFFCURVE",
"169 649 OFFCURVE",
"240 649 CURVE"
);
},
{
closed = 1;
nodes = (
"359 135 LINE",
"425 135 LINE",
"425 565 LINE",
"359 565 LINE"
);
},
{
closed = 1;
nodes = (
"311 649 OFFCURVE",
"359 615 OFFCURVE",
"359 565 CURVE",
"425 565 LINE",
"425 655 OFFCURVE",
"351 715 OFFCURVE",
"240 715 CURVE",
"240 649 LINE"
);
},
{
closed = 1;
nodes = (
"169 51 OFFCURVE",
"121 85 OFFCURVE",
"121 135 CURVE",
"55 135 LINE",
"55 45 OFFCURVE",
"129 -15 OFFCURVE",
"240 -15 CURVE",
"240 51 LINE"
);
},
{
closed = 1;
nodes = (
"240 -15 LINE",
"351 -15 OFFCURVE",
"425 45 OFFCURVE",
"425 135 CURVE",
"359 135 LINE",
"359 85 OFFCURVE",
"311 51 OFFCURVE",
"240 51 CURVE"
);
}
);
};
components = (
{
name = "tall-caps.curve";
transform = "{-1, 0, 0, 1, 425, 0}";
},
{
name = "tall-caps.curve";
transform = "{1, 0, 0, 1, 55, 0}";
},
{
name = "tall-caps.curve";
transform = "{-1, 0, 0, -1, 425, 700}";
},
{
name = "tall-caps.curve";
transform = "{1, 0, 0, -1, 55, 700}";
}
);
layerId = "EA4BDF10-EAD0-47D5-9AD5-B8C643A094C2";
paths = (
{
closed = 1;
nodes = (
"425 164 LINE",
"425 536 LINE",
"359 536 LINE",
"359 164 LINE"
);
},
{
closed = 1;
nodes = (
"121 164 LINE",
"121 536 LINE",
"55 536 LINE",
"55 164 LINE"
);
}
);
width = 480;
},
{
anchors = (
{
name = bottom;
position = "{289, 0}";
},
{
name = center;
position = "{289, 360}";
},
{
name = ogonek;
position = "{505, 10}";
},
{
name = top;
position = "{289, 720}";
},
{
name = topleft;
position = "{39, 720}";
},
{
name = topright;
position = "{539, 720}";
}
);
components = (
{
name = "tall-caps.curve";
transform = "{-1, 0, 0, 1, 523, -1}";
},
{
name = "tall-caps.curve";
transform = "{1, 0, 0, 1, 55, -1}";
},
{
name = "tall-caps.curve";
transform = "{-1, 0, 0, -1, 523, 721}";
},
{
name = "tall-caps.curve";
transform = "{1, 0, 0, -1, 55, 721}";
}
);
layerId = "5EDCAC97-4996-4925-B8D9-EA484E9BADFC";
paths = (
{
closed = 1;
nodes = (
"523 194 LINE",
"523 527 LINE",
"357 527 LINE",
"357 194 LINE"
);
},
{
closed = 1;
nodes = (
"221 194 LINE",
"221 527 LINE",
"55 527 LINE",
"55 194 LINE"
);
}
);
width = 578;
},
{
anchors = (
{
name = bottom;
position = "{289, 0}";
},
{
name = center;
position = "{289, 360}";
},
{
name = ogonek;
position = "{505, 10}";
},
{
name = top;
position = "{289, 720}";
},
{
name = topleft;
position = "{39, 720}";
},
{
name = topright;
position = "{539, 720}";
}
);
components = (
{
name = "tall-caps.curve";
transform = "{-1, 0, 0, 1, 523, -1}";
},
{
name = "tall-caps.curve";
transform = "{1, 0, 0, 1, 55, -1}";
},
{
name = "tall-caps.curve";
transform = "{-1, 0, 0, -1, 523, 721}";
},
{
name = "tall-caps.curve";
transform = "{1, 0, 0, -1, 55, 721}";
}
);
layerId = "79308226-C67D-4E5D-B2BB-40C77DA13664";
paths = (
{
closed = 1;
nodes = (
"523 194 LINE",
"523 527 LINE",
"357 527 LINE",
"357 194 LINE"
);
},
{
closed = 1;
nodes = (
"221 194 LINE",
"221 527 LINE",
"55 527 LINE",
"55 194 LINE"
);
}
);
width = 578;
},
{
anchors = (
{
name = bottom;
position = "{240, 0}";
},
{
name = center;
position = "{240, 350}";
},
{
name = ogonek;
position = "{436, 10}";
},
{
name = top;
position = "{240, 700}";
},
{
name = topleft;
position = "{15, 700}";
},
{
name = topright;
position = "{465, 700}";
}
);
background = {
paths = (
{
closed = 1;
nodes = (
"55 565 LINE",
"55 135 LINE",
"121 135 LINE",
"121 565 LINE"
);
},
{
closed = 1;
nodes = (
"240 715 LINE",
"129 715 OFFCURVE",
"55 655 OFFCURVE",
"55 565 CURVE",
"121 565 LINE",
"121 615 OFFCURVE",
"169 649 OFFCURVE",
"240 649 CURVE"
);
},
{
closed = 1;
nodes = (
"359 135 LINE",
"425 135 LINE",
"425 565 LINE",
"359 565 LINE"
);
},
{
closed = 1;
nodes = (
"311 649 OFFCURVE",
"359 615 OFFCURVE",
"359 565 CURVE",
"425 565 LINE",
"425 655 OFFCURVE",
"351 715 OFFCURVE",
"240 715 CURVE",
"240 649 LINE"
);
},
{
closed = 1;
nodes = (
"169 51 OFFCURVE",
"121 85 OFFCURVE",
"121 135 CURVE",
"55 135 LINE",
"55 45 OFFCURVE",
"129 -15 OFFCURVE",
"240 -15 CURVE",
"240 51 LINE"
);
},
{
closed = 1;
nodes = (
"240 -15 LINE",
"351 -15 OFFCURVE",
"425 45 OFFCURVE",
"425 135 CURVE",
"359 135 LINE",
"359 85 OFFCURVE",
"311 51 OFFCURVE",
"240 51 CURVE"
);
}
);
};
components = (
{
name = "tall-caps.curve";
transform = "{-1, 0, 0, 1, 425, 0}";
},
{
name = "tall-caps.curve";
transform = "{1, 0, 0, 1, 55, 0}";
},
{
name = "tall-caps.curve";
transform = "{-1, 0, 0, -1, 425, 700}";
},
{
name = "tall-caps.curve";
transform = "{1, 0, 0, -1, 55, 700}";
}
);
layerId = "F80F23F5-B815-46C8-A0F2-25F52E1E7134";
paths = (
{
closed = 1;
nodes = (
"425 164 LINE",
"425 536 LINE",
"359 536 LINE",
"359 164 LINE"
);
},
{
closed = 1;
nodes = (
"121 164 LINE",
"121 536 LINE",
"55 536 LINE",
"55 164 LINE"
);
}
);
width = 480;
}
);
leftKerningGroup = Q;
leftMetricsKey = "=|D";
rightKerningGroup = Q;
rightMetricsKey = "=D";
unicode = 004F;
},
{
glyphname = P;
lastChange = "2022-02-12 17:17:48 +0000";
layers = (
{
anchors = (
{
name = bottom;
position = "{203, 0}";
},
{
name = top;
position = "{203, 700}";
}
);
components = (
{
name = I;
transform = "{1, 0, 0, 1, -10, 0}";
},
{
name = "tall-caps.curve";
transform = "{-1, 0, 0, 1, 390, -15}";
},
{
name = "tall-caps.curve";
transform = "{-1, 0, 0, -1, 390, 994}";
}
);
layerId = "EA4BDF10-EAD0-47D5-9AD5-B8C643A094C2";
paths = (
{
closed = 1;
nodes = (
"206 637 LINE",
"206 700 LINE",
"86 700 LINE",
"86 637 LINE"
);
},
{
closed = 1;
nodes = (
"206 279 LINE",
"206 342 LINE",
"86 342 LINE",
"86 279 LINE"
);
},
{
closed = 1;
nodes = (
"390 458 LINE",
"390 520 LINE",
"324 520 LINE",
"324 458 LINE"
);
}
);
width = 420;
},
{
anchors = (
{
name = bottom;
position = "{243, 0}";
},
{
name = top;
position = "{243, 720}";
}
);
components = (
{
name = I;
transform = "{1, 0, 0, 1, -10, 0}";
},
{
name = "tall-caps.curve";
transform = "{-1, 0, 0, 1, 500, -16}";
},
{
name = "tall-caps.curve";
transform = "{-1, 0, 0, -1, 500, 984}";
}
);
layerId = "5EDCAC97-4996-4925-B8D9-EA484E9BADFC";
paths = (
{
closed = 1;
nodes = (
"266 594 LINE",
"266 720 LINE",
"216 720 LINE",
"216 594 LINE"
);
},
{
closed = 1;
nodes = (
"266 248 LINE",
"266 374 LINE",
"216 374 LINE",
"216 248 LINE"
);
},
{
closed = 1;
nodes = (
"500 457 LINE",
"500 511 LINE",
"334 511 LINE",
"334 457 LINE"
);
}
);
width = 530;
},
{
anchors = (
{
name = bottom;
position = "{243, 0}";
},
{
name = top;
position = "{243, 720}";
}
);
components = (
{
name = I;
transform = "{1, 0, 0, 1, -10, 0}";
},
{
name = "tall-caps.curve";
transform = "{-1, 0, 0, 1, 500, -16}";
},
{
name = "tall-caps.curve";
transform = "{-1, 0, 0, -1, 500, 984}";
}
);
layerId = "79308226-C67D-4E5D-B2BB-40C77DA13664";
paths = (
{
closed = 1;
nodes = (
"266 654 LINE",
"266 720 LINE",
"216 720 LINE",
"216 654 LINE"
);
},
{
closed = 1;
nodes = (
"266 248 LINE",
"266 314 LINE",
"216 314 LINE",
"216 248 LINE"
);
},
{
closed = 1;
nodes = (
"500 457 LINE",
"500 511 LINE",
"334 511 LINE",
"334 457 LINE"
);
}
);
width = 530;
},
{
anchors = (
{
name = bottom;
position = "{203, 0}";
},
{
name = top;
position = "{203, 700}";
}
);
components = (
{
name = I;
transform = "{1, 0, 0, 1, -10, 0}";
},
{
name = "tall-caps.curve";
transform = "{-1, 0, 0, 1, 390, -15}";
},
{
name = "tall-caps.curve";
transform = "{-1, 0, 0, -1, 390, 994}";
}
);
layerId = "F80F23F5-B815-46C8-A0F2-25F52E1E7134";
paths = (
{
closed = 1;
nodes = (
"206 667 LINE",
"206 700 LINE",
"86 700 LINE",
"86 667 LINE"
);
},
{
closed = 1;
nodes = (
"206 279 LINE",
"206 312 LINE",
"86 312 LINE",
"86 279 LINE"
);
},
{
closed = 1;
nodes = (
"390 458 LINE",
"390 520 LINE",
"324 520 LINE",
"324 458 LINE"
);
}
);
width = 420;
}
);
leftKerningGroup = B;
leftMetricsKey = "=B";
rightKerningGroup = P;
rightMetricsKey = "=A";
unicode = 0050;
},
{
glyphname = Thorn;
lastChange = "2022-02-12 17:20:51 +0000";
layers = (
{
anchors = (
{
name = bottom;
position = "{198, 0}";
},
{
name = top;
position = "{198, 700}";
}
);
components = (
{
name = I;
transform = "{1, 0, 0, 1, -10, 0}";
},
{
name = "tall-caps.curve";
transform = "{-1, 0, 0, 1, 390, -155}";
},
{
name = "tall-caps.curve";
transform = "{-1, 0, 0, -1, 390, 854}";
}
);
layerId = "EA4BDF10-EAD0-47D5-9AD5-B8C643A094C2";
paths = (
{
closed = 1;
nodes = (
"205 497 LINE",
"205 560 LINE",
"86 560 LINE",
"86 497 LINE"
);
},
{
closed = 1;
nodes = (
"205 139 LINE",
"205 202 LINE",
"86 202 LINE",
"86 139 LINE"
);
},
{
closed = 1;
nodes = (
"390 318 LINE",
"390 380 LINE",
"324 380 LINE",
"324 318 LINE"
);
}
);
width = 420;
},
{
anchors = (
{
name = bottom;
position = "{243, 0}";
},
{
name = top;
position = "{243, 720}";
}
);
components = (
{
name = I;
transform = "{1, 0, 0, 1, -10, 0}";
},
{
name = "tall-caps.curve";
transform = "{-1, 0, 0, 1, 490, -145}";
},
{
name = "tall-caps.curve";
transform = "{-1, 0, 0, -1, 490, 865}";
}
);
layerId = "5EDCAC97-4996-4925-B8D9-EA484E9BADFC";
paths = (
{
closed = 1;
nodes = (
"255 465 LINE",
"255 591 LINE",
"206 591 LINE",
"206 465 LINE"
);
},
{
closed = 1;
nodes = (
"255 129 LINE",
"255 255 LINE",
"206 255 LINE",
"206 129 LINE"
);
},
{
closed = 1;
nodes = (
"490 339 LINE",
"490 381 LINE",
"324 381 LINE",
"324 339 LINE"
);
}
);
width = 520;
},
{
anchors = (
{
name = bottom;
position = "{243, 0}";
},
{
name = top;
position = "{243, 720}";
}
);
components = (
{
name = I;
transform = "{1, 0, 0, 1, -10, 0}";
},
{
name = "tall-caps.curve";
transform = "{-1, 0, 0, 1, 490, -145}";
},
{
name = "tall-caps.curve";
transform = "{-1, 0, 0, -1, 490, 865}";
}
);
layerId = "79308226-C67D-4E5D-B2BB-40C77DA13664";
paths = (
{
closed = 1;
nodes = (
"255 525 LINE",
"255 591 LINE",
"206 591 LINE",
"206 525 LINE"
);
},
{
closed = 1;
nodes = (
"255 129 LINE",
"255 195 LINE",
"206 195 LINE",
"206 129 LINE"
);
},
{
closed = 1;
nodes = (
"490 339 LINE",
"490 381 LINE",
"324 381 LINE",
"324 339 LINE"
);
}
);
width = 520;
},
{
anchors = (
{
name = bottom;
position = "{198, 0}";
},
{
name = top;
position = "{198, 700}";
}
);
components = (
{
name = I;
transform = "{1, 0, 0, 1, -10, 0}";
},
{
name = "tall-caps.curve";
transform = "{-1, 0, 0, 1, 390, -155}";
},
{
name = "tall-caps.curve";
transform = "{-1, 0, 0, -1, 390, 854}";
}
);
layerId = "F80F23F5-B815-46C8-A0F2-25F52E1E7134";
paths = (
{
closed = 1;
nodes = (
"205 527 LINE",
"205 560 LINE",
"86 560 LINE",
"86 527 LINE"
);
},
{
closed = 1;
nodes = (
"205 139 LINE",
"205 172 LINE",
"86 172 LINE",
"86 139 LINE"
);
},
{
closed = 1;
nodes = (
"390 318 LINE",
"390 380 LINE",
"324 380 LINE",
"324 318 LINE"
);
}
);
width = 420;
}
);
leftKerningGroup = B;
leftMetricsKey = P;
rightKerningGroup = P;
rightMetricsKey = P;
unicode = 00DE;
},
{
glyphname = Q;
lastChange = "2022-02-12 18:35:23 +0000";
layers = (
{
anchors = (
{
name = bottom;
position = "{245, 0}";
},
{
name = top;
position = "{245, 700}";
}
);
components = (
{
name = O;
}
);
layerId = "EA4BDF10-EAD0-47D5-9AD5-B8C643A094C2";
paths = (
{
closed = 1;
nodes = (
"365 -80 LINE",
"314 -73 OFFCURVE",
"271 -42 OFFCURVE",
"231 1 CURVE",
"208 -28 LINE",
"235 -77 OFFCURVE",
"291 -130 OFFCURVE",
"338 -133 CURVE"
);
}
);
width = 480;
},
{
anchors = (
{
name = bottom;
position = "{289, 0}";
},
{
name = top;
position = "{289, 720}";
}
);
components = (
{
name = O;
}
);
layerId = "5EDCAC97-4996-4925-B8D9-EA484E9BADFC";
paths = (
{
closed = 1;
nodes = (
"465 -68 LINE",
"394 -54 OFFCURVE",
"351 -10 OFFCURVE",
"311 33 CURVE",
"251 -33 LINE",
"288 -92 OFFCURVE",
"332 -153 OFFCURVE",
"408 -171 CURVE"
);
}
);
width = 578;
},
{
anchors = (
{
name = bottom;
position = "{289, 0}";
},
{
name = top;
position = "{289, 720}";
}
);
components = (
{
name = O;
}
);
layerId = "79308226-C67D-4E5D-B2BB-40C77DA13664";
paths = (
{
closed = 1;
nodes = (
"465 -68 LINE",
"394 -54 OFFCURVE",
"351 -10 OFFCURVE",
"311 33 CURVE",
"251 -33 LINE",
"288 -92 OFFCURVE",
"332 -153 OFFCURVE",
"408 -171 CURVE"
);
}
);
width = 578;
},
{
anchors = (
{
name = bottom;
position = "{245, 0}";
},
{
name = top;
position = "{245, 700}";
}
);
components = (
{
name = O;
}
);
layerId = "F80F23F5-B815-46C8-A0F2-25F52E1E7134";
paths = (
{
closed = 1;
nodes = (
"365 -80 LINE",
"314 -73 OFFCURVE",
"271 -42 OFFCURVE",
"231 1 CURVE",
"208 -28 LINE",
"235 -77 OFFCURVE",
"291 -130 OFFCURVE",
"338 -133 CURVE"
);
}
);
width = 480;
}
);
leftKerningGroup = Q;
leftMetricsKey = "=|D";
rightKerningGroup = Q;
rightMetricsKey = "=D";
unicode = 0051;
},
{
glyphname = R;
lastChange = "2022-02-12 18:33:36 +0000";
layers = (
{
anchors = (
{
name = bottom;
position = "{236, 0}";
},
{
name = ogonek;
position = "{152, 10}";
},
{
name = top;
position = "{206, 700}";
},
{
name = topleft;
position = "{-6, 700}";
}
);
components = (
{
name = I;
transform = "{1, 0, 0, 1, -10, 0}";
},
{
name = "tall-caps.curve";
transform = "{-1, 0, 0, 1, 390, -15}";
},
{
name = "tall-caps.curve";
transform = "{-1, 0, 0, -1, 390, 1026}";
}
);
layerId = "EA4BDF10-EAD0-47D5-9AD5-B8C643A094C2";
paths = (
{
closed = 1;
nodes = (
"390 0 LINE",
"261 348 LINE",
"191 348 LINE",
"320 0 LINE"
);
},
{
closed = 1;
nodes = (
"206 311 LINE",
"206 374 LINE",
"86 374 LINE",
"86 311 LINE"
);
},
{
closed = 1;
nodes = (
"206 637 LINE",
"206 700 LINE",
"86 700 LINE",
"86 637 LINE"
);
},
{
closed = 1;
nodes = (
"390 490 LINE",
"390 521 LINE",
"324 521 LINE",
"324 490 LINE"
);
}
);
width = 430;
},
{
anchors = (
{
name = bottom;
position = "{290, 0}";
},
{
name = ogonek;
position = "{172, 10}";
},
{
name = top;
position = "{290, 720}";
},
{
name = topleft;
position = "{14, 720}";
}
);
components = (
{
name = I;
transform = "{1, 0, 0, 1, -10, 0}";
},
{
name = "tall-caps.curve";
transform = "{-1, 0, 0, 1, 500, -16}";
},
{
name = "tall-caps.curve";
transform = "{-1, 0, 0, -1, 500, 997}";
}
);
layerId = "5EDCAC97-4996-4925-B8D9-EA484E9BADFC";
paths = (
{
closed = 1;
nodes = (
"516 0 LINE",
"392 331 LINE",
"232 331 LINE",
"356 0 LINE"
);
},
{
closed = 1;
nodes = (
"266 261 LINE",
"266 387 LINE",
"216 387 LINE",
"216 261 LINE"
);
},
{
closed = 1;
nodes = (
"266 594 LINE",
"266 720 LINE",
"216 720 LINE",
"216 594 LINE"
);
},
{
closed = 1;
nodes = (
"500 470 LINE",
"500 511 LINE",
"334 511 LINE",
"334 470 LINE"
);
}
);
width = 556;
},
{
anchors = (
{
name = bottom;
position = "{290, 0}";
},
{
name = ogonek;
position = "{172, 10}";
},
{
name = top;
position = "{290, 720}";
},
{
name = topleft;
position = "{14, 720}";
}
);
components = (
{
name = I;
transform = "{1, 0, 0, 1, -10, 0}";
},
{
name = "tall-caps.curve";
transform = "{-1, 0, 0, 1, 500, -16}";
},
{
name = "tall-caps.curve";
transform = "{-1, 0, 0, -1, 500, 997}";
}
);
layerId = "79308226-C67D-4E5D-B2BB-40C77DA13664";
paths = (
{
closed = 1;
nodes = (
"516 0 LINE",
"396 321 LINE",
"241 321 LINE",
"361 0 LINE"
);
},
{
closed = 1;
nodes = (
"266 261 LINE",
"266 327 LINE",
"216 327 LINE",
"216 261 LINE"
);
},
{
closed = 1;
nodes = (
"266 654 LINE",
"266 720 LINE",
"216 720 LINE",
"216 654 LINE"
);
},
{
closed = 1;
nodes = (
"500 470 LINE",
"500 511 LINE",
"334 511 LINE",
"334 470 LINE"
);
}
);
width = 556;
},
{
anchors = (
{
name = bottom;
position = "{236, 0}";
},
{
name = ogonek;
position = "{152, 10}";
},
{
name = top;
position = "{206, 700}";
},
{
name = topleft;
position = "{-6, 700}";
}
);
components = (
{
name = I;
transform = "{1, 0, 0, 1, -10, 0}";
},
{
name = "tall-caps.curve";
transform = "{-1, 0, 0, 1, 390, -15}";
},
{
name = "tall-caps.curve";
transform = "{-1, 0, 0, -1, 390, 1026}";
}
);
layerId = "F80F23F5-B815-46C8-A0F2-25F52E1E7134";
paths = (
{
closed = 1;
nodes = (
"390 0 LINE",
"267 330 LINE",
"197 330 LINE",
"320 0 LINE"
);
},
{
closed = 1;
nodes = (
"206 311 LINE",
"206 344 LINE",
"86 344 LINE",
"86 311 LINE"
);
},
{
closed = 1;
nodes = (
"206 667 LINE",
"206 700 LINE",
"86 700 LINE",
"86 667 LINE"
);
},
{
closed = 1;
nodes = (
"390 490 LINE",
"390 521 LINE",
"324 521 LINE",
"324 490 LINE"
);
}
);
width = 430;
}
);
leftKerningGroup = B;
leftMetricsKey = "=B";
rightKerningGroup = B;
rightMetricsKey = "=A+10";
unicode = 0052;
},
{
glyphname = S;
lastChange = "2022-02-08 22:22:40 +0000";
layers = (
{
anchors = (
{
name = bottom;
position = "{230, 0}";
},
{
name = top;
position = "{230, 700}";
}
);
components = (
{
name = cut.curve;
transform = "{-1, 0, 0, 1, 413, 215}";
},
{
name = "tall-cut.curve";
transform = "{-1, 0, 0, -1, 226, 685}";
}
);
layerId = "EA4BDF10-EAD0-47D5-9AD5-B8C643A094C2";
paths = (
{
closed = 1;
nodes = (
"411 153 LINE",
"411 351 OFFCURVE",
"125 397 OFFCURVE",
"125 547 CURVE",
"59 547 LINE",
"59 349 OFFCURVE",
"345 303 OFFCURVE",
"345 153 CURVE"
);
},
{
closed = 1;
nodes = (
"125 545 LINE",
"125 612 OFFCURVE",
"169 652 OFFCURVE",
"244 652 CURVE",
"244 715 LINE",
"133 715 OFFCURVE",
"59 653 OFFCURVE",
"59 545 CURVE"
);
},
{
closed = 1;
nodes = (
"345 155 LINE",
"345 88 OFFCURVE",
"301 48 OFFCURVE",
"226 48 CURVE",
"226 -15 LINE",
"337 -15 OFFCURVE",
"411 47 OFFCURVE",
"411 155 CURVE"
);
}
);
width = 448;
},
{
anchors = (
{
name = bottom;
position = "{274, 0}";
},
{
name = top;
position = "{274, 720}";
}
);
components = (
{
name = cut.curve;
transform = "{-1, 0, 0, 1, 483, 200}";
},
{
name = "tall-cut.curve";
transform = "{-1, 0, 0, -1, 274, 704}";
}
);
layerId = "5EDCAC97-4996-4925-B8D9-EA484E9BADFC";
paths = (
{
closed = 1;
nodes = (
"509 174 LINE",
"509 422 OFFCURVE",
"205 417 OFFCURVE",
"205 547 CURVE",
"39 547 LINE",
"39 299 OFFCURVE",
"343 304 OFFCURVE",
"343 174 CURVE"
);
},
{
closed = 1;
nodes = (
"205 546 LINE",
"205 586 OFFCURVE",
"231 610 OFFCURVE",
"274 610 CURVE",
"274 736 LINE",
"140 736 OFFCURVE",
"39 655 OFFCURVE",
"39 546 CURVE"
);
},
{
closed = 1;
nodes = (
"343 174 LINE",
"343 134 OFFCURVE",
"317 110 OFFCURVE",
"274 110 CURVE",
"274 -16 LINE",
"408 -16 OFFCURVE",
"509 65 OFFCURVE",
"509 174 CURVE"
);
}
);
width = 544;
},
{
anchors = (
{
name = bottom;
position = "{274, 0}";
},
{
name = top;
position = "{274, 720}";
}
);
components = (
{
name = cut.curve;
transform = "{-1, 0, 0, 1, 483, 200}";
},
{
name = "tall-cut.curve";
transform = "{-1, 0, 0, -1, 274, 704}";
}
);
layerId = "79308226-C67D-4E5D-B2BB-40C77DA13664";
paths = (
{
closed = 1;
nodes = (
"509 174 LINE",
"509 422 OFFCURVE",
"205 457 OFFCURVE",
"205 587 CURVE",
"39 547 LINE",
"39 299 OFFCURVE",
"343 264 OFFCURVE",
"343 134 CURVE"
);
},
{
closed = 1;
nodes = (
"205 586 LINE",
"205 639 OFFCURVE",
"231 670 OFFCURVE",
"274 670 CURVE",
"274 736 LINE",
"140 736 OFFCURVE",
"39 655 OFFCURVE",
"39 546 CURVE"
);
},
{
closed = 1;
nodes = (
"343 134 LINE",
"343 81 OFFCURVE",
"317 50 OFFCURVE",
"274 50 CURVE",
"274 -16 LINE",
"408 -16 OFFCURVE",
"509 65 OFFCURVE",
"509 174 CURVE"
);
}
);
width = 544;
},
{
anchors = (
{
name = bottom;
position = "{230, 0}";
},
{
name = top;
position = "{230, 700}";
}
);
components = (
{
name = cut.curve;
transform = "{-1, 0, 0, 1, 405, 215}";
},
{
name = "tall-cut.curve";
transform = "{-1, 0, 0, -1, 226, 685}";
}
);
layerId = "F80F23F5-B815-46C8-A0F2-25F52E1E7134";
paths = (
{
closed = 1;
nodes = (
"411 153 LINE",
"411 351 OFFCURVE",
"125 417 OFFCURVE",
"125 567 CURVE",
"59 547 LINE",
"59 349 OFFCURVE",
"345 283 OFFCURVE",
"345 133 CURVE"
);
},
{
closed = 1;
nodes = (
"125 565 LINE",
"125 639 OFFCURVE",
"169 682 OFFCURVE",
"244 682 CURVE",
"244 715 LINE",
"133 715 OFFCURVE",
"59 653 OFFCURVE",
"59 545 CURVE"
);
},
{
closed = 1;
nodes = (
"345 135 LINE",
"345 61 OFFCURVE",
"301 18 OFFCURVE",
"226 18 CURVE",
"226 -15 LINE",
"337 -15 OFFCURVE",
"411 47 OFFCURVE",
"411 155 CURVE"
);
}
);
width = 446;
}
);
leftKerningGroup = S;
leftMetricsKey = "=A+5";
rightKerningGroup = S;
rightMetricsKey = "=A+5";
unicode = 0053;
},
{
glyphname = T;
lastChange = "2022-02-09 04:21:19 +0000";
layers = (
{
anchors = (
{
name = bottom;
position = "{215, 0}";
},
{
name = center;
position = "{215, 350}";
},
{
name = top;
position = "{215, 700}";
}
);
components = (
{
name = I;
transform = "{1, 0, 0, 1, 112, 0}";
}
);
guideLines = (
{
angle = 90;
position = "{215, 707}";
}
);
layerId = "EA4BDF10-EAD0-47D5-9AD5-B8C643A094C2";
paths = (
{
closed = 1;
nodes = (
"410 637 LINE",
"410 700 LINE",
"20 700 LINE",
"20 637 LINE"
);
}
);
width = 430;
},
{
anchors = (
{
name = bottom;
position = "{265, 0}";
},
{
name = center;
position = "{265, 360}";
},
{
name = top;
position = "{265, 720}";
}
);
components = (
{
name = I;
transform = "{1, 0, 0, 1, 112, 0}";
}
);
layerId = "5EDCAC97-4996-4925-B8D9-EA484E9BADFC";
paths = (
{
closed = 1;
nodes = (
"510 594 LINE",
"510 720 LINE",
"20 720 LINE",
"20 594 LINE"
);
}
);
width = 530;
},
{
anchors = (
{
name = bottom;
position = "{265, 0}";
},
{
name = center;
position = "{265, 360}";
},
{
name = top;
position = "{265, 720}";
}
);
components = (
{
name = I;
transform = "{1, 0, 0, 1, 112, 0}";
}
);
layerId = "79308226-C67D-4E5D-B2BB-40C77DA13664";
paths = (
{
closed = 1;
nodes = (
"510 654 LINE",
"510 720 LINE",
"20 720 LINE",
"20 654 LINE"
);
}
);
width = 530;
},
{
anchors = (
{
name = bottom;
position = "{215, 0}";
},
{
name = center;
position = "{215, 350}";
},
{
name = top;
position = "{215, 700}";
}
);
components = (
{
name = I;
transform = "{1, 0, 0, 1, 112, 0}";
}
);
guideLines = (
{
angle = 90;
position = "{215, 707}";
}
);
layerId = "F80F23F5-B815-46C8-A0F2-25F52E1E7134";
paths = (
{
closed = 1;
nodes = (
"410 667 LINE",
"410 700 LINE",
"20 700 LINE",
"20 667 LINE"
);
}
);
width = 430;
}
);
leftKerningGroup = T;
leftMetricsKey = "=|F";
rightKerningGroup = T;
rightMetricsKey = "=F";
unicode = 0054;
},
{
glyphname = U;
lastChange = "2022-02-06 22:23:15 +0000";
layers = (
{
anchors = (
{
name = bottom;
position = "{244, 0}";
},
{
name = ogonek;
position = "{440, 10}";
},
{
name = top;
position = "{244, 700}";
},
{
name = topright;
position = "{469, 700}";
}
);
components = (
{
name = "tall-caps.curve";
transform = "{-1, 0, 0, -1, 428, 700}";
},
{
name = "tall-caps.curve";
transform = "{1, 0, 0, -1, 60, 700}";
}
);
layerId = "EA4BDF10-EAD0-47D5-9AD5-B8C643A094C2";
paths = (
{
closed = 1;
nodes = (
"428 164 LINE",
"428 700 LINE",
"362 700 LINE",
"362 164 LINE"
);
},
{
closed = 1;
nodes = (
"126 164 LINE",
"126 700 LINE",
"60 700 LINE",
"60 164 LINE"
);
}
);
width = 488;
},
{
anchors = (
{
name = bottom;
position = "{294, 0}";
},
{
name = ogonek;
position = "{513, 10}";
},
{
name = top;
position = "{294, 720}";
},
{
name = topright;
position = "{548, 720}";
}
);
components = (
{
name = "tall-caps.curve";
transform = "{-1, 0, 0, -1, 528, 720}";
},
{
name = "tall-caps.curve";
transform = "{1, 0, 0, -1, 60, 720}";
}
);
layerId = "5EDCAC97-4996-4925-B8D9-EA484E9BADFC";
paths = (
{
closed = 1;
nodes = (
"528 193 LINE",
"528 720 LINE",
"362 720 LINE",
"362 193 LINE"
);
},
{
closed = 1;
nodes = (
"226 193 LINE",
"226 720 LINE",
"60 720 LINE",
"60 193 LINE"
);
}
);
width = 588;
},
{
anchors = (
{
name = bottom;
position = "{294, 0}";
},
{
name = ogonek;
position = "{513, 10}";
},
{
name = top;
position = "{294, 720}";
},
{
name = topright;
position = "{548, 720}";
}
);
components = (
{
name = "tall-caps.curve";
transform = "{-1, 0, 0, -1, 528, 720}";
},
{
name = "tall-caps.curve";
transform = "{1, 0, 0, -1, 60, 720}";
}
);
layerId = "79308226-C67D-4E5D-B2BB-40C77DA13664";
paths = (
{
closed = 1;
nodes = (
"528 193 LINE",
"528 720 LINE",
"362 720 LINE",
"362 193 LINE"
);
},
{
closed = 1;
nodes = (
"226 193 LINE",
"226 720 LINE",
"60 720 LINE",
"60 193 LINE"
);
}
);
width = 588;
},
{
anchors = (
{
name = bottom;
position = "{244, 0}";
},
{
name = ogonek;
position = "{440, 10}";
},
{
name = top;
position = "{244, 700}";
},
{
name = topright;
position = "{469, 700}";
}
);
components = (
{
name = "tall-caps.curve";
transform = "{-1, 0, 0, -1, 428, 700}";
},
{
name = "tall-caps.curve";
transform = "{1, 0, 0, -1, 60, 700}";
}
);
layerId = "F80F23F5-B815-46C8-A0F2-25F52E1E7134";
paths = (
{
closed = 1;
nodes = (
"428 164 LINE",
"428 700 LINE",
"362 700 LINE",
"362 164 LINE"
);
},
{
closed = 1;
nodes = (
"126 164 LINE",
"126 700 LINE",
"60 700 LINE",
"60 164 LINE"
);
}
);
width = 488;
}
);
leftKerningGroup = Q;
leftMetricsKey = "=B";
rightKerningGroup = Q;
rightMetricsKey = "=H";
unicode = 0055;
},
{
glyphname = V;
lastChange = "2022-02-06 22:23:04 +0000";
layers = (
{
anchors = (
{
name = bottom;
position = "{234, 0}";
},
{
name = top;
position = "{234, 700}";
}
);
layerId = "EA4BDF10-EAD0-47D5-9AD5-B8C643A094C2";
paths = (
{
closed = 1;
nodes = (
"268 0 LINE",
"438 700 LINE",
"372 700 LINE",
"202 0 LINE"
);
},
{
closed = 1;
nodes = (
"266 0 LINE",
"96 700 LINE",
"30 700 LINE",
"200 0 LINE"
);
}
);
width = 468;
},
{
anchors = (
{
name = bottom;
position = "{284, 0}";
},
{
name = top;
position = "{314, 720}";
}
);
layerId = "5EDCAC97-4996-4925-B8D9-EA484E9BADFC";
paths = (
{
closed = 1;
nodes = (
"371 0 LINE",
"550 720 LINE",
"390 720 LINE",
"211 0 LINE"
);
},
{
closed = 1;
nodes = (
"369 0 LINE",
"190 720 LINE",
"30 720 LINE",
"209 0 LINE"
);
}
);
width = 580;
},
{
anchors = (
{
name = bottom;
position = "{284, 0}";
},
{
name = top;
position = "{314, 720}";
}
);
layerId = "79308226-C67D-4E5D-B2BB-40C77DA13664";
paths = (
{
closed = 1;
nodes = (
"371 0 LINE",
"550 720 LINE",
"450 720 LINE",
"271 0 LINE"
);
},
{
closed = 1;
nodes = (
"369 0 LINE",
"190 720 LINE",
"30 720 LINE",
"209 0 LINE"
);
}
);
width = 580;
},
{
anchors = (
{
name = bottom;
position = "{234, 0}";
},
{
name = top;
position = "{234, 700}";
}
);
layerId = "F80F23F5-B815-46C8-A0F2-25F52E1E7134";
paths = (
{
closed = 1;
nodes = (
"268 0 LINE",
"438 700 LINE",
"402 700 LINE",
"232 0 LINE"
);
},
{
closed = 1;
nodes = (
"266 0 LINE",
"96 700 LINE",
"30 700 LINE",
"200 0 LINE"
);
}
);
width = 468;
}
);
leftKerningGroup = V;
leftMetricsKey = "=A";
rightKerningGroup = V;
rightMetricsKey = "=A";
unicode = 0056;
},
{
glyphname = W;
lastChange = "2022-02-06 22:23:04 +0000";
layers = (
{
anchors = (
{
name = bottom;
position = "{358, 0}";
},
{
name = top;
position = "{358, 700}";
}
);
layerId = "EA4BDF10-EAD0-47D5-9AD5-B8C643A094C2";
paths = (
{
closed = 1;
nodes = (
"532 0 LINE",
"395 700 LINE",
"329 700 LINE",
"466 0 LINE"
);
},
{
closed = 1;
nodes = (
"233 0 LINE",
"106 700 LINE",
"40 700 LINE",
"167 0 LINE"
);
},
{
closed = 1;
nodes = (
"251 0 LINE",
"388 700 LINE",
"322 700 LINE",
"185 0 LINE"
);
},
{
closed = 1;
nodes = (
"550 0 LINE",
"677 700 LINE",
"611 700 LINE",
"484 0 LINE"
);
}
);
width = 717;
},
{
anchors = (
{
name = bottom;
position = "{447, 0}";
},
{
name = top;
position = "{446, 720}";
}
);
layerId = "5EDCAC97-4996-4925-B8D9-EA484E9BADFC";
paths = (
{
closed = 1;
nodes = (
"656 0 LINE",
"510 720 LINE",
"380 720 LINE",
"516 0 LINE"
);
},
{
closed = 1;
nodes = (
"340 0 LINE",
"200 720 LINE",
"40 720 LINE",
"180 0 LINE"
);
},
{
closed = 1;
nodes = (
"374 0 LINE",
"510 720 LINE",
"380 720 LINE",
"234 0 LINE"
);
},
{
closed = 1;
nodes = (
"710 0 LINE",
"850 720 LINE",
"690 720 LINE",
"550 0 LINE"
);
}
);
width = 890;
},
{
anchors = (
{
name = bottom;
position = "{447, 0}";
},
{
name = top;
position = "{446, 720}";
}
);
layerId = "79308226-C67D-4E5D-B2BB-40C77DA13664";
paths = (
{
closed = 1;
nodes = (
"686 0 LINE",
"530 720 LINE",
"400 720 LINE",
"546 0 LINE"
);
},
{
closed = 1;
nodes = (
"340 0 LINE",
"200 720 LINE",
"40 720 LINE",
"180 0 LINE"
);
},
{
closed = 1;
nodes = (
"344 0 LINE",
"470 720 LINE",
"400 720 LINE",
"264 0 LINE"
);
},
{
closed = 1;
nodes = (
"710 0 LINE",
"850 720 LINE",
"750 720 LINE",
"610 0 LINE"
);
}
);
width = 890;
},
{
anchors = (
{
name = bottom;
position = "{358, 0}";
},
{
name = top;
position = "{358, 700}";
}
);
layerId = "F80F23F5-B815-46C8-A0F2-25F52E1E7134";
paths = (
{
closed = 1;
nodes = (
"532 0 LINE",
"395 700 LINE",
"329 700 LINE",
"466 0 LINE"
);
},
{
closed = 1;
nodes = (
"233 0 LINE",
"106 700 LINE",
"40 700 LINE",
"167 0 LINE"
);
},
{
closed = 1;
nodes = (
"228 0 LINE",
"365 700 LINE",
"329 700 LINE",
"192 0 LINE"
);
},
{
closed = 1;
nodes = (
"537 0 LINE",
"664 700 LINE",
"628 700 LINE",
"501 0 LINE"
);
}
);
width = 704;
}
);
leftKerningGroup = V;
leftMetricsKey = "=A+10";
rightKerningGroup = V;
rightMetricsKey = "=A+10";
unicode = 0057;
},
{
glyphname = X;
lastChange = "2022-02-06 22:23:04 +0000";
layers = (
{
anchors = (
{
name = bottom;
position = "{216, 0}";
},
{
name = top;
position = "{216, 700}";
}
);
layerId = "EA4BDF10-EAD0-47D5-9AD5-B8C643A094C2";
paths = (
{
closed = 1;
nodes = (
"402 0 LINE",
"96 700 LINE",
"30 700 LINE",
"336 0 LINE"
);
},
{
closed = 1;
nodes = (
"96 0 LINE",
"249 350 LINE",
"183 350 LINE",
"30 0 LINE"
);
},
{
closed = 1;
nodes = (
"249 350 LINE",
"402 700 LINE",
"336 700 LINE",
"183 350 LINE"
);
}
);
width = 432;
},
{
anchors = (
{
name = bottom;
position = "{280, 0}";
},
{
name = top;
position = "{280, 720}";
}
);
layerId = "5EDCAC97-4996-4925-B8D9-EA484E9BADFC";
paths = (
{
closed = 1;
nodes = (
"520 0 LINE",
"210 720 LINE",
"40 720 LINE",
"350 0 LINE"
);
},
{
closed = 1;
nodes = (
"180 0 LINE",
"355 360 LINE",
"205 360 LINE",
"30 0 LINE"
);
},
{
closed = 1;
nodes = (
"355 360 LINE",
"530 720 LINE",
"380 720 LINE",
"205 360 LINE"
);
}
);
width = 560;
},
{
anchors = (
{
name = bottom;
position = "{280, 0}";
},
{
name = top;
position = "{280, 720}";
}
);
layerId = "79308226-C67D-4E5D-B2BB-40C77DA13664";
paths = (
{
closed = 1;
nodes = (
"520 0 LINE",
"210 720 LINE",
"40 720 LINE",
"350 0 LINE"
);
},
{
closed = 1;
nodes = (
"120 0 LINE",
"295 360 LINE",
"205 360 LINE",
"30 0 LINE"
);
},
{
closed = 1;
nodes = (
"355 360 LINE",
"530 720 LINE",
"440 720 LINE",
"265 360 LINE"
);
}
);
width = 560;
},
{
anchors = (
{
name = bottom;
position = "{216, 0}";
},
{
name = top;
position = "{216, 700}";
}
);
layerId = "F80F23F5-B815-46C8-A0F2-25F52E1E7134";
paths = (
{
closed = 1;
nodes = (
"402 0 LINE",
"96 700 LINE",
"30 700 LINE",
"336 0 LINE"
);
},
{
closed = 1;
nodes = (
"66 0 LINE",
"219 350 LINE",
"183 350 LINE",
"30 0 LINE"
);
},
{
closed = 1;
nodes = (
"249 350 LINE",
"402 700 LINE",
"366 700 LINE",
"213 350 LINE"
);
}
);
width = 432;
}
);
leftKerningGroup = V;
leftMetricsKey = "=A";
rightKerningGroup = V;
rightMetricsKey = "=A";
unicode = 0058;
},
{
glyphname = Y;
lastChange = "2022-02-06 22:23:04 +0000";
layers = (
{
anchors = (
{
name = bottom;
position = "{213, 0}";
},
{
name = top;
position = "{213, 700}";
},
{
name = topleft;
position = "{20, 700}";
}
);
layerId = "EA4BDF10-EAD0-47D5-9AD5-B8C643A094C2";
paths = (
{
closed = 1;
nodes = (
"246 238 LINE",
"396 700 LINE",
"330 700 LINE",
"180 238 LINE"
);
},
{
closed = 1;
nodes = (
"246 0 LINE",
"246 238 LINE",
"180 238 LINE",
"180 0 LINE"
);
},
{
closed = 1;
nodes = (
"246 238 LINE",
"96 700 LINE",
"30 700 LINE",
"180 238 LINE"
);
}
);
width = 426;
},
{
anchors = (
{
name = bottom;
position = "{283, 0}";
},
{
name = top;
position = "{283, 740}";
},
{
name = topleft;
position = "{60, 720}";
}
);
layerId = "5EDCAC97-4996-4925-B8D9-EA484E9BADFC";
paths = (
{
closed = 1;
nodes = (
"356 258 LINE",
"536 720 LINE",
"391 720 LINE",
"211 258 LINE"
);
},
{
closed = 1;
nodes = (
"356 0 LINE",
"356 258 LINE",
"210 258 LINE",
"210 0 LINE"
);
},
{
closed = 1;
nodes = (
"356 258 LINE",
"206 720 LINE",
"30 720 LINE",
"210 258 LINE"
);
}
);
width = 566;
},
{
anchors = (
{
name = bottom;
position = "{283, 0}";
},
{
name = top;
position = "{283, 740}";
},
{
name = topleft;
position = "{60, 720}";
}
);
layerId = "79308226-C67D-4E5D-B2BB-40C77DA13664";
paths = (
{
closed = 1;
nodes = (
"356 258 LINE",
"536 720 LINE",
"451 720 LINE",
"271 258 LINE"
);
},
{
closed = 1;
nodes = (
"356 0 LINE",
"356 258 LINE",
"210 258 LINE",
"210 0 LINE"
);
},
{
closed = 1;
nodes = (
"356 258 LINE",
"206 720 LINE",
"30 720 LINE",
"210 258 LINE"
);
}
);
width = 566;
},
{
anchors = (
{
name = bottom;
position = "{213, 0}";
},
{
name = top;
position = "{213, 700}";
},
{
name = topleft;
position = "{20, 700}";
}
);
layerId = "F80F23F5-B815-46C8-A0F2-25F52E1E7134";
paths = (
{
closed = 1;
nodes = (
"246 238 LINE",
"396 700 LINE",
"360 700 LINE",
"210 238 LINE"
);
},
{
closed = 1;
nodes = (
"246 0 LINE",
"246 238 LINE",
"180 238 LINE",
"180 0 LINE"
);
},
{
closed = 1;
nodes = (
"246 238 LINE",
"96 700 LINE",
"30 700 LINE",
"180 238 LINE"
);
}
);
width = 426;
}
);
leftKerningGroup = V;
leftMetricsKey = "=A";
rightKerningGroup = V;
rightMetricsKey = "=A";
unicode = 0059;
},
{
glyphname = Z;
lastChange = "2022-02-06 22:23:04 +0000";
layers = (
{
anchors = (
{
name = bottom;
position = "{226, 0}";
},
{
name = center;
position = "{226, 350}";
},
{
name = top;
position = "{226, 700}";
}
);
layerId = "EA4BDF10-EAD0-47D5-9AD5-B8C643A094C2";
paths = (
{
closed = 1;
nodes = (
"109 63 LINE",
"412 637 LINE",
"343 637 LINE",
"40 63 LINE"
);
},
{
closed = 1;
nodes = (
"412 0 LINE",
"412 63 LINE",
"40 63 LINE",
"40 0 LINE"
);
},
{
closed = 1;
nodes = (
"412 637 LINE",
"412 700 LINE",
"40 700 LINE",
"40 637 LINE"
);
}
);
width = 452;
},
{
anchors = (
{
name = bottom;
position = "{256, 0}";
},
{
name = center;
position = "{256, 360}";
},
{
name = top;
position = "{256, 720}";
}
);
layerId = "5EDCAC97-4996-4925-B8D9-EA484E9BADFC";
paths = (
{
closed = 1;
nodes = (
"219 126 LINE",
"472 594 LINE",
"293 594 LINE",
"40 126 LINE"
);
},
{
closed = 1;
nodes = (
"472 0 LINE",
"472 126 LINE",
"40 126 LINE",
"40 0 LINE"
);
},
{
closed = 1;
nodes = (
"472 594 LINE",
"472 720 LINE",
"40 720 LINE",
"40 594 LINE"
);
}
);
width = 512;
},
{
anchors = (
{
name = bottom;
position = "{256, 0}";
},
{
name = center;
position = "{256, 360}";
},
{
name = top;
position = "{256, 720}";
}
);
layerId = "79308226-C67D-4E5D-B2BB-40C77DA13664";
paths = (
{
closed = 1;
nodes = (
"219 66 LINE",
"472 654 LINE",
"293 654 LINE",
"40 66 LINE"
);
},
{
closed = 1;
nodes = (
"472 0 LINE",
"472 66 LINE",
"40 66 LINE",
"40 0 LINE"
);
},
{
closed = 1;
nodes = (
"472 654 LINE",
"472 720 LINE",
"40 720 LINE",
"40 654 LINE"
);
}
);
width = 512;
},
{
anchors = (
{
name = bottom;
position = "{226, 0}";
},
{
name = center;
position = "{226, 350}";
},
{
name = top;
position = "{226, 700}";
}
);
layerId = "F80F23F5-B815-46C8-A0F2-25F52E1E7134";
paths = (
{
closed = 1;
nodes = (
"109 33 LINE",
"412 667 LINE",
"343 667 LINE",
"40 33 LINE"
);
},
{
closed = 1;
nodes = (
"412 0 LINE",
"412 33 LINE",
"40 33 LINE",
"40 0 LINE"
);
},
{
closed = 1;
nodes = (
"412 667 LINE",
"412 700 LINE",
"40 700 LINE",
"40 667 LINE"
);
}
);
width = 452;
}
);
leftKerningGroup = Z;
leftMetricsKey = "=A+10";
rightKerningGroup = Z;
rightMetricsKey = "=A+10";
unicode = 005A;
},
{
glyphname = I.ss01;
lastChange = "2022-02-06 22:23:04 +0000";
layers = (
{
anchors = (
{
name = bottom;
position = "{165, 0}";
},
{
name = ogonek;
position = "{244, 10}";
},
{
name = top;
position = "{165, 700}";
},
{
name = topleft;
position = "{86, 700}";
}
);
layerId = "EA4BDF10-EAD0-47D5-9AD5-B8C643A094C2";
paths = (
{
closed = 1;
nodes = (
"198 0 LINE",
"198 700 LINE",
"132 700 LINE",
"132 0 LINE"
);
},
{
closed = 1;
nodes = (
"310 637 LINE",
"310 700 LINE",
"20 700 LINE",
"20 637 LINE"
);
},
{
closed = 1;
nodes = (
"310 0 LINE",
"310 63 LINE",
"20 63 LINE",
"20 0 LINE"
);
}
);
width = 330;
},
{
anchors = (
{
name = bottom;
position = "{215, 0}";
},
{
name = ogonek;
position = "{244, 10}";
},
{
name = top;
position = "{215, 720}";
},
{
name = topleft;
position = "{86, 720}";
}
);
layerId = "5EDCAC97-4996-4925-B8D9-EA484E9BADFC";
paths = (
{
closed = 1;
nodes = (
"298 0 LINE",
"298 720 LINE",
"132 720 LINE",
"132 0 LINE"
);
},
{
closed = 1;
nodes = (
"410 594 LINE",
"410 720 LINE",
"20 720 LINE",
"20 594 LINE"
);
},
{
closed = 1;
nodes = (
"410 0 LINE",
"410 126 LINE",
"20 126 LINE",
"20 0 LINE"
);
}
);
width = 430;
},
{
anchors = (
{
name = bottom;
position = "{215, 0}";
},
{
name = ogonek;
position = "{244, 10}";
},
{
name = top;
position = "{215, 720}";
},
{
name = topleft;
position = "{86, 720}";
}
);
layerId = "79308226-C67D-4E5D-B2BB-40C77DA13664";
paths = (
{
closed = 1;
nodes = (
"298 0 LINE",
"298 720 LINE",
"132 720 LINE",
"132 0 LINE"
);
},
{
closed = 1;
nodes = (
"410 654 LINE",
"410 720 LINE",
"20 720 LINE",
"20 654 LINE"
);
},
{
closed = 1;
nodes = (
"410 0 LINE",
"410 76 LINE",
"20 76 LINE",
"20 0 LINE"
);
}
);
width = 430;
},
{
anchors = (
{
name = bottom;
position = "{165, 0}";
},
{
name = ogonek;
position = "{244, 10}";
},
{
name = top;
position = "{165, 700}";
},
{
name = topleft;
position = "{86, 700}";
}
);
layerId = "F80F23F5-B815-46C8-A0F2-25F52E1E7134";
paths = (
{
closed = 1;
nodes = (
"198 0 LINE",
"198 700 LINE",
"132 700 LINE",
"132 0 LINE"
);
},
{
closed = 1;
nodes = (
"310 667 LINE",
"310 700 LINE",
"20 700 LINE",
"20 667 LINE"
);
},
{
closed = 1;
nodes = (
"310 0 LINE",
"310 33 LINE",
"20 33 LINE",
"20 0 LINE"
);
}
);
width = 330;
}
);
leftKerningGroup = B;
leftMetricsKey = "=|F";
rightKerningGroup = H;
rightMetricsKey = "=F";
},
{
glyphname = J.ss01;
lastChange = "2022-02-06 22:23:04 +0000";
layers = (
{
anchors = (
{
name = bottom;
position = "{141, 0}";
},
{
name = top;
position = "{176, 700}";
}
);
components = (
{
name = _fountain.curve.comp;
transform = "{-1, 0, 0, -1, 232, 684}";
}
);
layerId = "EA4BDF10-EAD0-47D5-9AD5-B8C643A094C2";
paths = (
{
closed = 1;
nodes = (
"232 139 LINE",
"232 700 LINE",
"166 700 LINE",
"166 139 LINE"
);
},
{
closed = 1;
nodes = (
"321 637 LINE",
"321 700 LINE",
"21 700 LINE",
"21 637 LINE"
);
}
);
width = 341;
},
{
anchors = (
{
name = bottom;
position = "{185, 0}";
},
{
name = top;
position = "{235, 720}";
}
);
components = (
{
name = _fountain.curve.comp;
transform = "{-1, 0, 0, -1, 347, 720}";
}
);
layerId = "5EDCAC97-4996-4925-B8D9-EA484E9BADFC";
paths = (
{
closed = 1;
nodes = (
"347 193 LINE",
"347 720 LINE",
"181 720 LINE",
"181 193 LINE"
);
},
{
closed = 1;
nodes = (
"430 594 LINE",
"430 720 LINE",
"20 720 LINE",
"20 594 LINE"
);
}
);
width = 450;
},
{
anchors = (
{
name = bottom;
position = "{185, 0}";
},
{
name = top;
position = "{235, 720}";
}
);
components = (
{
name = _fountain.curve.comp;
transform = "{-1, 0, 0, -1, 347, 720}";
}
);
layerId = "79308226-C67D-4E5D-B2BB-40C77DA13664";
paths = (
{
closed = 1;
nodes = (
"347 193 LINE",
"347 720 LINE",
"181 720 LINE",
"181 193 LINE"
);
},
{
closed = 1;
nodes = (
"430 654 LINE",
"430 720 LINE",
"20 720 LINE",
"20 654 LINE"
);
}
);
width = 450;
},
{
anchors = (
{
name = bottom;
position = "{141, 0}";
},
{
name = top;
position = "{176, 700}";
}
);
components = (
{
name = _fountain.curve.comp;
transform = "{-1, 0, 0, -1, 232, 684}";
}
);
layerId = "F80F23F5-B815-46C8-A0F2-25F52E1E7134";
paths = (
{
closed = 1;
nodes = (
"232 139 LINE",
"232 700 LINE",
"166 700 LINE",
"166 139 LINE"
);
},
{
closed = 1;
nodes = (
"321 667 LINE",
"321 700 LINE",
"21 700 LINE",
"21 667 LINE"
);
}
);
width = 341;
}
);
leftKerningGroup = J;
leftMetricsKey = "=|F";
rightKerningGroup = J;
rightMetricsKey = "=F";
},
{
glyphname = Y.ss03;
lastChange = "2022-02-12 18:39:43 +0000";
layers = (
{
anchors = (
{
name = bottom;
position = "{213, 0}";
},
{
name = top;
position = "{213, 700}";
},
{
name = topleft;
position = "{20, 700}";
}
);
layerId = "EA4BDF10-EAD0-47D5-9AD5-B8C643A094C2";
paths = (
{
closed = 1;
nodes = (
"189 0 LINE",
"396 700 LINE",
"330 700 LINE",
"123 0 LINE"
);
},
{
closed = 1;
nodes = (
"256 238 LINE",
"96 700 LINE",
"30 700 LINE",
"200 207 LINE"
);
}
);
width = 426;
},
{
anchors = (
{
name = bottom;
position = "{283, 0}";
},
{
name = top;
position = "{283, 740}";
},
{
name = topleft;
position = "{60, 720}";
}
);
layerId = "5EDCAC97-4996-4925-B8D9-EA484E9BADFC";
paths = (
{
closed = 1;
nodes = (
"275 0 LINE",
"536 720 LINE",
"391 720 LINE",
"130 0 LINE"
);
},
{
closed = 1;
nodes = (
"366 258 LINE",
"206 720 LINE",
"30 720 LINE",
"246 191 LINE"
);
}
);
width = 566;
},
{
anchors = (
{
name = bottom;
position = "{283, 0}";
},
{
name = top;
position = "{283, 740}";
},
{
name = topleft;
position = "{60, 720}";
}
);
layerId = "79308226-C67D-4E5D-B2BB-40C77DA13664";
paths = (
{
closed = 1;
nodes = (
"275 0 LINE",
"536 720 LINE",
"451 720 LINE",
"190 0 LINE"
);
},
{
closed = 1;
nodes = (
"366 258 LINE",
"206 720 LINE",
"30 720 LINE",
"263 147 LINE"
);
}
);
width = 566;
},
{
anchors = (
{
name = bottom;
position = "{213, 0}";
},
{
name = top;
position = "{213, 700}";
},
{
name = topleft;
position = "{20, 700}";
}
);
layerId = "F80F23F5-B815-46C8-A0F2-25F52E1E7134";
paths = (
{
closed = 1;
nodes = (
"189 0 LINE",
"396 700 LINE",
"360 700 LINE",
"153 0 LINE"
);
},
{
closed = 1;
nodes = (
"256 238 LINE",
"96 700 LINE",
"30 700 LINE",
"212 170 LINE"
);
}
);
width = 426;
}
);
leftKerningGroup = V;
leftMetricsKey = "=A";
rightKerningGroup = V;
rightMetricsKey = "=A";
},
{
color = 7;
glyphname = a;
lastChange = "2022-02-06 22:23:04 +0000";
layers = (
{
anchors = (
{
name = bottom;
position = "{215, 0}";
},
{
name = ogonek;
position = "{395, 10}";
},
{
name = top;
position = "{215, 510}";
}
);
background = {
paths = (
{
closed = 1;
nodes = (
"320 0 LINE",
"386 0 LINE",
"386 350 LINE",
"320 350 LINE"
);
},
{
closed = 1;
nodes = (
"287 434 OFFCURVE",
"320 401 OFFCURVE",
"320 350 CURVE",
"386 350 LINE",
"386 440 OFFCURVE",
"318 500 OFFCURVE",
"215 500 CURVE",
"215 434 LINE"
);
},
{
closed = 1;
nodes = (
"195 -8 LINE",
"281 -8 OFFCURVE",
"343 52 OFFCURVE",
"343 142 CURVE",
"320 142 LINE",
"320 97 OFFCURVE",
"258 57 OFFCURVE",
"195 57 CURVE"
);
},
{
closed = 1;
nodes = (
"133 57 OFFCURVE",
"91 91 OFFCURVE",
"91 142 CURVE",
"25 142 LINE",
"25 52 OFFCURVE",
"93 -8 OFFCURVE",
"195 -8 CURVE",
"195 57 LINE"
);
},
{
closed = 1;
nodes = (
"195 286 LINE",
"87 286 OFFCURVE",
"25 232 OFFCURVE",
"25 142 CURVE",
"91 142 LINE",
"91 200 OFFCURVE",
"117 227 OFFCURVE",
"195 227 CURVE"
);
},
{
closed = 1;
nodes = (
"215 500 LINE",
"112 500 OFFCURVE",
"44 446 OFFCURVE",
"44 365 CURVE",
"47 362 LINE",
"107 350 LINE",
"110 352 LINE",
"110 403 OFFCURVE",
"143 434 OFFCURVE",
"215 434 CURVE"
);
},
{
closed = 1;
nodes = (
"195 227 LINE",
"373 227 LINE",
"373 286 LINE",
"195 286 LINE"
);
}
);
};
components = (
{
name = _a.comp;
transform = "{1, 0, 0, 1, 45, 0}";
}
);
layerId = "EA4BDF10-EAD0-47D5-9AD5-B8C643A094C2";
paths = (
{
closed = 1;
nodes = (
"396 0 LINE",
"396 350 LINE",
"330 350 LINE",
"330 0 LINE"
);
}
);
width = 441;
},
{
anchors = (
{
name = bottom;
position = "{271, 0}";
},
{
name = ogonek;
position = "{475, 10}";
},
{
name = top;
position = "{271, 520}";
}
);
components = (
{
name = _a.comp;
transform = "{1, 0, 0, 1, 45, 0}";
}
);
layerId = "5EDCAC97-4996-4925-B8D9-EA484E9BADFC";
paths = (
{
closed = 1;
nodes = (
"496 0 LINE",
"496 327 LINE",
"330 327 LINE",
"330 0 LINE"
);
}
);
width = 541;
},
{
anchors = (
{
name = bottom;
position = "{271, 0}";
},
{
name = ogonek;
position = "{475, 10}";
},
{
name = top;
position = "{271, 520}";
}
);
components = (
{
name = _a.comp;
transform = "{1, 0, 0, 1, 45, 0}";
}
);
layerId = "79308226-C67D-4E5D-B2BB-40C77DA13664";
paths = (
{
closed = 1;
nodes = (
"496 0 LINE",
"496 327 LINE",
"330 327 LINE",
"330 0 LINE"
);
}
);
width = 541;
},
{
anchors = (
{
name = bottom;
position = "{215, 0}";
},
{
name = ogonek;
position = "{395, 10}";
},
{
name = top;
position = "{225, 510}";
}
);
background = {
paths = (
{
closed = 1;
nodes = (
"320 0 LINE",
"386 0 LINE",
"386 350 LINE",
"320 350 LINE"
);
},
{
closed = 1;
nodes = (
"287 434 OFFCURVE",
"320 401 OFFCURVE",
"320 350 CURVE",
"386 350 LINE",
"386 440 OFFCURVE",
"318 500 OFFCURVE",
"215 500 CURVE",
"215 434 LINE"
);
},
{
closed = 1;
nodes = (
"195 -8 LINE",
"281 -8 OFFCURVE",
"343 52 OFFCURVE",
"343 142 CURVE",
"320 142 LINE",
"320 97 OFFCURVE",
"258 57 OFFCURVE",
"195 57 CURVE"
);
},
{
closed = 1;
nodes = (
"133 57 OFFCURVE",
"91 91 OFFCURVE",
"91 142 CURVE",
"25 142 LINE",
"25 52 OFFCURVE",
"93 -8 OFFCURVE",
"195 -8 CURVE",
"195 57 LINE"
);
},
{
closed = 1;
nodes = (
"195 286 LINE",
"87 286 OFFCURVE",
"25 232 OFFCURVE",
"25 142 CURVE",
"91 142 LINE",
"91 200 OFFCURVE",
"117 227 OFFCURVE",
"195 227 CURVE"
);
},
{
closed = 1;
nodes = (
"215 500 LINE",
"112 500 OFFCURVE",
"44 446 OFFCURVE",
"44 365 CURVE",
"47 362 LINE",
"107 350 LINE",
"110 352 LINE",
"110 403 OFFCURVE",
"143 434 OFFCURVE",
"215 434 CURVE"
);
},
{
closed = 1;
nodes = (
"195 227 LINE",
"373 227 LINE",
"373 286 LINE",
"195 286 LINE"
);
}
);
};
components = (
{
name = _a.comp;
transform = "{1, 0, 0, 1, 45, 0}";
}
);
layerId = "F80F23F5-B815-46C8-A0F2-25F52E1E7134";
paths = (
{
closed = 1;
nodes = (
"396 0 LINE",
"396 350 LINE",
"330 350 LINE",
"330 0 LINE"
);
}
);
width = 441;
}
);
leftKerningGroup = a;
leftMetricsKey = "=45";
rightKerningGroup = a;
rightMetricsKey = "=45";
unicode = 0061;
},
{
glyphname = ae;
lastChange = "2022-02-08 23:05:05 +0000";
layers = (
{
anchors = (
{
name = bottom;
position = "{373, 0}";
},
{
name = top;
position = "{373, 500}";
}
);
components = (
{
alignment = -1;
name = _a.comp;
transform = "{1, 0, 0, 1, 45, 0}";
},
{
alignment = -1;
name = e;
transform = "{1, 0, 0, 1, 326, 0}";
}
);
layerId = "EA4BDF10-EAD0-47D5-9AD5-B8C643A094C2";
paths = (
{
closed = 1;
nodes = (
"324 -15 OFFCURVE",
"398 71 OFFCURVE",
"398 185 CURVE",
"340 185 LINE",
"340 82 OFFCURVE",
"308 45 OFFCURVE",
"225 45 CURVE",
"225 -15 LINE"
);
}
);
width = 738;
},
{
anchors = (
{
name = bottom;
position = "{406, 0}";
},
{
name = top;
position = "{406, 520}";
}
);
components = (
{
alignment = -1;
name = _a.comp;
transform = "{1, 0, 0, 1, 45, 0}";
},
{
alignment = -1;
name = e;
transform = "{1, 0, 0, 1, 312, 0}";
}
);
layerId = "5EDCAC97-4996-4925-B8D9-EA484E9BADFC";
paths = (
{
closed = 1;
nodes = (
"351 -15 OFFCURVE",
"456 77 OFFCURVE",
"456 199 CURVE",
"340 189 LINE",
"340 136 OFFCURVE",
"308 105 OFFCURVE",
"255 105 CURVE",
"225 -15 LINE"
);
}
);
width = 836;
},
{
anchors = (
{
name = bottom;
position = "{406, 0}";
},
{
name = top;
position = "{406, 520}";
}
);
components = (
{
alignment = -1;
name = _a.comp;
transform = "{1, 0, 0, 1, 45, 0}";
},
{
alignment = -1;
name = e;
transform = "{1, 0, 0, 1, 312, 0}";
}
);
layerId = "79308226-C67D-4E5D-B2BB-40C77DA13664";
paths = (
{
closed = 1;
nodes = (
"364 -15 OFFCURVE",
"446 64 OFFCURVE",
"446 199 CURVE",
"330 189 LINE",
"330 98 OFFCURVE",
"297 45 OFFCURVE",
"240 45 CURVE",
"225 -15 LINE"
);
}
);
width = 836;
},
{
anchors = (
{
name = bottom;
position = "{373, 0}";
},
{
name = top;
position = "{373, 500}";
}
);
components = (
{
alignment = -1;
name = _a.comp;
transform = "{1, 0, 0, 1, 45, 0}";
},
{
alignment = -1;
name = e;
transform = "{1, 0, 0, 1, 326, 0}";
}
);
layerId = "F80F23F5-B815-46C8-A0F2-25F52E1E7134";
paths = (
{
closed = 1;
nodes = (
"310 -15 OFFCURVE",
"388 71 OFFCURVE",
"388 185 CURVE",
"330 185 LINE",
"330 90 OFFCURVE",
"276 18 OFFCURVE",
"205 18 CURVE",
"205 -15 LINE"
);
}
);
width = 738;
}
);
leftKerningGroup = a;
leftMetricsKey = a;
rightKerningGroup = a;
rightMetricsKey = e;
unicode = 00E6;
},
{
glyphname = b;
lastChange = "2022-02-17 23:02:28 +0000";
layers = (
{
anchors = (
{
name = bottom;
position = "{235, 0}";
},
{
name = top;
position = "{234, 800}";
}
);
components = (
{
name = a.ss02;
transform = "{-1, 0, 0, 1, 433, 0}";
}
);
layerId = "EA4BDF10-EAD0-47D5-9AD5-B8C643A094C2";
paths = (
{
closed = 1;
nodes = (
"126 499 LINE",
"126 700 LINE",
"60 700 LINE",
"60 499 LINE"
);
}
);
width = 448;
},
{
anchors = (
{
name = bottom;
position = "{278, 0}";
},
{
name = top;
position = "{278, 800}";
}
);
components = (
{
name = a.ss02;
transform = "{-1, 0, 0, 1, 550, 0}";
}
);
layerId = "5EDCAC97-4996-4925-B8D9-EA484E9BADFC";
paths = (
{
closed = 1;
nodes = (
"226 518 LINE",
"226 720 LINE",
"60 720 LINE",
"60 518 LINE"
);
}
);
width = 565;
},
{
anchors = (
{
name = bottom;
position = "{278, 0}";
},
{
name = top;
position = "{278, 800}";
}
);
components = (
{
name = a.ss02;
transform = "{-1, 0, 0, 1, 550, 0}";
}
);
layerId = "79308226-C67D-4E5D-B2BB-40C77DA13664";
paths = (
{
closed = 1;
nodes = (
"226 518 LINE",
"226 720 LINE",
"60 720 LINE",
"60 518 LINE"
);
}
);
width = 565;
},
{
anchors = (
{
name = bottom;
position = "{235, 0}";
},
{
name = top;
position = "{234, 800}";
}
);
components = (
{
name = a.ss02;
transform = "{-1, 0, 0, 1, 433, 0}";
}
);
layerId = "F80F23F5-B815-46C8-A0F2-25F52E1E7134";
paths = (
{
closed = 1;
nodes = (
"126 499 LINE",
"126 700 LINE",
"60 700 LINE",
"60 499 LINE"
);
}
);
width = 448;
}
);
leftKerningGroup = b;
leftMetricsKey = "=B";
rightKerningGroup = a;
rightMetricsKey = "=a";
unicode = 0062;
},
{
glyphname = c;
lastChange = "2022-02-08 23:15:28 +0000";
layers = (
{
anchors = (
{
name = bottom;
position = "{216, 0}";
},
{
name = top;
position = "{216, 500}";
}
);
components = (
{
alignment = -1;
name = tall.curve;
transform = "{1, 0, 0, 1, 45, 1}";
},
{
name = cut.curve;
transform = "{-1, 0, 0, 1, 384, 16}";
},
{
alignment = -1;
name = tall.curve;
transform = "{1, 0, 0, -1, 45, 499}";
},
{
name = cut.curve;
transform = "{-1, 0, 0, -1, 384, 484}";
}
);
layerId = "EA4BDF10-EAD0-47D5-9AD5-B8C643A094C2";
paths = (
{
closed = 1;
nodes = (
"111 163 LINE",
"111 337 LINE",
"45 337 LINE",
"45 163 LINE"
);
}
);
width = 407;
},
{
anchors = (
{
name = bottom;
position = "{271, 0}";
},
{
name = top;
position = "{269, 520}";
}
);
components = (
{
alignment = -1;
name = tall.curve;
transform = "{1, 0, 0, 1, 45, 0}";
},
{
name = cut.curve;
transform = "{-1, 0, 0, 1, 478, 0}";
},
{
alignment = -1;
name = tall.curve;
transform = "{1, 0, 0, -1, 45, 520}";
},
{
name = cut.curve;
transform = "{-1, 0, 0, -1, 478, 520}";
}
);
layerId = "5EDCAC97-4996-4925-B8D9-EA484E9BADFC";
paths = (
{
closed = 1;
nodes = (
"211 223 LINE",
"211 297 LINE",
"45 297 LINE",
"45 223 LINE"
);
}
);
width = 501;
},
{
anchors = (
{
name = bottom;
position = "{271, 0}";
},
{
name = top;
position = "{270, 520}";
}
);
components = (
{
alignment = -1;
name = tall.curve;
transform = "{1, 0, 0, 1, 45, 0}";
},
{
name = cut.curve;
transform = "{-1, 0, 0, 1, 478, 0}";
},
{
alignment = -1;
name = tall.curve;
transform = "{1, 0, 0, -1, 45, 520}";
},
{
name = cut.curve;
transform = "{-1, 0, 0, -1, 478, 520}";
}
);
layerId = "79308226-C67D-4E5D-B2BB-40C77DA13664";
paths = (
{
closed = 1;
nodes = (
"211 223 LINE",
"211 297 LINE",
"45 297 LINE",
"45 223 LINE"
);
}
);
width = 501;
},
{
anchors = (
{
name = bottom;
position = "{216, 0}";
},
{
name = top;
position = "{216, 500}";
}
);
components = (
{
alignment = -1;
name = tall.curve;
transform = "{1, 0, 0, 1, 45, 1}";
},
{
name = cut.curve;
transform = "{-1, 0, 0, 1, 384, 16}";
},
{
alignment = -1;
name = tall.curve;
transform = "{1, 0, 0, -1, 45, 499}";
},
{
name = cut.curve;
transform = "{-1, 0, 0, -1, 384, 484}";
}
);
layerId = "F80F23F5-B815-46C8-A0F2-25F52E1E7134";
paths = (
{
closed = 1;
nodes = (
"111 163 LINE",
"111 337 LINE",
"45 337 LINE",
"45 163 LINE"
);
}
);
width = 407;
}
);
leftKerningGroup = a;
leftMetricsKey = "=a";
rightKerningGroup = a;
rightMetricsKey = "=a/2";
unicode = 0063;
},
{
glyphname = eth;
lastChange = "2022-02-12 18:53:15 +0000";
layers = (
{
components = (
{
name = o;
}
);
layerId = "EA4BDF10-EAD0-47D5-9AD5-B8C643A094C2";
paths = (
{
closed = 1;
nodes = (
"377 341 LINE",
"377 483 OFFCURVE",
"327 614 OFFCURVE",
"219 758 CURVE",
"168 730 LINE",
"266 592 OFFCURVE",
"311 470 OFFCURVE",
"311 341 CURVE"
);
},
{
closed = 1;
nodes = (
"342 697 LINE",
"312 745 LINE",
"131 641 LINE",
"161 593 LINE"
);
}
);
width = 422;
},
{
components = (
{
name = o;
}
);
layerId = "5EDCAC97-4996-4925-B8D9-EA484E9BADFC";
paths = (
{
closed = 1;
nodes = (
"495 299 LINE",
"495 441 OFFCURVE",
"446 614 OFFCURVE",
"338 758 CURVE",
"241 697 LINE",
"339 559 OFFCURVE",
"360 428 OFFCURVE",
"360 299 CURVE"
);
},
{
closed = 1;
nodes = (
"475 674 LINE",
"431 745 LINE",
"211 619 LINE",
"255 548 LINE"
);
}
);
width = 540;
},
{
components = (
{
name = o;
}
);
layerId = "79308226-C67D-4E5D-B2BB-40C77DA13664";
paths = (
{
closed = 1;
nodes = (
"495 299 LINE",
"495 441 OFFCURVE",
"446 614 OFFCURVE",
"338 758 CURVE",
"241 697 LINE",
"339 559 OFFCURVE",
"360 428 OFFCURVE",
"360 299 CURVE"
);
},
{
closed = 1;
nodes = (
"467 687 LINE",
"440 732 LINE",
"220 606 LINE",
"247 561 LINE"
);
}
);
width = 540;
},
{
components = (
{
name = o;
}
);
layerId = "F80F23F5-B815-46C8-A0F2-25F52E1E7134";
paths = (
{
closed = 1;
nodes = (
"377 341 LINE",
"377 483 OFFCURVE",
"327 614 OFFCURVE",
"219 758 CURVE",
"168 730 LINE",
"266 592 OFFCURVE",
"311 470 OFFCURVE",
"311 341 CURVE"
);
},
{
closed = 1;
nodes = (
"342 697 LINE",
"324 727 LINE",
"143 623 LINE",
"161 593 LINE"
);
}
);
width = 422;
}
);
leftKerningGroup = a;
leftMetricsKey = "=o";
rightKerningGroup = d;
rightMetricsKey = p;
unicode = 00F0;
},
{
glyphname = e;
lastChange = "2022-02-12 17:23:00 +0000";
layers = (
{
anchors = (
{
name = bottom;
position = "{206, 0}";
},
{
name = ogonek;
position = "{376, 10}";
},
{
name = top;
position = "{206, 500}";
}
);
components = (
{
name = general.curve;
transform = "{-1, 0, 0, 1, 377, 15}";
},
{
name = cut.curve;
transform = "{-1, 0, 0, -1, 377, 484}";
},
{
alignment = -1;
name = tall.curve;
transform = "{1, 0, 0, 1, 35, 0}";
},
{
alignment = -1;
name = tall.curve;
transform = "{1, 0, 0, -1, 35, 499}";
}
);
layerId = "EA4BDF10-EAD0-47D5-9AD5-B8C643A094C2";
paths = (
{
closed = 1;
nodes = (
"377 227 LINE",
"377 284 LINE",
"41 284 LINE",
"41 227 LINE"
);
},
{
closed = 1;
nodes = (
"209 -16 LINE",
"209 47 LINE",
"205 47 LINE",
"205 -16 LINE"
);
},
{
closed = 1;
nodes = (
"101 164 LINE",
"101 335 LINE",
"35 335 LINE",
"35 164 LINE"
);
},
{
closed = 1;
nodes = (
"377 284 LINE",
"377 350 LINE",
"311 350 LINE",
"311 284 LINE"
);
}
);
width = 412;
},
{
anchors = (
{
name = bottom;
position = "{255, 0}";
},
{
name = ogonek;
position = "{465, 10}";
},
{
name = top;
position = "{255, 520}";
}
);
components = (
{
name = general.curve;
transform = "{-1, 0, 0, 1, 489, 0}";
},
{
name = cut.curve;
transform = "{-1, 0, 0, -1, 479, 520}";
},
{
alignment = -1;
name = tall.curve;
transform = "{1, 0, 0, 1, 35, 0}";
},
{
alignment = -1;
name = tall.curve;
transform = "{1, 0, 0, -1, 35, 520}";
}
);
layerId = "5EDCAC97-4996-4925-B8D9-EA484E9BADFC";
paths = (
{
closed = 1;
nodes = (
"489 219 LINE",
"489 309 LINE",
"131 309 LINE",
"131 219 LINE"
);
},
{
closed = 1;
nodes = (
"270 -16 LINE",
"270 110 LINE",
"260 110 LINE",
"260 -16 LINE"
);
},
{
closed = 1;
nodes = (
"201 223 LINE",
"201 297 LINE",
"35 297 LINE",
"35 223 LINE"
);
},
{
closed = 1;
nodes = (
"489 309 LINE",
"489 317 LINE",
"323 317 LINE",
"323 309 LINE"
);
}
);
width = 524;
},
{
anchors = (
{
name = bottom;
position = "{262, 0}";
},
{
name = ogonek;
position = "{465, 10}";
},
{
name = top;
position = "{262, 520}";
}
);
components = (
{
name = general.curve;
transform = "{-1, 0, 0, 1, 489, 0}";
},
{
name = cut.curve;
transform = "{-1, 0, 0, -1, 477, 520}";
},
{
alignment = -1;
name = tall.curve;
transform = "{1, 0, 0, 1, 35, 0}";
},
{
alignment = -1;
name = tall.curve;
transform = "{1, 0, 0, -1, 35, 520}";
}
);
layerId = "79308226-C67D-4E5D-B2BB-40C77DA13664";
paths = (
{
closed = 1;
nodes = (
"489 224 LINE",
"489 290 LINE",
"131 290 LINE",
"131 224 LINE"
);
},
{
closed = 1;
nodes = (
"269 -16 LINE",
"269 50 LINE",
"259 50 LINE",
"259 -16 LINE"
);
},
{
closed = 1;
nodes = (
"201 223 LINE",
"201 297 LINE",
"35 297 LINE",
"35 223 LINE"
);
},
{
closed = 1;
nodes = (
"489 279 LINE",
"489 317 LINE",
"323 317 LINE",
"323 279 LINE"
);
}
);
width = 524;
},
{
anchors = (
{
name = bottom;
position = "{206, 0}";
},
{
name = ogonek;
position = "{376, 10}";
},
{
name = top;
position = "{206, 500}";
}
);
components = (
{
name = general.curve;
transform = "{-1, 0, 0, 1, 377, 15}";
},
{
name = cut.curve;
transform = "{-1, 0, 0, -1, 370, 484}";
},
{
alignment = -1;
name = tall.curve;
transform = "{1, 0, 0, 1, 35, 0}";
},
{
alignment = -1;
name = tall.curve;
transform = "{1, 0, 0, -1, 35, 499}";
}
);
layerId = "F80F23F5-B815-46C8-A0F2-25F52E1E7134";
paths = (
{
closed = 1;
nodes = (
"377 239 LINE",
"377 272 LINE",
"41 272 LINE",
"41 239 LINE"
);
},
{
closed = 1;
nodes = (
"209 -16 LINE",
"209 17 LINE",
"205 17 LINE",
"205 -16 LINE"
);
},
{
closed = 1;
nodes = (
"101 164 LINE",
"101 335 LINE",
"35 335 LINE",
"35 164 LINE"
);
},
{
closed = 1;
nodes = (
"377 272 LINE",
"377 350 LINE",
"311 350 LINE",
"311 272 LINE"
);
}
);
width = 412;
}
);
leftKerningGroup = a;
leftMetricsKey = "=a-10";
rightKerningGroup = a;
rightMetricsKey = "=a-10";
unicode = 0065;
},
{
color = 7;
glyphname = f;
lastChange = "2022-02-06 22:40:39 +0000";
layers = (
{
anchors = (
{
name = bottom;
position = "{150, 0}";
},
{
name = top;
position = "{150, 800}";
}
);
components = (
{
name = _fountain.curve.comp;
transform = "{1, 0, 0, 1, 83, 15}";
}
);
layerId = "EA4BDF10-EAD0-47D5-9AD5-B8C643A094C2";
paths = (
{
closed = 1;
nodes = (
"149 0 LINE",
"149 560 LINE",
"83 560 LINE",
"83 0 LINE"
);
},
{
closed = 1;
nodes = (
"275 440 LINE",
"275 500 LINE",
"25 500 LINE",
"25 440 LINE"
);
}
);
width = 305;
},
{
anchors = (
{
name = bottom;
position = "{202, 0}";
},
{
name = top;
position = "{202, 800}";
}
);
components = (
{
name = _fountain.curve.comp;
transform = "{1, 0, 0, 1, 83, 0}";
}
);
layerId = "5EDCAC97-4996-4925-B8D9-EA484E9BADFC";
paths = (
{
closed = 1;
nodes = (
"249 0 LINE",
"249 527 LINE",
"83 527 LINE",
"83 0 LINE"
);
},
{
closed = 1;
nodes = (
"364 400 LINE",
"364 520 LINE",
"25 520 LINE",
"25 400 LINE"
);
}
);
width = 420;
},
{
anchors = (
{
name = bottom;
position = "{202, 0}";
},
{
name = top;
position = "{202, 800}";
}
);
components = (
{
name = _fountain.curve.comp;
transform = "{1, 0, 0, 1, 83, 0}";
}
);
layerId = "79308226-C67D-4E5D-B2BB-40C77DA13664";
paths = (
{
closed = 1;
nodes = (
"249 0 LINE",
"249 527 LINE",
"83 527 LINE",
"83 0 LINE"
);
},
{
closed = 1;
nodes = (
"364 454 LINE",
"364 520 LINE",
"25 520 LINE",
"25 454 LINE"
);
}
);
width = 420;
},
{
anchors = (
{
name = bottom;
position = "{150, 0}";
},
{
name = top;
position = "{150, 800}";
}
);
components = (
{
name = _fountain.curve.comp;
transform = "{1, 0, 0, 1, 83, 15}";
}
);
layerId = "F80F23F5-B815-46C8-A0F2-25F52E1E7134";
paths = (
{
closed = 1;
nodes = (
"149 0 LINE",
"149 560 LINE",
"83 560 LINE",
"83 0 LINE"
);
},
{
closed = 1;
nodes = (
"275 467 LINE",
"275 500 LINE",
"25 500 LINE",
"25 467 LINE"
);
}
);
width = 305;
}
);
leftKerningGroup = f;
leftMetricsKey = "=+25";
rightKerningGroup = f;
rightMetricsKey = "=10";
unicode = 0066;
},
{
glyphname = g;
lastChange = "2022-02-06 22:23:15 +0000";
layers = (
{
anchors = (
{
name = bottom;
position = "{223, -200}";
},
{
name = top;
position = "{223, 500}";
}
);
components = (
{
name = _slash.curve.comp;
transform = "{-1, 0, 0, 1, 360, 0}";
},
{
name = _slash.curve.comp;
transform = "{-1, 0, 0, -1, 360, 509}";
},
{
name = general.curve;
transform = "{-1, 0, 0, -1, 388, 315}";
},
{
name = cut.curve;
transform = "{1, 0, 0, -1, 48, 315}";
}
);
layerId = "EA4BDF10-EAD0-47D5-9AD5-B8C643A094C2";
paths = (
{
closed = 1;
nodes = (
"388 -20 LINE",
"388 500 LINE",
"322 500 LINE",
"322 -20 LINE"
);
},
{
closed = 1;
nodes = (
"111 159 LINE",
"111 350 LINE",
"45 350 LINE",
"45 159 LINE"
);
}
);
width = 448;
},
{
anchors = (
{
name = bottom;
position = "{264, -200}";
},
{
name = top;
position = "{264, 520}";
}
);
components = (
{
name = _slash.curve.comp;
transform = "{-1, 0, 0, 1, 385, 0}";
},
{
name = _slash.curve.comp;
transform = "{-1, 0, 0, -1, 385, 545}";
},
{
name = general.curve;
transform = "{-1, 0, 0, -1, 505, 315}";
},
{
name = cut.curve;
transform = "{1, 0, 0, -1, 67, 315}";
}
);
layerId = "5EDCAC97-4996-4925-B8D9-EA484E9BADFC";
paths = (
{
closed = 1;
nodes = (
"505 -12 LINE",
"505 520 LINE",
"339 520 LINE",
"339 -12 LINE"
);
},
{
closed = 1;
nodes = (
"211 218 LINE",
"211 327 LINE",
"45 327 LINE",
"45 218 LINE"
);
}
);
width = 565;
},
{
anchors = (
{
name = bottom;
position = "{264, -200}";
},
{
name = top;
position = "{264, 520}";
}
);
components = (
{
name = _slash.curve.comp;
transform = "{-1, 0, 0, 1, 385, 0}";
},
{
name = _slash.curve.comp;
transform = "{-1, 0, 0, -1, 385, 545}";
},
{
name = general.curve;
transform = "{-1, 0, 0, -1, 505, 315}";
},
{
name = cut.curve;
transform = "{1, 0, 0, -1, 67, 315}";
}
);
layerId = "79308226-C67D-4E5D-B2BB-40C77DA13664";
paths = (
{
closed = 1;
nodes = (
"505 -12 LINE",
"505 520 LINE",
"339 520 LINE",
"339 -12 LINE"
);
},
{
closed = 1;
nodes = (
"211 218 LINE",
"211 327 LINE",
"45 327 LINE",
"45 218 LINE"
);
}
);
width = 565;
},
{
anchors = (
{
name = bottom;
position = "{223, -200}";
},
{
name = top;
position = "{223, 500}";
}
);
components = (
{
name = _slash.curve.comp;
transform = "{-1, 0, 0, 1, 360, 0}";
},
{
name = _slash.curve.comp;
transform = "{-1, 0, 0, -1, 360, 509}";
},
{
name = general.curve;
transform = "{-1, 0, 0, -1, 388, 315}";
},
{
name = cut.curve;
transform = "{1, 0, 0, -1, 55, 315}";
}
);
layerId = "F80F23F5-B815-46C8-A0F2-25F52E1E7134";
paths = (
{
closed = 1;
nodes = (
"388 -20 LINE",
"388 500 LINE",
"322 500 LINE",
"322 -20 LINE"
);
},
{
closed = 1;
nodes = (
"111 159 LINE",
"111 350 LINE",
"45 350 LINE",
"45 159 LINE"
);
}
);
width = 448;
}
);
leftKerningGroup = a;
leftMetricsKey = "=a";
rightKerningGroup = a;
rightMetricsKey = "=|b";
unicode = 0067;
},
{
glyphname = idotless;
lastChange = "2022-02-06 22:23:15 +0000";
layers = (
{
anchors = (
{
name = bottom;
position = "{104, 0}";
},
{
name = ogonek;
position = "{182, 10}";
},
{
name = top;
position = "{104, 500}";
}
);
layerId = "EA4BDF10-EAD0-47D5-9AD5-B8C643A094C2";
paths = (
{
closed = 1;
nodes = (
"136 0 LINE",
"136 500 LINE",
"70 500 LINE",
"70 0 LINE"
);
}
);
width = 206;
},
{
anchors = (
{
name = bottom;
position = "{153, 0}";
},
{
name = ogonek;
position = "{251, 10}";
},
{
name = top;
position = "{153, 520}";
}
);
layerId = "5EDCAC97-4996-4925-B8D9-EA484E9BADFC";
paths = (
{
closed = 1;
nodes = (
"236 0 LINE",
"236 520 LINE",
"70 520 LINE",
"70 0 LINE"
);
}
);
width = 306;
},
{
anchors = (
{
name = bottom;
position = "{153, 0}";
},
{
name = ogonek;
position = "{251, 10}";
},
{
name = top;
position = "{153, 520}";
}
);
layerId = "79308226-C67D-4E5D-B2BB-40C77DA13664";
paths = (
{
closed = 1;
nodes = (
"236 0 LINE",
"236 520 LINE",
"70 520 LINE",
"70 0 LINE"
);
}
);
width = 306;
},
{
anchors = (
{
name = bottom;
position = "{104, 0}";
},
{
name = ogonek;
position = "{182, 10}";
},
{
name = top;
position = "{104, 500}";
}
);
layerId = "F80F23F5-B815-46C8-A0F2-25F52E1E7134";
paths = (
{
closed = 1;
nodes = (
"136 0 LINE",
"136 500 LINE",
"70 500 LINE",
"70 0 LINE"
);
}
);
width = 206;
}
);
leftKerningGroup = b;
leftMetricsKey = "=I";
rightKerningGroup = d;
rightMetricsKey = "=I";
unicode = 0131;
},
{
color = 7;
glyphname = k;
lastChange = "2022-02-06 23:25:37 +0000";
layers = (
{
anchors = (
{
name = bottom;
position = "{202, 0}";
},
{
name = top;
position = "{199, 780}";
}
);
components = (
{
name = l;
transform = "{1, 0, 0, 1, -10, 0}";
}
);
layerId = "EA4BDF10-EAD0-47D5-9AD5-B8C643A094C2";
paths = (
{
closed = 1;
nodes = (
"372 0 LINE",
"186 306 LINE",
"126 277 LINE",
"304 0 LINE"
);
},
{
closed = 1;
nodes = (
"361 500 LINE",
"274 500 LINE",
"69 237 LINE",
"116 190 LINE"
);
}
);
width = 397;
},
{
anchors = (
{
name = bottom;
position = "{365, 0}";
},
{
name = top;
position = "{273, 780}";
}
);
components = (
{
name = l;
transform = "{1, 0, 0, 1, -10, 0}";
}
);
layerId = "5EDCAC97-4996-4925-B8D9-EA484E9BADFC";
paths = (
{
closed = 1;
nodes = (
"520 0 LINE",
"329 314 LINE",
"161 285 LINE",
"344 0 LINE"
);
},
{
closed = 1;
nodes = (
"504 520 LINE",
"324 520 LINE",
"64 197 LINE",
"204 150 LINE"
);
}
);
width = 545;
},
{
anchors = (
{
name = bottom;
position = "{365, 0}";
},
{
name = top;
position = "{273, 780}";
}
);
components = (
{
name = l;
transform = "{1, 0, 0, 1, -10, 0}";
}
);
layerId = "79308226-C67D-4E5D-B2BB-40C77DA13664";
paths = (
{
closed = 1;
nodes = (
"520 0 LINE",
"329 314 LINE",
"161 285 LINE",
"344 0 LINE"
);
},
{
closed = 1;
nodes = (
"500 520 LINE",
"400 520 LINE",
"140 197 LINE",
"200 150 LINE"
);
}
);
width = 545;
},
{
anchors = (
{
name = bottom;
position = "{202, 0}";
},
{
name = top;
position = "{199, 780}";
}
);
components = (
{
name = l;
transform = "{1, 0, 0, 1, -10, 0}";
}
);
layerId = "F80F23F5-B815-46C8-A0F2-25F52E1E7134";
paths = (
{
closed = 1;
nodes = (
"372 0 LINE",
"186 306 LINE",
"126 277 LINE",
"304 0 LINE"
);
},
{
closed = 1;
nodes = (
"341 500 LINE",
"294 500 LINE",
"89 237 LINE",
"96 190 LINE"
);
}
);
width = 397;
}
);
leftKerningGroup = b;
leftMetricsKey = "=B";
rightKerningGroup = k;
rightMetricsKey = "=+25";
unicode = 006B;
},
{
glyphname = l;
lastChange = "2022-02-06 22:23:15 +0000";
layers = (
{
anchors = (
{
name = bottom;
position = "{103, 0}";
},
{
name = center;
position = "{103, 450}";
},
{
name = top;
position = "{103, 780}";
},
{
name = topright;
position = "{164, 780}";
}
);
background = {
paths = (
{
closed = 1;
nodes = (
"70 697 LINE",
"70 3 LINE",
"73 0 LINE",
"133 0 LINE",
"136 3 LINE",
"136 697 LINE",
"133 700 LINE",
"73 700 LINE"
);
}
);
};
layerId = "EA4BDF10-EAD0-47D5-9AD5-B8C643A094C2";
paths = (
{
closed = 1;
nodes = (
"136 0 LINE",
"136 715 LINE",
"70 715 LINE",
"70 0 LINE"
);
}
);
width = 206;
},
{
anchors = (
{
name = bottom;
position = "{153, 0}";
},
{
name = center;
position = "{153, 400}";
},
{
name = top;
position = "{153, 800}";
},
{
name = topright;
position = "{256, 800}";
}
);
layerId = "5EDCAC97-4996-4925-B8D9-EA484E9BADFC";
paths = (
{
closed = 1;
nodes = (
"236 0 LINE",
"236 736 LINE",
"70 736 LINE",
"70 0 LINE"
);
}
);
width = 306;
},
{
anchors = (
{
name = bottom;
position = "{153, 0}";
},
{
name = center;
position = "{153, 400}";
},
{
name = top;
position = "{153, 800}";
},
{
name = topright;
position = "{256, 800}";
}
);
layerId = "79308226-C67D-4E5D-B2BB-40C77DA13664";
paths = (
{
closed = 1;
nodes = (
"236 0 LINE",
"236 736 LINE",
"70 736 LINE",
"70 0 LINE"
);
}
);
width = 306;
},
{
anchors = (
{
name = bottom;
position = "{103, 0}";
},
{
name = center;
position = "{103, 450}";
},
{
name = top;
position = "{103, 780}";
},
{
name = topright;
position = "{164, 780}";
}
);
background = {
paths = (
{
closed = 1;
nodes = (
"70 697 LINE",
"70 3 LINE",
"73 0 LINE",
"133 0 LINE",
"136 3 LINE",
"136 697 LINE",
"133 700 LINE",
"73 700 LINE"
);
}
);
};
layerId = "F80F23F5-B815-46C8-A0F2-25F52E1E7134";
paths = (
{
closed = 1;
nodes = (
"136 0 LINE",
"136 715 LINE",
"70 715 LINE",
"70 0 LINE"
);
}
);
width = 206;
}
);
leftKerningGroup = b;
leftMetricsKey = "=I";
rightKerningGroup = d;
rightMetricsKey = "=I";
unicode = 006C;
},
{
glyphname = m;
lastChange = "2022-02-06 22:23:15 +0000";
layers = (
{
anchors = (
{
name = bottom;
position = "{355, 0}";
},
{
name = top;
position = "{355, 500}";
}
);
layerId = "EA4BDF10-EAD0-47D5-9AD5-B8C643A094C2";
paths = (
{
closed = 1;
nodes = (
"126 0 LINE",
"126 500 LINE",
"60 500 LINE",
"60 0 LINE"
);
},
{
closed = 1;
nodes = (
"382 0 LINE",
"382 350 LINE",
"316 350 LINE",
"316 0 LINE"
);
},
{
closed = 1;
nodes = (
"126 350 LINE",
"126 407 OFFCURVE",
"167 449 OFFCURVE",
"221 449 CURVE",
"235 515 LINE",
"150 515 OFFCURVE",
"87 444 OFFCURVE",
"87 350 CURVE"
);
},
{
closed = 1;
nodes = (
"382 350 LINE",
"382 444 OFFCURVE",
"319 515 OFFCURVE",
"235 515 CURVE",
"221 449 LINE",
"275 449 OFFCURVE",
"316 407 OFFCURVE",
"316 350 CURVE"
);
},
{
closed = 1;
nodes = (
"638 0 LINE",
"638 350 LINE",
"572 350 LINE",
"572 0 LINE"
);
},
{
closed = 1;
nodes = (
"382 350 LINE",
"382 407 OFFCURVE",
"423 449 OFFCURVE",
"477 449 CURVE",
"491 515 LINE",
"406 515 OFFCURVE",
"343 444 OFFCURVE",
"343 350 CURVE"
);
},
{
closed = 1;
nodes = (
"638 350 LINE",
"638 444 OFFCURVE",
"575 515 OFFCURVE",
"491 515 CURVE",
"477 449 LINE",
"531 449 OFFCURVE",
"572 407 OFFCURVE",
"572 350 CURVE"
);
}
);
width = 683;
},
{
anchors = (
{
name = bottom;
position = "{413, 0}";
},
{
name = top;
position = "{413, 520}";
}
);
layerId = "5EDCAC97-4996-4925-B8D9-EA484E9BADFC";
paths = (
{
closed = 1;
nodes = (
"226 0 LINE",
"226 520 LINE",
"60 520 LINE",
"60 0 LINE"
);
},
{
closed = 1;
nodes = (
"500 0 LINE",
"500 327 LINE",
"334 327 LINE",
"334 0 LINE"
);
},
{
closed = 1;
nodes = (
"226 316 LINE",
"226 375 OFFCURVE",
"246 410 OFFCURVE",
"280 410 CURVE",
"330 536 LINE",
"244 536 OFFCURVE",
"180 442 OFFCURVE",
"180 316 CURVE"
);
},
{
closed = 1;
nodes = (
"500 327 LINE",
"500 446 OFFCURVE",
"427 536 OFFCURVE",
"330 536 CURVE",
"280 410 LINE",
"314 410 OFFCURVE",
"334 379 OFFCURVE",
"334 327 CURVE"
);
},
{
closed = 1;
nodes = (
"774 0 LINE",
"774 327 LINE",
"608 327 LINE",
"608 0 LINE"
);
},
{
closed = 1;
nodes = (
"500 316 LINE",
"500 375 OFFCURVE",
"520 410 OFFCURVE",
"554 410 CURVE",
"604 536 LINE",
"518 536 OFFCURVE",
"454 442 OFFCURVE",
"454 316 CURVE"
);
},
{
closed = 1;
nodes = (
"774 327 LINE",
"774 446 OFFCURVE",
"701 536 OFFCURVE",
"604 536 CURVE",
"554 410 LINE",
"588 410 OFFCURVE",
"608 379 OFFCURVE",
"608 327 CURVE"
);
}
);
width = 819;
},
{
anchors = (
{
name = bottom;
position = "{413, 0}";
},
{
name = top;
position = "{413, 520}";
}
);
layerId = "79308226-C67D-4E5D-B2BB-40C77DA13664";
paths = (
{
closed = 1;
nodes = (
"226 0 LINE",
"226 520 LINE",
"60 520 LINE",
"60 0 LINE"
);
},
{
closed = 1;
nodes = (
"500 0 LINE",
"500 327 LINE",
"334 327 LINE",
"334 0 LINE"
);
},
{
closed = 1;
nodes = (
"226 326 LINE",
"226 417 OFFCURVE",
"248 470 OFFCURVE",
"284 470 CURVE",
"330 536 LINE",
"244 536 OFFCURVE",
"180 446 OFFCURVE",
"180 326 CURVE"
);
},
{
closed = 1;
nodes = (
"500 327 LINE",
"500 446 OFFCURVE",
"427 536 OFFCURVE",
"330 536 CURVE",
"284 470 LINE",
"315 470 OFFCURVE",
"334 417 OFFCURVE",
"334 327 CURVE"
);
},
{
closed = 1;
nodes = (
"774 0 LINE",
"774 327 LINE",
"608 327 LINE",
"608 0 LINE"
);
},
{
closed = 1;
nodes = (
"500 326 LINE",
"500 417 OFFCURVE",
"522 470 OFFCURVE",
"558 470 CURVE",
"604 536 LINE",
"518 536 OFFCURVE",
"454 446 OFFCURVE",
"454 326 CURVE"
);
},
{
closed = 1;
nodes = (
"774 327 LINE",
"774 446 OFFCURVE",
"701 536 OFFCURVE",
"604 536 CURVE",
"558 470 LINE",
"589 470 OFFCURVE",
"608 417 OFFCURVE",
"608 327 CURVE"
);
}
);
width = 819;
},
{
anchors = (
{
name = bottom;
position = "{355, 0}";
},
{
name = top;
position = "{355, 500}";
}
);
layerId = "F80F23F5-B815-46C8-A0F2-25F52E1E7134";
paths = (
{
closed = 1;
nodes = (
"126 0 LINE",
"126 500 LINE",
"60 500 LINE",
"60 0 LINE"
);
},
{
closed = 1;
nodes = (
"382 0 LINE",
"382 350 LINE",
"316 350 LINE",
"316 0 LINE"
);
},
{
closed = 1;
nodes = (
"126 350 LINE",
"126 431 OFFCURVE",
"164 479 OFFCURVE",
"227 479 CURVE",
"235 515 LINE",
"150 515 OFFCURVE",
"87 444 OFFCURVE",
"87 350 CURVE"
);
},
{
closed = 1;
nodes = (
"382 350 LINE",
"382 444 OFFCURVE",
"319 515 OFFCURVE",
"235 515 CURVE",
"227 479 LINE",
"283 479 OFFCURVE",
"316 431 OFFCURVE",
"316 350 CURVE"
);
},
{
closed = 1;
nodes = (
"638 0 LINE",
"638 350 LINE",
"572 350 LINE",
"572 0 LINE"
);
},
{
closed = 1;
nodes = (
"382 350 LINE",
"382 431 OFFCURVE",
"420 479 OFFCURVE",
"483 479 CURVE",
"491 515 LINE",
"406 515 OFFCURVE",
"343 444 OFFCURVE",
"343 350 CURVE"
);
},
{
closed = 1;
nodes = (
"638 350 LINE",
"638 444 OFFCURVE",
"575 515 OFFCURVE",
"491 515 CURVE",
"483 479 LINE",
"539 479 OFFCURVE",
"572 431 OFFCURVE",
"572 350 CURVE"
);
}
);
width = 683;
}
);
leftKerningGroup = b;
leftMetricsKey = "=B";
rightKerningGroup = a;
rightMetricsKey = "=a";
unicode = 006D;
},
{
glyphname = n;
lastChange = "2022-02-06 22:28:22 +0000";
layers = (
{
anchors = (
{
name = bottom;
position = "{238, 0}";
},
{
name = top;
position = "{238, 500}";
}
);
background = {
paths = (
{
closed = 1;
nodes = (
"61 0 LINE",
"127 0 LINE",
"127 500 LINE",
"61 500 LINE"
);
},
{
closed = 1;
nodes = (
"337 0 LINE",
"403 0 LINE",
"403 350 LINE",
"337 350 LINE"
);
},
{
closed = 1;
nodes = (
"246 515 LINE",
"156 515 OFFCURVE",
"103 454 OFFCURVE",
"103 350 CURVE",
"127 350 LINE",
"127 412 OFFCURVE",
"166 449 OFFCURVE",
"232 449 CURVE"
);
},
{
closed = 1;
nodes = (
"295 449 OFFCURVE",
"337 409 OFFCURVE",
"337 350 CURVE",
"403 350 LINE",
"403 449 OFFCURVE",
"338 515 OFFCURVE",
"246 515 CURVE",
"232 449 LINE"
);
}
);
};
components = (
{
name = _slash.curve.comp;
transform = "{1, 0, 0, 1, 88, 0}";
}
);
layerId = "EA4BDF10-EAD0-47D5-9AD5-B8C643A094C2";
paths = (
{
closed = 1;
nodes = (
"126 0 LINE",
"126 500 LINE",
"60 500 LINE",
"60 0 LINE"
);
},
{
closed = 1;
nodes = (
"403 0 LINE",
"403 350 LINE",
"337 350 LINE",
"337 0 LINE"
);
}
);
width = 448;
},
{
anchors = (
{
name = bottom;
position = "{302, 0}";
},
{
name = top;
position = "{302, 520}";
}
);
components = (
{
name = _slash.curve.comp;
transform = "{1, 0, 0, 1, 180, 0}";
}
);
layerId = "5EDCAC97-4996-4925-B8D9-EA484E9BADFC";
paths = (
{
closed = 1;
nodes = (
"226 0 LINE",
"226 520 LINE",
"60 520 LINE",
"60 0 LINE"
);
},
{
closed = 1;
nodes = (
"520 0 LINE",
"520 327 LINE",
"354 327 LINE",
"354 0 LINE"
);
}
);
width = 565;
},
{
anchors = (
{
name = bottom;
position = "{302, 0}";
},
{
name = top;
position = "{302, 520}";
}
);
components = (
{
name = _slash.curve.comp;
transform = "{1, 0, 0, 1, 180, 0}";
}
);
layerId = "79308226-C67D-4E5D-B2BB-40C77DA13664";
paths = (
{
closed = 1;
nodes = (
"226 0 LINE",
"226 520 LINE",
"60 520 LINE",
"60 0 LINE"
);
},
{
closed = 1;
nodes = (
"520 0 LINE",
"520 327 LINE",
"354 327 LINE",
"354 0 LINE"
);
}
);
width = 565;
},
{
anchors = (
{
name = bottom;
position = "{238, 0}";
},
{
name = top;
position = "{238, 500}";
}
);
background = {
paths = (
{
closed = 1;
nodes = (
"61 0 LINE",
"127 0 LINE",
"127 500 LINE",
"61 500 LINE"
);
},
{
closed = 1;
nodes = (
"337 0 LINE",
"403 0 LINE",
"403 350 LINE",
"337 350 LINE"
);
},
{
closed = 1;
nodes = (
"246 515 LINE",
"156 515 OFFCURVE",
"103 454 OFFCURVE",
"103 350 CURVE",
"127 350 LINE",
"127 412 OFFCURVE",
"166 449 OFFCURVE",
"232 449 CURVE"
);
},
{
closed = 1;
nodes = (
"295 449 OFFCURVE",
"337 409 OFFCURVE",
"337 350 CURVE",
"403 350 LINE",
"403 449 OFFCURVE",
"338 515 OFFCURVE",
"246 515 CURVE",
"232 449 LINE"
);
}
);
};
components = (
{
name = _slash.curve.comp;
transform = "{1, 0, 0, 1, 88, 0}";
}
);
layerId = "F80F23F5-B815-46C8-A0F2-25F52E1E7134";
paths = (
{
closed = 1;
nodes = (
"126 0 LINE",
"126 500 LINE",
"60 500 LINE",
"60 0 LINE"
);
},
{
closed = 1;
nodes = (
"403 0 LINE",
"403 350 LINE",
"337 350 LINE",
"337 0 LINE"
);
}
);
width = 448;
}
);
leftKerningGroup = b;
leftMetricsKey = "=B";
rightKerningGroup = a;
rightMetricsKey = "=a";
unicode = 006E;
},
{
glyphname = o;
lastChange = "2022-02-08 23:06:43 +0000";
layers = (
{
anchors = (
{
name = bottom;
position = "{206, 0}";
},
{
name = center;
position = "{206, 250}";
},
{
name = ogonek;
position = "{381, 10}";
},
{
name = top;
position = "{206, 500}";
},
{
name = topright;
position = "{405, 500}";
}
);
background = {
paths = (
{
closed = 1;
nodes = (
"35 365 LINE",
"35 135 LINE",
"101 135 LINE",
"101 365 LINE"
);
},
{
closed = 1;
nodes = (
"206 515 LINE",
"103 515 OFFCURVE",
"35 455 OFFCURVE",
"35 365 CURVE",
"101 365 LINE",
"101 416 OFFCURVE",
"134 449 OFFCURVE",
"206 449 CURVE"
);
},
{
closed = 1;
nodes = (
"134 51 OFFCURVE",
"101 84 OFFCURVE",
"101 135 CURVE",
"35 135 LINE",
"35 45 OFFCURVE",
"103 -15 OFFCURVE",
"206 -15 CURVE",
"206 51 LINE"
);
},
{
closed = 1;
nodes = (
"311 135 LINE",
"377 135 LINE",
"377 365 LINE",
"311 365 LINE"
);
},
{
closed = 1;
nodes = (
"278 449 OFFCURVE",
"311 416 OFFCURVE",
"311 365 CURVE",
"377 365 LINE",
"377 455 OFFCURVE",
"309 515 OFFCURVE",
"206 515 CURVE",
"206 449 LINE"
);
},
{
closed = 1;
nodes = (
"206 -15 LINE",
"309 -15 OFFCURVE",
"377 45 OFFCURVE",
"377 135 CURVE",
"311 135 LINE",
"311 84 OFFCURVE",
"278 51 OFFCURVE",
"206 51 CURVE"
);
}
);
};
components = (
{
name = tall.curve;
transform = "{1, 0, 0, 1, 35, 0}";
},
{
name = tall.curve;
transform = "{-1, 0, 0, 1, 377, 0}";
},
{
name = tall.curve;
transform = "{1, 0, 0, -1, 35, 500}";
},
{
name = tall.curve;
transform = "{-1, 0, 0, -1, 377, 500}";
}
);
layerId = "EA4BDF10-EAD0-47D5-9AD5-B8C643A094C2";
paths = (
{
closed = 1;
nodes = (
"377 164 LINE",
"377 336 LINE",
"311 336 LINE",
"311 164 LINE"
);
},
{
closed = 1;
nodes = (
"101 164 LINE",
"101 336 LINE",
"35 336 LINE",
"35 164 LINE"
);
},
{
closed = 1;
nodes = (
"208 452 LINE",
"208 515 LINE",
"204 515 LINE",
"204 452 LINE"
);
},
{
closed = 1;
nodes = (
"208 -15 LINE",
"208 48 LINE",
"204 48 LINE",
"204 -15 LINE"
);
}
);
width = 412;
},
{
anchors = (
{
name = bottom;
position = "{265, 0}";
},
{
name = center;
position = "{265, 260}";
},
{
name = ogonek;
position = "{479, 10}";
},
{
name = top;
position = "{265, 520}";
},
{
name = topright;
position = "{513, 520}";
}
);
components = (
{
name = tall.curve;
transform = "{1, 0, 0, 1, 35, -1}";
},
{
name = tall.curve;
transform = "{-1, 0, 0, 1, 495, -1}";
},
{
name = tall.curve;
transform = "{1, 0, 0, -1, 35, 521}";
},
{
name = tall.curve;
transform = "{-1, 0, 0, -1, 495, 521}";
}
);
layerId = "5EDCAC97-4996-4925-B8D9-EA484E9BADFC";
paths = (
{
closed = 1;
nodes = (
"495 224 LINE",
"495 296 LINE",
"329 296 LINE",
"329 224 LINE"
);
},
{
closed = 1;
nodes = (
"201 224 LINE",
"201 296 LINE",
"35 296 LINE",
"35 224 LINE"
);
},
{
closed = 1;
nodes = (
"271 409 LINE",
"271 535 LINE",
"259 535 LINE",
"259 409 LINE"
);
},
{
closed = 1;
nodes = (
"271 -15 LINE",
"271 111 LINE",
"259 111 LINE",
"259 -15 LINE"
);
}
);
width = 530;
},
{
anchors = (
{
name = bottom;
position = "{265, 0}";
},
{
name = center;
position = "{265, 260}";
},
{
name = ogonek;
position = "{479, 10}";
},
{
name = top;
position = "{265, 520}";
},
{
name = topright;
position = "{513, 520}";
}
);
components = (
{
name = tall.curve;
transform = "{1, 0, 0, 1, 35, -1}";
},
{
name = tall.curve;
transform = "{-1, 0, 0, 1, 495, -1}";
},
{
name = tall.curve;
transform = "{1, 0, 0, -1, 35, 521}";
},
{
name = tall.curve;
transform = "{-1, 0, 0, -1, 495, 521}";
}
);
layerId = "79308226-C67D-4E5D-B2BB-40C77DA13664";
paths = (
{
closed = 1;
nodes = (
"495 224 LINE",
"495 296 LINE",
"329 296 LINE",
"329 224 LINE"
);
},
{
closed = 1;
nodes = (
"201 224 LINE",
"201 296 LINE",
"35 296 LINE",
"35 224 LINE"
);
},
{
closed = 1;
nodes = (
"271 469 LINE",
"271 535 LINE",
"259 535 LINE",
"259 469 LINE"
);
},
{
closed = 1;
nodes = (
"271 -15 LINE",
"271 51 LINE",
"259 51 LINE",
"259 -15 LINE"
);
}
);
width = 530;
},
{
anchors = (
{
name = bottom;
position = "{206, 0}";
},
{
name = center;
position = "{206, 250}";
},
{
name = ogonek;
position = "{381, 10}";
},
{
name = top;
position = "{206, 500}";
},
{
name = topright;
position = "{405, 500}";
}
);
background = {
paths = (
{
closed = 1;
nodes = (
"35 365 LINE",
"35 135 LINE",
"101 135 LINE",
"101 365 LINE"
);
},
{
closed = 1;
nodes = (
"206 515 LINE",
"103 515 OFFCURVE",
"35 455 OFFCURVE",
"35 365 CURVE",
"101 365 LINE",
"101 416 OFFCURVE",
"134 449 OFFCURVE",
"206 449 CURVE"
);
},
{
closed = 1;
nodes = (
"134 51 OFFCURVE",
"101 84 OFFCURVE",
"101 135 CURVE",
"35 135 LINE",
"35 45 OFFCURVE",
"103 -15 OFFCURVE",
"206 -15 CURVE",
"206 51 LINE"
);
},
{
closed = 1;
nodes = (
"311 135 LINE",
"377 135 LINE",
"377 365 LINE",
"311 365 LINE"
);
},
{
closed = 1;
nodes = (
"278 449 OFFCURVE",
"311 416 OFFCURVE",
"311 365 CURVE",
"377 365 LINE",
"377 455 OFFCURVE",
"309 515 OFFCURVE",
"206 515 CURVE",
"206 449 LINE"
);
},
{
closed = 1;
nodes = (
"206 -15 LINE",
"309 -15 OFFCURVE",
"377 45 OFFCURVE",
"377 135 CURVE",
"311 135 LINE",
"311 84 OFFCURVE",
"278 51 OFFCURVE",
"206 51 CURVE"
);
}
);
};
components = (
{
name = tall.curve;
transform = "{1, 0, 0, 1, 35, 0}";
},
{
name = tall.curve;
transform = "{-1, 0, 0, 1, 377, 0}";
},
{
name = tall.curve;
transform = "{1, 0, 0, -1, 35, 500}";
},
{
name = tall.curve;
transform = "{-1, 0, 0, -1, 377, 500}";
}
);
layerId = "F80F23F5-B815-46C8-A0F2-25F52E1E7134";
paths = (
{
closed = 1;
nodes = (
"377 164 LINE",
"377 336 LINE",
"311 336 LINE",
"311 164 LINE"
);
},
{
closed = 1;
nodes = (
"101 164 LINE",
"101 336 LINE",
"35 336 LINE",
"35 164 LINE"
);
},
{
closed = 1;
nodes = (
"208 482 LINE",
"208 515 LINE",
"204 515 LINE",
"204 482 LINE"
);
},
{
closed = 1;
nodes = (
"208 -15 LINE",
"208 18 LINE",
"204 18 LINE",
"204 -15 LINE"
);
}
);
width = 412;
}
);
leftKerningGroup = a;
leftMetricsKey = "=a-10";
rightKerningGroup = a;
rightMetricsKey = "=|a-10";
unicode = 006F;
},
{
glyphname = oslash;
lastChange = "2022-02-08 23:07:54 +0000";
layers = (
{
anchors = (
{
name = top;
position = "{205, 500}";
}
);
components = (
{
name = o;
}
);
guideLines = (
{
angle = 90;
position = "{205, 554}";
}
);
layerId = "EA4BDF10-EAD0-47D5-9AD5-B8C643A094C2";
paths = (
{
closed = 1;
nodes = (
"117 -54 LINE",
"350 554 LINE",
"293 554 LINE",
"60 -54 LINE"
);
}
);
width = 412;
},
{
anchors = (
{
name = top;
position = "{265, 520}";
}
);
components = (
{
name = o;
}
);
guideLines = (
{
angle = 90;
position = "{265, 538}";
}
);
layerId = "5EDCAC97-4996-4925-B8D9-EA484E9BADFC";
paths = (
{
closed = 1;
nodes = (
"177 -44 LINE",
"410 564 LINE",
"353 564 LINE",
"120 -44 LINE"
);
}
);
width = 530;
},
{
anchors = (
{
name = top;
position = "{265, 520}";
}
);
components = (
{
name = o;
}
);
guideLines = (
{
angle = 90;
position = "{265, 538}";
}
);
layerId = "79308226-C67D-4E5D-B2BB-40C77DA13664";
paths = (
{
closed = 1;
nodes = (
"177 -44 LINE",
"410 564 LINE",
"353 564 LINE",
"120 -44 LINE"
);
}
);
width = 530;
},
{
anchors = (
{
name = top;
position = "{206, 500}";
}
);
components = (
{
name = o;
}
);
guideLines = (
{
angle = 90;
position = "{206, 554}";
}
);
layerId = "F80F23F5-B815-46C8-A0F2-25F52E1E7134";
paths = (
{
closed = 1;
nodes = (
"118 -54 LINE",
"351 554 LINE",
"294 554 LINE",
"61 -54 LINE"
);
}
);
width = 412;
}
);
leftKerningGroup = a;
leftMetricsKey = "=o";
rightKerningGroup = a;
rightMetricsKey = "=o";
unicode = 00F8;
},
{
glyphname = thorn;
lastChange = "2022-02-07 23:53:24 +0000";
layers = (
{
anchors = (
{
name = bottom;
position = "{224, 0}";
},
{
name = top;
position = "{224, 500}";
}
);
components = (
{
name = p;
}
);
layerId = "EA4BDF10-EAD0-47D5-9AD5-B8C643A094C2";
paths = (
{
closed = 1;
nodes = (
"126 499 LINE",
"126 700 LINE",
"60 700 LINE",
"60 499 LINE"
);
}
);
width = 448;
},
{
anchors = (
{
name = bottom;
position = "{283, 0}";
},
{
name = top;
position = "{283, 520}";
}
);
components = (
{
name = p;
}
);
layerId = "5EDCAC97-4996-4925-B8D9-EA484E9BADFC";
paths = (
{
closed = 1;
nodes = (
"226 518 LINE",
"226 720 LINE",
"60 720 LINE",
"60 518 LINE"
);
}
);
width = 565;
},
{
anchors = (
{
name = bottom;
position = "{283, 0}";
},
{
name = top;
position = "{283, 520}";
}
);
components = (
{
name = p;
}
);
layerId = "79308226-C67D-4E5D-B2BB-40C77DA13664";
paths = (
{
closed = 1;
nodes = (
"226 518 LINE",
"226 720 LINE",
"60 720 LINE",
"60 518 LINE"
);
}
);
width = 565;
},
{
anchors = (
{
name = bottom;
position = "{224, 0}";
},
{
name = top;
position = "{224, 500}";
}
);
components = (
{
name = p;
}
);
layerId = "F80F23F5-B815-46C8-A0F2-25F52E1E7134";
paths = (
{
closed = 1;
nodes = (
"126 499 LINE",
"126 700 LINE",
"60 700 LINE",
"60 499 LINE"
);
}
);
width = 448;
}
);
leftKerningGroup = b;
leftMetricsKey = p;
rightKerningGroup = a;
rightMetricsKey = "=p";
unicode = 00FE;
},
{
glyphname = r;
lastChange = "2022-02-06 22:23:15 +0000";
layers = (
{
anchors = (
{
name = bottom;
position = "{168, 0}";
},
{
name = top;
position = "{168, 500}";
}
);
background = {
paths = (
{
closed = 1;
nodes = (
"60 497 LINE",
"60 3 LINE",
"63 0 LINE",
"123 0 LINE",
"126 3 LINE",
"126 497 LINE",
"123 500 LINE",
"63 500 LINE"
);
},
{
closed = 1;
nodes = (
"255 444 OFFCURVE",
"273 438 OFFCURVE",
"289 424 CURVE",
"292 424 LINE",
"334 478 LINE",
"334 481 LINE",
"311 498 OFFCURVE",
"276 510 OFFCURVE",
"245 510 CURVE",
"231 444 LINE"
);
},
{
closed = 1;
nodes = (
"245 510 LINE",
"155 510 OFFCURVE",
"102 449 OFFCURVE",
"102 345 CURVE",
"126 345 LINE",
"126 407 OFFCURVE",
"165 444 OFFCURVE",
"231 444 CURVE"
);
}
);
};
layerId = "EA4BDF10-EAD0-47D5-9AD5-B8C643A094C2";
paths = (
{
closed = 1;
nodes = (
"126 0 LINE",
"126 500 LINE",
"60 500 LINE",
"60 0 LINE"
);
},
{
closed = 1;
nodes = (
"126 345 LINE",
"126 402 OFFCURVE",
"162 444 OFFCURVE",
"211 444 CURVE",
"225 510 LINE",
"146 510 OFFCURVE",
"87 439 OFFCURVE",
"87 345 CURVE"
);
},
{
closed = 1;
nodes = (
"305 480 LINE",
"279 501 OFFCURVE",
"254 510 OFFCURVE",
"225 510 CURVE",
"211 444 LINE",
"231 444 OFFCURVE",
"249 437 OFFCURVE",
"271 422 CURVE"
);
}
);
width = 330;
},
{
anchors = (
{
name = bottom;
position = "{241, 0}";
},
{
name = top;
position = "{241, 520}";
}
);
layerId = "5EDCAC97-4996-4925-B8D9-EA484E9BADFC";
paths = (
{
closed = 1;
nodes = (
"226 0 LINE",
"226 520 LINE",
"60 520 LINE",
"60 0 LINE"
);
},
{
closed = 1;
nodes = (
"226 296 LINE",
"226 355 OFFCURVE",
"250 390 OFFCURVE",
"290 390 CURVE",
"330 535 LINE",
"244 535 OFFCURVE",
"180 433 OFFCURVE",
"180 296 CURVE"
);
},
{
closed = 1;
nodes = (
"421 489 LINE",
"390 522 OFFCURVE",
"365 535 OFFCURVE",
"330 535 CURVE",
"290 390 LINE",
"316 390 OFFCURVE",
"348 373 OFFCURVE",
"366 350 CURVE"
);
}
);
width = 446;
},
{
anchors = (
{
name = bottom;
position = "{241, 0}";
},
{
name = top;
position = "{241, 520}";
}
);
layerId = "79308226-C67D-4E5D-B2BB-40C77DA13664";
paths = (
{
closed = 1;
nodes = (
"226 0 LINE",
"226 520 LINE",
"60 520 LINE",
"60 0 LINE"
);
},
{
closed = 1;
nodes = (
"226 296 LINE",
"226 393 OFFCURVE",
"256 450 OFFCURVE",
"306 450 CURVE",
"330 535 LINE",
"244 535 OFFCURVE",
"180 433 OFFCURVE",
"180 296 CURVE"
);
},
{
closed = 1;
nodes = (
"421 489 LINE",
"396 515 OFFCURVE",
"357 535 OFFCURVE",
"330 535 CURVE",
"306 450 LINE",
"329 450 OFFCURVE",
"360 435 OFFCURVE",
"389 409 CURVE"
);
}
);
width = 446;
},
{
anchors = (
{
name = bottom;
position = "{168, 0}";
},
{
name = top;
position = "{168, 500}";
}
);
background = {
paths = (
{
closed = 1;
nodes = (
"60 497 LINE",
"60 3 LINE",
"63 0 LINE",
"123 0 LINE",
"126 3 LINE",
"126 497 LINE",
"123 500 LINE",
"63 500 LINE"
);
},
{
closed = 1;
nodes = (
"255 444 OFFCURVE",
"273 438 OFFCURVE",
"289 424 CURVE",
"292 424 LINE",
"334 478 LINE",
"334 481 LINE",
"311 498 OFFCURVE",
"276 510 OFFCURVE",
"245 510 CURVE",
"231 444 LINE"
);
},
{
closed = 1;
nodes = (
"245 510 LINE",
"155 510 OFFCURVE",
"102 449 OFFCURVE",
"102 345 CURVE",
"126 345 LINE",
"126 407 OFFCURVE",
"165 444 OFFCURVE",
"231 444 CURVE"
);
}
);
};
layerId = "F80F23F5-B815-46C8-A0F2-25F52E1E7134";
paths = (
{
closed = 1;
nodes = (
"126 0 LINE",
"126 500 LINE",
"60 500 LINE",
"60 0 LINE"
);
},
{
closed = 1;
nodes = (
"126 345 LINE",
"126 419 OFFCURVE",
"165 474 OFFCURVE",
"218 474 CURVE",
"225 510 LINE",
"146 510 OFFCURVE",
"87 439 OFFCURVE",
"87 345 CURVE"
);
},
{
closed = 1;
nodes = (
"305 480 LINE",
"279 501 OFFCURVE",
"254 510 OFFCURVE",
"225 510 CURVE",
"218 474 LINE",
"246 474 OFFCURVE",
"263 461 OFFCURVE",
"283 443 CURVE"
);
}
);
width = 330;
}
);
leftKerningGroup = b;
leftMetricsKey = "=B";
rightKerningGroup = r;
rightMetricsKey = "=k";
unicode = 0072;
},
{
glyphname = s;
lastChange = "2022-02-06 22:23:04 +0000";
layers = (
{
anchors = (
{
name = bottom;
position = "{204, 0}";
},
{
name = top;
position = "{204, 500}";
}
);
background = {
paths = (
{
closed = 1;
nodes = (
"33 50 OFFCURVE",
"101 -8 OFFCURVE",
"204 -8 CURVE SMOOTH",
"301 -8 OFFCURVE",
"365 60 OFFCURVE",
"365 132 CURVE SMOOTH",
"365 298 OFFCURVE",
"109 251 OFFCURVE",
"109 365 CURVE SMOOTH",
"109 400 OFFCURVE",
"142 434 OFFCURVE",
"204 434 CURVE SMOOTH",
"276 434 OFFCURVE",
"309 404 OFFCURVE",
"309 353 CURVE",
"312 350 LINE",
"372 350 LINE",
"375 353 LINE",
"375 443 OFFCURVE",
"307 500 OFFCURVE",
"204 500 CURVE SMOOTH",
"107 500 OFFCURVE",
"43 437 OFFCURVE",
"43 365 CURVE SMOOTH",
"43 200 OFFCURVE",
"299 246 OFFCURVE",
"299 132 CURVE SMOOTH",
"299 97 OFFCURVE",
"266 58 OFFCURVE",
"204 58 CURVE SMOOTH",
"132 58 OFFCURVE",
"99 88 OFFCURVE",
"99 139 CURVE",
"96 142 LINE",
"36 142 LINE",
"33 140 LINE"
);
}
);
};
components = (
{
name = cut.curve;
transform = "{1, 0, 0, -1, 35, 485}";
},
{
name = cut.curve;
transform = "{-1, 0, 0, 1, 367, 16}";
}
);
layerId = "EA4BDF10-EAD0-47D5-9AD5-B8C643A094C2";
paths = (
{
closed = 1;
nodes = (
"299 125 OFFCURVE",
"365 125 OFFCURVE",
"365 125 CURVE SMOOTH",
"365 291 OFFCURVE",
"118 272 OFFCURVE",
"118 380 CURVE SMOOTH",
"118 380 OFFCURVE",
"52 380 OFFCURVE",
"52 380 CURVE SMOOTH",
"52 215 OFFCURVE",
"299 233 OFFCURVE",
"299 125 CURVE SMOOTH"
);
},
{
closed = 1;
nodes = (
"296 -15 OFFCURVE",
"365 45 OFFCURVE",
"365 125 CURVE",
"299 125 LINE",
"299 81 OFFCURVE",
"258 48 OFFCURVE",
"204 48 CURVE",
"204 -15 LINE"
);
},
{
closed = 1;
nodes = (
"118 380 LINE",
"118 422 OFFCURVE",
"152 453 OFFCURVE",
"198 453 CURVE",
"198 516 LINE",
"115 516 OFFCURVE",
"52 458 OFFCURVE",
"52 380 CURVE"
);
}
);
width = 402;
},
{
anchors = (
{
name = bottom;
position = "{243, 0}";
},
{
name = top;
position = "{243, 520}";
}
);
components = (
{
name = cut.curve;
transform = "{1, 0, 0, -1, 35, 520}";
},
{
name = cut.curve;
transform = "{-1, 0, 0, 1, 453, 0}";
}
);
layerId = "5EDCAC97-4996-4925-B8D9-EA484E9BADFC";
paths = (
{
closed = 1;
nodes = (
"299 145 OFFCURVE",
"455 145 OFFCURVE",
"455 145 CURVE SMOOTH",
"455 311 OFFCURVE",
"198 302 OFFCURVE",
"198 370 CURVE SMOOTH",
"198 370 OFFCURVE",
"42 370 OFFCURVE",
"42 370 CURVE SMOOTH",
"42 205 OFFCURVE",
"299 213 OFFCURVE",
"299 145 CURVE SMOOTH"
);
},
{
closed = 1;
nodes = (
"376 -16 OFFCURVE",
"455 44 OFFCURVE",
"455 145 CURVE",
"299 145 LINE",
"299 123 OFFCURVE",
"278 110 OFFCURVE",
"243 110 CURVE",
"243 -16 LINE"
);
},
{
closed = 1;
nodes = (
"198 370 LINE",
"198 393 OFFCURVE",
"218 410 OFFCURVE",
"245 410 CURVE",
"245 536 LINE",
"129 536 OFFCURVE",
"42 465 OFFCURVE",
"42 370 CURVE"
);
}
);
width = 490;
},
{
anchors = (
{
name = bottom;
position = "{243, 0}";
},
{
name = top;
position = "{243, 520}";
}
);
components = (
{
name = cut.curve;
transform = "{1, 0, 0, -1, 35, 520}";
},
{
name = cut.curve;
transform = "{-1, 0, 0, 1, 453, 0}";
}
);
layerId = "79308226-C67D-4E5D-B2BB-40C77DA13664";
paths = (
{
closed = 1;
nodes = (
"299 105 OFFCURVE",
"455 145 OFFCURVE",
"455 145 CURVE SMOOTH",
"455 311 OFFCURVE",
"198 302 OFFCURVE",
"198 410 CURVE SMOOTH",
"198 410 OFFCURVE",
"42 370 OFFCURVE",
"42 370 CURVE SMOOTH",
"42 205 OFFCURVE",
"299 213 OFFCURVE",
"299 105 CURVE SMOOTH"
);
},
{
closed = 1;
nodes = (
"364 -16 OFFCURVE",
"455 53 OFFCURVE",
"455 145 CURVE",
"299 105 LINE",
"299 70 OFFCURVE",
"278 50 OFFCURVE",
"243 50 CURVE",
"243 -16 LINE"
);
},
{
closed = 1;
nodes = (
"198 410 LINE",
"198 448 OFFCURVE",
"215 470 OFFCURVE",
"245 470 CURVE",
"245 536 LINE",
"129 536 OFFCURVE",
"42 465 OFFCURVE",
"42 370 CURVE"
);
}
);
width = 490;
},
{
anchors = (
{
name = bottom;
position = "{196, 0}";
},
{
name = top;
position = "{196, 500}";
}
);
background = {
paths = (
{
closed = 1;
nodes = (
"25 50 OFFCURVE",
"93 -8 OFFCURVE",
"196 -8 CURVE SMOOTH",
"293 -8 OFFCURVE",
"357 60 OFFCURVE",
"357 132 CURVE SMOOTH",
"357 298 OFFCURVE",
"101 251 OFFCURVE",
"101 365 CURVE SMOOTH",
"101 400 OFFCURVE",
"134 434 OFFCURVE",
"196 434 CURVE SMOOTH",
"268 434 OFFCURVE",
"301 404 OFFCURVE",
"301 353 CURVE",
"304 350 LINE",
"364 350 LINE",
"367 353 LINE",
"367 443 OFFCURVE",
"299 500 OFFCURVE",
"196 500 CURVE SMOOTH",
"99 500 OFFCURVE",
"35 437 OFFCURVE",
"35 365 CURVE SMOOTH",
"35 200 OFFCURVE",
"291 246 OFFCURVE",
"291 132 CURVE SMOOTH",
"291 97 OFFCURVE",
"258 58 OFFCURVE",
"196 58 CURVE SMOOTH",
"124 58 OFFCURVE",
"91 88 OFFCURVE",
"91 139 CURVE",
"88 142 LINE",
"28 142 LINE",
"25 140 LINE"
);
}
);
};
components = (
{
name = cut.curve;
transform = "{1, 0, 0, -1, 35, 485}";
},
{
name = cut.curve;
transform = "{-1, 0, 0, 1, 351, 16}";
}
);
layerId = "F80F23F5-B815-46C8-A0F2-25F52E1E7134";
paths = (
{
closed = 1;
nodes = (
"291 125 OFFCURVE",
"357 125 OFFCURVE",
"357 125 CURVE SMOOTH",
"357 291 OFFCURVE",
"110 272 OFFCURVE",
"110 380 CURVE SMOOTH",
"110 380 OFFCURVE",
"44 380 OFFCURVE",
"44 380 CURVE SMOOTH",
"44 215 OFFCURVE",
"291 233 OFFCURVE",
"291 125 CURVE SMOOTH"
);
},
{
closed = 1;
nodes = (
"288 -15 OFFCURVE",
"357 45 OFFCURVE",
"357 125 CURVE",
"291 125 LINE",
"291 58 OFFCURVE",
"256 18 OFFCURVE",
"196 18 CURVE",
"196 -15 LINE"
);
},
{
closed = 1;
nodes = (
"110 380 LINE",
"110 445 OFFCURVE",
"140 483 OFFCURVE",
"190 483 CURVE",
"190 516 LINE",
"107 516 OFFCURVE",
"44 458 OFFCURVE",
"44 380 CURVE"
);
}
);
width = 392;
}
);
leftKerningGroup = a;
leftMetricsKey = "=a-10";
rightKerningGroup = a;
rightMetricsKey = "=a-10";
unicode = 0073;
},
{
glyphname = germandbls;
lastChange = "2022-02-06 22:23:15 +0000";
layers = (
{
components = (
{
name = tall.thincurve;
transform = "{1, 0, 0, 1, 60, 185}";
},
{
name = tall.thincurve;
transform = "{-1, 0, 0, 1, 402, 185}";
},
{
name = tall.thincurve;
transform = "{-1, 0, 0, -1, 402, 837}";
},
{
name = tall.thincurve;
transform = "{-1, 0, 0, 1, 432, -133}";
},
{
name = tall.thincurve;
transform = "{-1, 0, 0, -1, 432, 515}";
}
);
layerId = "EA4BDF10-EAD0-47D5-9AD5-B8C643A094C2";
paths = (
{
closed = 1;
nodes = (
"123 0 LINE",
"123 520 LINE",
"60 520 LINE",
"60 0 LINE"
);
},
{
closed = 1;
nodes = (
"261 0 LINE",
"261 60 LINE",
"200 60 LINE",
"190 0 LINE"
);
},
{
closed = 1;
nodes = (
"261 322 LINE",
"261 382 LINE",
"190 382 LINE",
"190 322 LINE"
);
},
{
closed = 1;
nodes = (
"432 179 LINE",
"432 203 LINE",
"369 203 LINE",
"369 179 LINE"
);
},
{
closed = 1;
nodes = (
"402 501 LINE",
"402 521 LINE",
"339 521 LINE",
"339 501 LINE"
);
}
);
width = 477;
},
{
components = (
{
name = tall.thincurve;
transform = "{1, 0, 0, 1, 60, 155}";
},
{
name = tall.thincurve;
transform = "{-1, 0, 0, 1, 509, 155}";
},
{
name = tall.thincurve;
transform = "{-1, 0, 0, -1, 509, 827}";
},
{
name = tall.thincurve;
transform = "{-1, 0, 0, 1, 519, -122}";
},
{
name = tall.thincurve;
transform = "{-1, 0, 0, -1, 519, 521}";
}
);
layerId = "5EDCAC97-4996-4925-B8D9-EA484E9BADFC";
paths = (
{
closed = 1;
nodes = (
"216 0 LINE",
"216 506 LINE",
"60 506 LINE",
"60 0 LINE"
);
},
{
closed = 1;
nodes = (
"297 -15 LINE",
"297 108 LINE",
"263 108 LINE",
"243 -15 LINE"
);
},
{
closed = 1;
nodes = (
"285 291 LINE",
"285 414 LINE",
"253 414 LINE",
"253 291 LINE"
);
},
{
closed = 1;
nodes = (
"519 169 LINE",
"519 230 LINE",
"363 230 LINE",
"363 169 LINE"
);
},
{
closed = 1;
nodes = (
"509 475 LINE",
"509 507 LINE",
"353 507 LINE",
"353 475 LINE"
);
}
);
width = 564;
},
{
components = (
{
name = tall.thincurve;
transform = "{1, 0, 0, 1, 60, 155}";
},
{
name = tall.thincurve;
transform = "{-1, 0, 0, 1, 509, 155}";
},
{
name = tall.thincurve;
transform = "{-1, 0, 0, -1, 509, 847}";
},
{
name = tall.thincurve;
transform = "{-1, 0, 0, 1, 519, -162}";
},
{
name = tall.thincurve;
transform = "{-1, 0, 0, -1, 519, 521}";
}
);
layerId = "79308226-C67D-4E5D-B2BB-40C77DA13664";
paths = (
{
closed = 1;
nodes = (
"216 0 LINE",
"216 506 LINE",
"60 506 LINE",
"60 0 LINE"
);
},
{
closed = 1;
nodes = (
"297 -15 LINE",
"297 48 LINE",
"263 48 LINE",
"253 -15 LINE"
);
},
{
closed = 1;
nodes = (
"285 311 LINE",
"285 374 LINE",
"253 374 LINE",
"253 311 LINE"
);
},
{
closed = 1;
nodes = (
"519 169 LINE",
"519 190 LINE",
"363 190 LINE",
"363 169 LINE"
);
},
{
closed = 1;
nodes = (
"509 495 LINE",
"509 507 LINE",
"353 507 LINE",
"353 495 LINE"
);
}
);
width = 564;
},
{
components = (
{
name = tall.thincurve;
transform = "{1, 0, 0, 1, 60, 185}";
},
{
name = tall.thincurve;
transform = "{-1, 0, 0, 1, 402, 185}";
},
{
name = tall.thincurve;
transform = "{-1, 0, 0, -1, 402, 847}";
},
{
name = tall.thincurve;
transform = "{-1, 0, 0, 1, 432, -153}";
},
{
name = tall.thincurve;
transform = "{-1, 0, 0, -1, 432, 515}";
}
);
layerId = "F80F23F5-B815-46C8-A0F2-25F52E1E7134";
paths = (
{
closed = 1;
nodes = (
"123 0 LINE",
"123 520 LINE",
"60 520 LINE",
"60 0 LINE"
);
},
{
closed = 1;
nodes = (
"261 0 LINE",
"261 33 LINE",
"195 33 LINE",
"190 0 LINE"
);
},
{
closed = 1;
nodes = (
"261 329 LINE",
"261 365 LINE",
"190 365 LINE",
"190 329 LINE"
);
},
{
closed = 1;
nodes = (
"432 179 LINE",
"432 183 LINE",
"369 183 LINE",
"369 179 LINE"
);
},
{
closed = 1;
nodes = (
"402 511 LINE",
"402 520 LINE",
"339 520 LINE",
"339 511 LINE"
);
}
);
width = 477;
}
);
leftKerningGroup = B;
leftMetricsKey = B;
rightKerningGroup = B;
rightMetricsKey = B;
unicode = 00DF;
},
{
glyphname = t;
lastChange = "2022-02-06 23:21:57 +0000";
layers = (
{
anchors = (
{
name = bottom;
position = "{156, 0}";
},
{
name = center;
position = "{156, 250}";
},
{
name = top;
position = "{156, 500}";
},
{
name = topright;
position = "{298, 500}";
}
);
background = {
paths = (
{
closed = 1;
nodes = (
"93 168 LINE",
"159 168 LINE",
"159 670 LINE",
"156 670 LINE",
"96 658 LINE",
"93 655 LINE"
);
},
{
closed = 1;
nodes = (
"35 497 LINE",
"35 447 LINE",
"38 444 LINE",
"282 444 LINE",
"285 447 LINE",
"285 497 LINE",
"282 500 LINE",
"38 500 LINE"
);
},
{
closed = 1;
nodes = (
"93 168 LINE",
"93 56 OFFCURVE",
"158 -3 OFFCURVE",
"282 -3 CURVE",
"285 0 LINE",
"272 60 LINE",
"270 63 LINE",
"200 63 OFFCURVE",
"159 102 OFFCURVE",
"159 168 CURVE"
);
}
);
};
components = (
{
name = _fountain.curve.comp;
transform = "{1, 0, 0, -1, 93, 685}";
}
);
layerId = "EA4BDF10-EAD0-47D5-9AD5-B8C643A094C2";
paths = (
{
closed = 1;
nodes = (
"159 139 LINE",
"159 700 LINE",
"93 701 LINE",
"93 139 LINE"
);
},
{
closed = 1;
nodes = (
"285 440 LINE",
"285 500 LINE",
"35 500 LINE",
"35 440 LINE"
);
}
);
width = 325;
},
{
anchors = (
{
name = bottom;
position = "{215, 0}";
},
{
name = center;
position = "{185, 260}";
},
{
name = top;
position = "{185, 520}";
},
{
name = topright;
position = "{374, 520}";
}
);
components = (
{
name = _fountain.curve.comp;
transform = "{1, 0, 0, -1, 93, 720}";
}
);
layerId = "5EDCAC97-4996-4925-B8D9-EA484E9BADFC";
paths = (
{
closed = 1;
nodes = (
"259 193 LINE",
"259 720 LINE",
"93 720 LINE",
"93 193 LINE"
);
},
{
closed = 1;
nodes = (
"385 400 LINE",
"385 520 LINE",
"35 520 LINE",
"35 400 LINE"
);
}
);
width = 440;
},
{
anchors = (
{
name = bottom;
position = "{215, 0}";
},
{
name = center;
position = "{185, 260}";
},
{
name = top;
position = "{185, 520}";
},
{
name = topright;
position = "{374, 520}";
}
);
components = (
{
name = _fountain.curve.comp;
transform = "{1, 0, 0, -1, 93, 720}";
}
);
layerId = "79308226-C67D-4E5D-B2BB-40C77DA13664";
paths = (
{
closed = 1;
nodes = (
"259 193 LINE",
"259 720 LINE",
"93 720 LINE",
"93 193 LINE"
);
},
{
closed = 1;
nodes = (
"385 454 LINE",
"385 520 LINE",
"35 520 LINE",
"35 454 LINE"
);
}
);
width = 440;
},
{
anchors = (
{
name = bottom;
position = "{156, 0}";
},
{
name = center;
position = "{156, 250}";
},
{
name = top;
position = "{156, 500}";
},
{
name = topright;
position = "{298, 500}";
}
);
background = {
paths = (
{
closed = 1;
nodes = (
"93 168 LINE",
"159 168 LINE",
"159 670 LINE",
"156 670 LINE",
"96 658 LINE",
"93 655 LINE"
);
},
{
closed = 1;
nodes = (
"35 497 LINE",
"35 447 LINE",
"38 444 LINE",
"282 444 LINE",
"285 447 LINE",
"285 497 LINE",
"282 500 LINE",
"38 500 LINE"
);
},
{
closed = 1;
nodes = (
"93 168 LINE",
"93 56 OFFCURVE",
"158 -3 OFFCURVE",
"282 -3 CURVE",
"285 0 LINE",
"272 60 LINE",
"270 63 LINE",
"200 63 OFFCURVE",
"159 102 OFFCURVE",
"159 168 CURVE"
);
}
);
};
components = (
{
name = _fountain.curve.comp;
transform = "{1, 0, 0, -1, 93, 685}";
}
);
layerId = "F80F23F5-B815-46C8-A0F2-25F52E1E7134";
paths = (
{
closed = 1;
nodes = (
"159 139 LINE",
"159 700 LINE",
"93 701 LINE",
"93 139 LINE"
);
},
{
closed = 1;
nodes = (
"285 467 LINE",
"285 500 LINE",
"35 500 LINE",
"35 467 LINE"
);
}
);
width = 325;
}
);
leftKerningGroup = f;
leftMetricsKey = "=a-10";
rightKerningGroup = t;
rightMetricsKey = "=f+10";
unicode = 0074;
},
{
glyphname = v;
lastChange = "2022-02-06 22:23:04 +0000";
layers = (
{
anchors = (
{
name = bottom;
position = "{229, 0}";
},
{
name = top;
position = "{229, 500}";
}
);
layerId = "EA4BDF10-EAD0-47D5-9AD5-B8C643A094C2";
paths = (
{
closed = 1;
nodes = (
"263 0 LINE",
"429 500 LINE",
"363 500 LINE",
"197 0 LINE"
);
},
{
closed = 1;
nodes = (
"262 0 LINE",
"96 500 LINE",
"30 500 LINE",
"196 0 LINE"
);
}
);
width = 459;
},
{
anchors = (
{
name = bottom;
position = "{273, 0}";
},
{
name = top;
position = "{273, 520}";
}
);
layerId = "5EDCAC97-4996-4925-B8D9-EA484E9BADFC";
paths = (
{
closed = 1;
nodes = (
"357 0 LINE",
"513 520 LINE",
"346 520 LINE",
"220 0 LINE"
);
},
{
closed = 1;
nodes = (
"323 0 LINE",
"197 520 LINE",
"30 520 LINE",
"186 0 LINE"
);
}
);
width = 543;
},
{
anchors = (
{
name = bottom;
position = "{273, 0}";
},
{
name = top;
position = "{273, 520}";
}
);
layerId = "79308226-C67D-4E5D-B2BB-40C77DA13664";
paths = (
{
closed = 1;
nodes = (
"340 0 LINE",
"496 520 LINE",
"419 520 LINE",
"263 0 LINE"
);
},
{
closed = 1;
nodes = (
"323 0 LINE",
"197 520 LINE",
"30 520 LINE",
"186 0 LINE"
);
}
);
width = 526;
},
{
anchors = (
{
name = bottom;
position = "{229, 0}";
},
{
name = top;
position = "{229, 500}";
}
);
layerId = "F80F23F5-B815-46C8-A0F2-25F52E1E7134";
paths = (
{
closed = 1;
nodes = (
"263 0 LINE",
"429 500 LINE",
"393 500 LINE",
"227 0 LINE"
);
},
{
closed = 1;
nodes = (
"262 0 LINE",
"96 500 LINE",
"30 500 LINE",
"196 0 LINE"
);
}
);
width = 459;
}
);
leftKerningGroup = v;
leftMetricsKey = "=V";
rightKerningGroup = v;
rightMetricsKey = "=V";
unicode = 0076;
},
{
glyphname = w;
lastChange = "2022-02-08 22:32:47 +0000";
layers = (
{
anchors = (
{
name = bottom;
position = "{333, 0}";
},
{
name = top;
position = "{333, 500}";
}
);
layerId = "EA4BDF10-EAD0-47D5-9AD5-B8C643A094C2";
paths = (
{
closed = 1;
nodes = (
"501 0 LINE",
"636 500 LINE",
"570 500 LINE",
"435 0 LINE"
);
},
{
closed = 1;
nodes = (
"231 0 LINE",
"96 500 LINE",
"30 500 LINE",
"165 0 LINE"
);
},
{
closed = 1;
nodes = (
"231 0 LINE",
"366 500 LINE",
"300 500 LINE",
"165 0 LINE"
);
},
{
closed = 1;
nodes = (
"501 0 LINE",
"366 500 LINE",
"300 500 LINE",
"435 0 LINE"
);
}
);
width = 666;
},
{
anchors = (
{
name = bottom;
position = "{389, 0}";
},
{
name = top;
position = "{399, 520}";
}
);
background = {
paths = (
{
closed = 1;
nodes = (
"582 0 LINE SMOOTH",
"608 0 OFFCURVE",
"626 13 OFFCURVE",
"633 38 CURVE SMOOTH",
"754 470 LINE SMOOTH",
"763 502 OFFCURVE",
"748 520 OFFCURVE",
"716 520 CURVE SMOOTH",
"642 520 LINE SMOOTH",
"615 520 OFFCURVE",
"598 506 OFFCURVE",
"592 480 CURVE SMOOTH",
"496 50 LINE SMOOTH",
"489 19 OFFCURVE",
"505 0 OFFCURVE",
"536 0 CURVE SMOOTH"
);
},
{
closed = 1;
nodes = (
"242 0 LINE SMOOTH",
"273 0 OFFCURVE",
"289 19 OFFCURVE",
"282 50 CURVE SMOOTH",
"186 480 LINE SMOOTH",
"180 506 OFFCURVE",
"163 520 OFFCURVE",
"136 520 CURVE SMOOTH",
"62 520 LINE SMOOTH",
"30 520 OFFCURVE",
"15 502 OFFCURVE",
"24 470 CURVE SMOOTH",
"145 38 LINE SMOOTH",
"152 13 OFFCURVE",
"170 0 OFFCURVE",
"196 0 CURVE SMOOTH"
);
},
{
closed = 1;
nodes = (
"254 0 LINE SMOOTH",
"280 0 OFFCURVE",
"296 12 OFFCURVE",
"304 38 CURVE SMOOTH",
"434 469 LINE SMOOTH",
"443 501 OFFCURVE",
"428 520 OFFCURVE",
"396 520 CURVE SMOOTH",
"362 520 LINE SMOOTH",
"336 520 OFFCURVE",
"318 507 OFFCURVE",
"311 482 CURVE SMOOTH",
"190 50 LINE SMOOTH",
"181 18 OFFCURVE",
"196 0 OFFCURVE",
"228 0 CURVE SMOOTH"
);
},
{
closed = 1;
nodes = (
"550 0 LINE SMOOTH",
"582 0 OFFCURVE",
"597 18 OFFCURVE",
"588 50 CURVE SMOOTH",
"467 482 LINE SMOOTH",
"460 507 OFFCURVE",
"442 520 OFFCURVE",
"416 520 CURVE SMOOTH",
"382 520 LINE SMOOTH",
"350 520 OFFCURVE",
"335 500 OFFCURVE",
"344 469 CURVE SMOOTH",
"474 38 LINE SMOOTH",
"482 12 OFFCURVE",
"498 0 OFFCURVE",
"524 0 CURVE SMOOTH"
);
}
);
};
layerId = "5EDCAC97-4996-4925-B8D9-EA484E9BADFC";
paths = (
{
closed = 1;
nodes = (
"632 0 LINE",
"768 520 LINE",
"601 520 LINE",
"495 0 LINE"
);
},
{
closed = 1;
nodes = (
"303 0 LINE",
"197 520 LINE",
"30 520 LINE",
"166 0 LINE"
);
},
{
closed = 1;
nodes = (
"333 0 LINE",
"459 520 LINE",
"337 520 LINE",
"221 0 LINE"
);
},
{
closed = 1;
nodes = (
"577 0 LINE",
"461 520 LINE",
"339 520 LINE",
"465 0 LINE"
);
}
);
width = 798;
},
{
anchors = (
{
name = bottom;
position = "{409, 0}";
},
{
name = top;
position = "{439, 520}";
}
);
background = {
paths = (
{
closed = 1;
nodes = (
"582 0 LINE SMOOTH",
"608 0 OFFCURVE",
"626 13 OFFCURVE",
"633 38 CURVE SMOOTH",
"754 470 LINE SMOOTH",
"763 502 OFFCURVE",
"748 520 OFFCURVE",
"716 520 CURVE SMOOTH",
"642 520 LINE SMOOTH",
"615 520 OFFCURVE",
"598 506 OFFCURVE",
"592 480 CURVE SMOOTH",
"496 50 LINE SMOOTH",
"489 19 OFFCURVE",
"505 0 OFFCURVE",
"536 0 CURVE SMOOTH"
);
},
{
closed = 1;
nodes = (
"242 0 LINE SMOOTH",
"273 0 OFFCURVE",
"289 19 OFFCURVE",
"282 50 CURVE SMOOTH",
"186 480 LINE SMOOTH",
"180 506 OFFCURVE",
"163 520 OFFCURVE",
"136 520 CURVE SMOOTH",
"62 520 LINE SMOOTH",
"30 520 OFFCURVE",
"15 502 OFFCURVE",
"24 470 CURVE SMOOTH",
"145 38 LINE SMOOTH",
"152 13 OFFCURVE",
"170 0 OFFCURVE",
"196 0 CURVE SMOOTH"
);
},
{
closed = 1;
nodes = (
"254 0 LINE SMOOTH",
"280 0 OFFCURVE",
"296 12 OFFCURVE",
"304 38 CURVE SMOOTH",
"434 469 LINE SMOOTH",
"443 501 OFFCURVE",
"428 520 OFFCURVE",
"396 520 CURVE SMOOTH",
"362 520 LINE SMOOTH",
"336 520 OFFCURVE",
"318 507 OFFCURVE",
"311 482 CURVE SMOOTH",
"190 50 LINE SMOOTH",
"181 18 OFFCURVE",
"196 0 OFFCURVE",
"228 0 CURVE SMOOTH"
);
},
{
closed = 1;
nodes = (
"550 0 LINE SMOOTH",
"582 0 OFFCURVE",
"597 18 OFFCURVE",
"588 50 CURVE SMOOTH",
"467 482 LINE SMOOTH",
"460 507 OFFCURVE",
"442 520 OFFCURVE",
"416 520 CURVE SMOOTH",
"382 520 LINE SMOOTH",
"350 520 OFFCURVE",
"335 500 OFFCURVE",
"344 469 CURVE SMOOTH",
"474 38 LINE SMOOTH",
"482 12 OFFCURVE",
"498 0 OFFCURVE",
"524 0 CURVE SMOOTH"
);
}
);
};
layerId = "79308226-C67D-4E5D-B2BB-40C77DA13664";
paths = (
{
closed = 1;
nodes = (
"632 0 LINE",
"768 520 LINE",
"691 520 LINE",
"555 0 LINE"
);
},
{
closed = 1;
nodes = (
"303 0 LINE",
"197 520 LINE",
"30 520 LINE",
"166 0 LINE"
);
},
{
closed = 1;
nodes = (
"328 0 LINE",
"454 520 LINE",
"377 520 LINE",
"251 0 LINE"
);
},
{
closed = 1;
nodes = (
"617 0 LINE",
"501 520 LINE",
"379 520 LINE",
"505 0 LINE"
);
}
);
width = 798;
},
{
anchors = (
{
name = bottom;
position = "{333, 0}";
},
{
name = top;
position = "{353, 500}";
}
);
layerId = "F80F23F5-B815-46C8-A0F2-25F52E1E7134";
paths = (
{
closed = 1;
nodes = (
"501 0 LINE",
"636 500 LINE",
"600 500 LINE",
"465 0 LINE"
);
},
{
closed = 1;
nodes = (
"231 0 LINE",
"96 500 LINE",
"30 500 LINE",
"165 0 LINE"
);
},
{
closed = 1;
nodes = (
"231 0 LINE",
"351 500 LINE",
"315 500 LINE",
"195 0 LINE"
);
},
{
closed = 1;
nodes = (
"501 0 LINE",
"381 500 LINE",
"315 500 LINE",
"435 0 LINE"
);
}
);
width = 666;
}
);
leftKerningGroup = v;
leftMetricsKey = "=V";
rightKerningGroup = v;
rightMetricsKey = "=V";
unicode = 0077;
},
{
glyphname = x;
lastChange = "2022-02-06 22:23:04 +0000";
layers = (
{
anchors = (
{
name = bottom;
position = "{207, 0}";
},
{
name = top;
position = "{207, 500}";
}
);
guideLines = (
{
position = "{230, 250}";
}
);
layerId = "EA4BDF10-EAD0-47D5-9AD5-B8C643A094C2";
paths = (
{
closed = 1;
nodes = (
"388 0 LINE",
"102 500 LINE",
"30 500 LINE",
"316 0 LINE"
);
},
{
closed = 1;
nodes = (
"102 0 LINE",
"245 250 LINE",
"173 250 LINE",
"30 0 LINE"
);
},
{
closed = 1;
nodes = (
"245 250 LINE",
"388 500 LINE",
"316 500 LINE",
"173 250 LINE"
);
}
);
width = 418;
},
{
anchors = (
{
name = bottom;
position = "{268, 0}";
},
{
name = top;
position = "{268, 520}";
}
);
guideLines = (
{
position = "{356, 260}";
}
);
layerId = "5EDCAC97-4996-4925-B8D9-EA484E9BADFC";
paths = (
{
closed = 1;
nodes = (
"506 0 LINE",
"200 520 LINE",
"30 520 LINE",
"336 0 LINE"
);
},
{
closed = 1;
nodes = (
"200 0 LINE",
"353 260 LINE",
"183 260 LINE",
"30 0 LINE"
);
},
{
closed = 1;
nodes = (
"353 260 LINE",
"506 520 LINE",
"336 520 LINE",
"183 260 LINE"
);
}
);
width = 536;
},
{
anchors = (
{
name = bottom;
position = "{268, 0}";
},
{
name = top;
position = "{268, 520}";
}
);
layerId = "79308226-C67D-4E5D-B2BB-40C77DA13664";
paths = (
{
closed = 1;
nodes = (
"506 0 LINE",
"200 520 LINE",
"30 520 LINE",
"336 0 LINE"
);
},
{
closed = 1;
nodes = (
"125 0 LINE",
"278 260 LINE",
"203 260 LINE",
"50 0 LINE"
);
},
{
closed = 1;
nodes = (
"333 260 LINE",
"486 520 LINE",
"411 520 LINE",
"258 260 LINE"
);
}
);
width = 536;
},
{
anchors = (
{
name = bottom;
position = "{207, 0}";
},
{
name = top;
position = "{207, 500}";
}
);
layerId = "F80F23F5-B815-46C8-A0F2-25F52E1E7134";
paths = (
{
closed = 1;
nodes = (
"388 0 LINE",
"102 500 LINE",
"30 500 LINE",
"316 0 LINE"
);
},
{
closed = 1;
nodes = (
"72 0 LINE",
"215 250 LINE",
"173 250 LINE",
"30 0 LINE"
);
},
{
closed = 1;
nodes = (
"245 250 LINE",
"388 500 LINE",
"346 500 LINE",
"203 250 LINE"
);
}
);
width = 418;
}
);
leftKerningGroup = V;
leftMetricsKey = "=V";
rightKerningGroup = V;
rightMetricsKey = "=V";
unicode = 0078;
},
{
glyphname = y;
lastChange = "2022-02-06 22:23:04 +0000";
layers = (
{
anchors = (
{
name = bottom;
position = "{230, 0}";
},
{
name = top;
position = "{230, 500}";
}
);
layerId = "EA4BDF10-EAD0-47D5-9AD5-B8C643A094C2";
paths = (
{
closed = 1;
nodes = (
"143 -210 OFFCURVE",
"208 -168 OFFCURVE",
"247 -50 CURVE",
"181 -50 LINE",
"158 -121 OFFCURVE",
"122 -143 OFFCURVE",
"72 -129 CURVE",
"59 -187 LINE"
);
},
{
closed = 1;
nodes = (
"247 -50 LINE",
"430 500 LINE",
"364 500 LINE",
"181 -50 LINE"
);
},
{
closed = 1;
nodes = (
"238 72 LINE",
"96 500 LINE",
"30 500 LINE",
"203 -19 LINE"
);
}
);
width = 460;
},
{
anchors = (
{
name = bottom;
position = "{270, 0}";
},
{
name = top;
position = "{272, 520}";
}
);
layerId = "5EDCAC97-4996-4925-B8D9-EA484E9BADFC";
paths = (
{
closed = 1;
nodes = (
"220 -219 OFFCURVE",
"306 -170 OFFCURVE",
"350 -24 CURVE",
"212 -24 LINE",
"201 -59 OFFCURVE",
"171 -67 OFFCURVE",
"115 -52 CURVE",
"77 -180 LINE"
);
},
{
closed = 1;
nodes = (
"350 -24 LINE",
"513 520 LINE",
"346 520 LINE",
"213 -24 LINE"
);
},
{
closed = 1;
nodes = (
"289 144 LINE",
"197 520 LINE",
"30 520 LINE",
"213 -90 LINE"
);
}
);
width = 543;
},
{
anchors = (
{
name = bottom;
position = "{230, 0}";
},
{
name = top;
position = "{282, 520}";
}
);
layerId = "79308226-C67D-4E5D-B2BB-40C77DA13664";
paths = (
{
closed = 1;
nodes = (
"177 -212 OFFCURVE",
"271 -156 OFFCURVE",
"309 -27 CURVE",
"232 -27 LINE",
"207 -107 OFFCURVE",
"165 -138 OFFCURVE",
"77 -113 CURVE",
"57 -179 LINE"
);
},
{
closed = 1;
nodes = (
"309 -27 LINE",
"473 520 LINE",
"396 520 LINE",
"232 -27 LINE"
);
},
{
closed = 1;
nodes = (
"289 144 LINE",
"197 520 LINE",
"30 520 LINE",
"213 -90 LINE"
);
}
);
width = 503;
},
{
anchors = (
{
name = bottom;
position = "{210, 0}";
},
{
name = top;
position = "{220, 500}";
}
);
layerId = "F80F23F5-B815-46C8-A0F2-25F52E1E7134";
paths = (
{
closed = 1;
nodes = (
"128 -188 OFFCURVE",
"196 -145 OFFCURVE",
"227 -50 CURVE",
"191 -50 LINE",
"169 -118 OFFCURVE",
"116 -152 OFFCURVE",
"51 -134 CURVE",
"44 -165 LINE"
);
},
{
closed = 1;
nodes = (
"227 -50 LINE",
"410 500 LINE",
"374 500 LINE",
"191 -50 LINE"
);
},
{
closed = 1;
nodes = (
"239 72 LINE",
"97 500 LINE",
"30 500 LINE",
"203 -19 LINE"
);
}
);
width = 440;
}
);
leftKerningGroup = v;
leftMetricsKey = "=V";
rightKerningGroup = v;
rightMetricsKey = "=V";
unicode = 0079;
},
{
glyphname = z;
lastChange = "2022-02-06 22:23:04 +0000";
layers = (
{
anchors = (
{
name = bottom;
position = "{210, 0}";
},
{
name = center;
position = "{210, 250}";
},
{
name = top;
position = "{210, 500}";
}
);
layerId = "EA4BDF10-EAD0-47D5-9AD5-B8C643A094C2";
paths = (
{
closed = 1;
nodes = (
"131 63 LINE",
"365 437 LINE",
"290 437 LINE",
"55 63 LINE"
);
},
{
closed = 1;
nodes = (
"365 0 LINE",
"365 63 LINE",
"55 63 LINE",
"55 0 LINE"
);
},
{
closed = 1;
nodes = (
"365 437 LINE",
"365 500 LINE",
"55 500 LINE",
"55 437 LINE"
);
}
);
width = 420;
},
{
anchors = (
{
name = bottom;
position = "{240, 0}";
},
{
name = center;
position = "{240, 260}";
},
{
name = top;
position = "{240, 520}";
}
);
layerId = "5EDCAC97-4996-4925-B8D9-EA484E9BADFC";
paths = (
{
closed = 1;
nodes = (
"231 133 LINE",
"425 387 LINE",
"250 387 LINE",
"55 133 LINE"
);
},
{
closed = 1;
nodes = (
"425 0 LINE",
"425 133 LINE",
"55 133 LINE",
"55 0 LINE"
);
},
{
closed = 1;
nodes = (
"425 387 LINE",
"425 520 LINE",
"55 520 LINE",
"55 387 LINE"
);
}
);
width = 480;
},
{
anchors = (
{
name = bottom;
position = "{240, 0}";
},
{
name = center;
position = "{240, 260}";
},
{
name = top;
position = "{240, 520}";
}
);
layerId = "79308226-C67D-4E5D-B2BB-40C77DA13664";
paths = (
{
closed = 1;
nodes = (
"231 73 LINE",
"425 447 LINE",
"250 447 LINE",
"55 73 LINE"
);
},
{
closed = 1;
nodes = (
"425 0 LINE",
"425 73 LINE",
"55 73 LINE",
"55 0 LINE"
);
},
{
closed = 1;
nodes = (
"425 447 LINE",
"425 520 LINE",
"55 520 LINE",
"55 447 LINE"
);
}
);
width = 480;
},
{
anchors = (
{
name = bottom;
position = "{210, 0}";
},
{
name = center;
position = "{210, 250}";
},
{
name = top;
position = "{210, 500}";
}
);
layerId = "F80F23F5-B815-46C8-A0F2-25F52E1E7134";
paths = (
{
closed = 1;
nodes = (
"131 33 LINE",
"365 467 LINE",
"290 467 LINE",
"55 33 LINE"
);
},
{
closed = 1;
nodes = (
"365 0 LINE",
"365 33 LINE",
"55 33 LINE",
"55 0 LINE"
);
},
{
closed = 1;
nodes = (
"365 467 LINE",
"365 500 LINE",
"55 500 LINE",
"55 467 LINE"
);
}
);
width = 420;
}
);
leftKerningGroup = a;
leftMetricsKey = "=a+10";
rightKerningGroup = d;
rightMetricsKey = "=a+10";
unicode = 007A;
},
{
glyphname = a.ss02;
lastChange = "2022-02-06 22:28:13 +0000";
layers = (
{
anchors = (
{
name = bottom;
position = "{202, 0}";
},
{
name = ogonek;
position = "{358, 10}";
},
{
name = top;
position = "{202, 520}";
}
);
components = (
{
name = _slash.curve.comp;
transform = "{-1, 0, 0, 1, 345, 0}";
},
{
name = _slash.curve.comp;
transform = "{-1, 0, 0, -1, 345, 500}";
},
{
name = idotless;
transform = "{1, 0, 0, 1, 237, 0}";
}
);
layerId = "EA4BDF10-EAD0-47D5-9AD5-B8C643A094C2";
paths = (
{
closed = 1;
nodes = (
"96 150 LINE",
"96 350 LINE",
"30 350 LINE",
"30 150 LINE"
);
}
);
width = 403;
},
{
anchors = (
{
name = bottom;
position = "{255, 0}";
},
{
name = ogonek;
position = "{460, 10}";
},
{
name = top;
position = "{255, 540}";
}
);
components = (
{
name = _slash.curve.comp;
transform = "{-1, 0, 0, 1, 370, 0}";
},
{
name = _slash.curve.comp;
transform = "{-1, 0, 0, -1, 370, 520}";
},
{
name = idotless;
transform = "{1, 0, 0, 1, 254, 0}";
}
);
layerId = "5EDCAC97-4996-4925-B8D9-EA484E9BADFC";
paths = (
{
closed = 1;
nodes = (
"196 194 LINE",
"196 326 LINE",
"30 326 LINE",
"30 194 LINE"
);
}
);
width = 520;
},
{
anchors = (
{
name = bottom;
position = "{255, 0}";
},
{
name = ogonek;
position = "{460, 10}";
},
{
name = top;
position = "{255, 540}";
}
);
components = (
{
name = _slash.curve.comp;
transform = "{-1, 0, 0, 1, 370, 0}";
},
{
name = _slash.curve.comp;
transform = "{-1, 0, 0, -1, 370, 520}";
},
{
name = idotless;
transform = "{1, 0, 0, 1, 254, 0}";
}
);
layerId = "79308226-C67D-4E5D-B2BB-40C77DA13664";
paths = (
{
closed = 1;
nodes = (
"196 194 LINE",
"196 326 LINE",
"30 326 LINE",
"30 194 LINE"
);
}
);
width = 520;
},
{
anchors = (
{
name = bottom;
position = "{202, 0}";
},
{
name = ogonek;
position = "{358, 10}";
},
{
name = top;
position = "{202, 520}";
}
);
components = (
{
name = _slash.curve.comp;
transform = "{-1, 0, 0, 1, 345, 0}";
},
{
name = _slash.curve.comp;
transform = "{-1, 0, 0, -1, 345, 500}";
},
{
name = idotless;
transform = "{1, 0, 0, 1, 237, 0}";
}
);
layerId = "F80F23F5-B815-46C8-A0F2-25F52E1E7134";
paths = (
{
closed = 1;
nodes = (
"96 150 LINE",
"96 350 LINE",
"30 350 LINE",
"30 150 LINE"
);
}
);
width = 403;
}
);
leftKerningGroup = a;
leftMetricsKey = "=30";
rightKerningGroup = d;
rightMetricsKey = "=30";
},
{
glyphname = y.ss03;
lastChange = "2022-02-08 22:33:04 +0000";
layers = (
{
anchors = (
{
name = bottom;
position = "{230, 0}";
},
{
name = top;
position = "{230, 500}";
}
);
layerId = "EA4BDF10-EAD0-47D5-9AD5-B8C643A094C2";
paths = (
{
closed = 1;
nodes = (
"206 -171 LINE",
"430 500 LINE",
"364 500 LINE",
"140 -171 LINE"
);
},
{
closed = 1;
nodes = (
"238 72 LINE",
"96 500 LINE",
"30 500 LINE",
"203 -19 LINE"
);
}
);
width = 460;
},
{
anchors = (
{
name = bottom;
position = "{272, 0}";
},
{
name = top;
position = "{282, 520}";
}
);
layerId = "5EDCAC97-4996-4925-B8D9-EA484E9BADFC";
paths = (
{
closed = 1;
nodes = (
"303 -184 LINE",
"513 520 LINE",
"346 520 LINE",
"166 -184 LINE"
);
},
{
closed = 1;
nodes = (
"289 144 LINE",
"197 520 LINE",
"30 520 LINE",
"213 -90 LINE"
);
}
);
width = 543;
},
{
anchors = (
{
name = bottom;
position = "{252, 0}";
},
{
name = top;
position = "{282, 520}";
}
);
layerId = "79308226-C67D-4E5D-B2BB-40C77DA13664";
paths = (
{
closed = 1;
nodes = (
"283 -184 LINE",
"493 520 LINE",
"416 520 LINE",
"206 -184 LINE"
);
},
{
closed = 1;
nodes = (
"319 154 LINE",
"197 520 LINE",
"30 520 LINE",
"243 -80 LINE"
);
}
);
width = 523;
},
{
anchors = (
{
name = bottom;
position = "{210, 0}";
},
{
name = top;
position = "{220, 500}";
}
);
layerId = "F80F23F5-B815-46C8-A0F2-25F52E1E7134";
paths = (
{
closed = 1;
nodes = (
"186 -171 LINE",
"410 500 LINE",
"374 500 LINE",
"150 -171 LINE"
);
},
{
closed = 1;
nodes = (
"238 72 LINE",
"96 500 LINE",
"30 500 LINE",
"203 -19 LINE"
);
}
);
width = 440;
}
);
leftKerningGroup = V;
leftMetricsKey = "=V";
rightKerningGroup = V;
rightMetricsKey = "=V";
},
{
glyphname = f_f;
lastChange = "2022-02-06 23:21:31 +0000";
layers = (
{
components = (
{
name = f;
},
{
alignment = -1;
name = f;
transform = "{1, 0, 0, 1, 270, 0}";
}
);
layerId = "EA4BDF10-EAD0-47D5-9AD5-B8C643A094C2";
paths = (
{
closed = 1;
nodes = (
"395 440 LINE",
"395 500 LINE",
"145 500 LINE",
"145 440 LINE"
);
}
);
width = 575;
},
{
components = (
{
name = f;
},
{
alignment = -1;
name = f;
transform = "{1, 0, 0, 1, 359, 0}";
}
);
layerId = "5EDCAC97-4996-4925-B8D9-EA484E9BADFC";
paths = (
{
closed = 1;
nodes = (
"549 400 LINE",
"549 520 LINE",
"210 520 LINE",
"210 400 LINE"
);
}
);
width = 779;
},
{
components = (
{
name = f;
},
{
alignment = -1;
name = f;
transform = "{1, 0, 0, 1, 359, 0}";
}
);
layerId = "79308226-C67D-4E5D-B2BB-40C77DA13664";
paths = (
{
closed = 1;
nodes = (
"519 454 LINE",
"519 520 LINE",
"180 520 LINE",
"180 454 LINE"
);
}
);
width = 779;
},
{
components = (
{
name = f;
},
{
alignment = -1;
name = f;
transform = "{1, 0, 0, 1, 270, 0}";
}
);
layerId = "F80F23F5-B815-46C8-A0F2-25F52E1E7134";
paths = (
{
closed = 1;
nodes = (
"395 467 LINE",
"395 500 LINE",
"145 500 LINE",
"145 467 LINE"
);
}
);
width = 575;
}
);
leftKerningGroup = f;
leftMetricsKey = f;
rightKerningGroup = f;
rightMetricsKey = f;
},
{
glyphname = f_f_i;
lastChange = "2022-02-07 23:51:48 +0000";
layers = (
{
components = (
{
name = f;
},
{
alignment = -1;
name = f_i;
transform = "{1, 0, 0, 1, 270, 0}";
}
);
layerId = "EA4BDF10-EAD0-47D5-9AD5-B8C643A094C2";
paths = (
{
closed = 1;
nodes = (
"375 440 LINE",
"375 500 LINE",
"125 500 LINE",
"125 440 LINE"
);
}
);
width = 738;
},
{
components = (
{
name = f;
},
{
alignment = -1;
name = f_i;
transform = "{1, 0, 0, 1, 359, 0}";
}
);
layerId = "5EDCAC97-4996-4925-B8D9-EA484E9BADFC";
paths = (
{
closed = 1;
nodes = (
"549 400 LINE",
"549 520 LINE",
"210 520 LINE",
"210 400 LINE"
);
}
);
width = 1021;
},
{
components = (
{
name = f;
},
{
alignment = -1;
name = f_i;
transform = "{1, 0, 0, 1, 359, 0}";
}
);
layerId = "79308226-C67D-4E5D-B2BB-40C77DA13664";
paths = (
{
closed = 1;
nodes = (
"519 454 LINE",
"519 520 LINE",
"180 520 LINE",
"180 454 LINE"
);
}
);
width = 1021;
},
{
components = (
{
name = f;
},
{
alignment = -1;
name = f_i;
transform = "{1, 0, 0, 1, 270, 0}";
}
);
layerId = "F80F23F5-B815-46C8-A0F2-25F52E1E7134";
paths = (
{
closed = 1;
nodes = (
"375 467 LINE",
"375 500 LINE",
"125 500 LINE",
"125 467 LINE"
);
}
);
width = 739;
}
);
leftMetricsKey = f;
rightMetricsKey = i;
},
{
glyphname = f_f_l;
lastChange = "2022-02-07 23:53:27 +0000";
layers = (
{
components = (
{
name = f;
},
{
alignment = -1;
name = f_l;
transform = "{1, 0, 0, 1, 285, 0}";
}
);
layerId = "EA4BDF10-EAD0-47D5-9AD5-B8C643A094C2";
paths = (
{
closed = 1;
nodes = (
"405 440 LINE",
"405 500 LINE",
"155 500 LINE",
"155 440 LINE"
);
}
);
width = 790;
},
{
components = (
{
name = f;
},
{
alignment = -1;
name = f_l;
transform = "{1, 0, 0, 1, 374, 0}";
}
);
layerId = "5EDCAC97-4996-4925-B8D9-EA484E9BADFC";
paths = (
{
closed = 1;
nodes = (
"549 400 LINE",
"549 520 LINE",
"210 520 LINE",
"210 400 LINE"
);
}
);
width = 1059;
},
{
components = (
{
name = f;
},
{
alignment = -1;
name = f_l;
transform = "{1, 0, 0, 1, 374, 0}";
}
);
layerId = "79308226-C67D-4E5D-B2BB-40C77DA13664";
paths = (
{
closed = 1;
nodes = (
"539 454 LINE",
"539 520 LINE",
"200 520 LINE",
"200 454 LINE"
);
}
);
width = 1059;
},
{
components = (
{
name = f;
},
{
alignment = -1;
name = f_l;
transform = "{1, 0, 0, 1, 285, 0}";
}
);
layerId = "F80F23F5-B815-46C8-A0F2-25F52E1E7134";
paths = (
{
closed = 1;
nodes = (
"395 467 LINE",
"395 500 LINE",
"145 500 LINE",
"145 467 LINE"
);
}
);
width = 790;
}
);
leftMetricsKey = f;
rightMetricsKey = l;
},
{
glyphname = f_i;
lastChange = "2022-02-07 23:51:48 +0000";
layers = (
{
anchors = (
{
name = bottom;
position = "{150, 0}";
},
{
name = top;
position = "{231, 780}";
}
);
components = (
{
name = idotless;
transform = "{1, 0, 0, 1, 279, 0}";
}
);
layerId = "EA4BDF10-EAD0-47D5-9AD5-B8C643A094C2";
paths = (
{
closed = 1;
nodes = (
"149 0 LINE",
"149 530 LINE",
"83 530 LINE",
"83 0 LINE"
);
},
{
closed = 1;
nodes = (
"353 440 LINE",
"353 500 LINE",
"25 500 LINE",
"25 440 LINE"
);
},
{
closed = 1;
nodes = (
"149 530 LINE",
"149 609 OFFCURVE",
"188 655 OFFCURVE",
"254 655 CURVE",
"254 715 LINE",
"147 715 OFFCURVE",
"83 646 OFFCURVE",
"83 530 CURVE"
);
},
{
closed = 1;
nodes = (
"399 681 LINE",
"352 702 OFFCURVE",
"298 715 OFFCURVE",
"254 715 CURVE",
"254 655 LINE",
"287 655 OFFCURVE",
"334 643 OFFCURVE",
"381 624 CURVE"
);
}
);
width = 468;
},
{
anchors = (
{
name = bottom;
position = "{202, 0}";
},
{
name = top;
position = "{273, 780}";
}
);
components = (
{
name = idotless;
transform = "{1, 0, 0, 1, 363, 0}";
}
);
layerId = "5EDCAC97-4996-4925-B8D9-EA484E9BADFC";
paths = (
{
closed = 1;
nodes = (
"249 0 LINE",
"249 527 LINE",
"83 527 LINE",
"83 0 LINE"
);
},
{
closed = 1;
nodes = (
"444 400 LINE",
"444 520 LINE",
"25 520 LINE",
"25 400 LINE"
);
},
{
closed = 1;
nodes = (
"249 526 LINE",
"249 573 OFFCURVE",
"286 600 OFFCURVE",
"348 600 CURVE",
"338 736 LINE",
"178 736 OFFCURVE",
"83 658 OFFCURVE",
"83 526 CURVE"
);
},
{
closed = 1;
nodes = (
"529 693 LINE",
"484 720 OFFCURVE",
"413 736 OFFCURVE",
"338 736 CURVE",
"348 600 LINE",
"397 600 OFFCURVE",
"452 587 OFFCURVE",
"496 565 CURVE"
);
}
);
width = 662;
},
{
anchors = (
{
name = bottom;
position = "{202, 0}";
},
{
name = top;
position = "{273, 780}";
}
);
components = (
{
name = idotless;
transform = "{1, 0, 0, 1, 363, 0}";
}
);
layerId = "79308226-C67D-4E5D-B2BB-40C77DA13664";
paths = (
{
closed = 1;
nodes = (
"249 0 LINE",
"249 527 LINE",
"83 527 LINE",
"83 0 LINE"
);
},
{
closed = 1;
nodes = (
"454 454 LINE",
"454 520 LINE",
"25 520 LINE",
"25 454 LINE"
);
},
{
closed = 1;
nodes = (
"249 526 LINE",
"249 617 OFFCURVE",
"297 670 OFFCURVE",
"378 670 CURVE",
"348 736 LINE",
"181 736 OFFCURVE",
"83 658 OFFCURVE",
"83 526 CURVE"
);
},
{
closed = 1;
nodes = (
"530 689 LINE",
"482 715 OFFCURVE",
"415 736 OFFCURVE",
"348 736 CURVE",
"378 670 LINE",
"425 670 OFFCURVE",
"476 653 OFFCURVE",
"515 636 CURVE"
);
}
);
width = 662;
},
{
anchors = (
{
name = bottom;
position = "{150, 0}";
},
{
name = top;
position = "{231, 780}";
}
);
components = (
{
name = idotless;
transform = "{1, 0, 0, 1, 279, 0}";
}
);
layerId = "F80F23F5-B815-46C8-A0F2-25F52E1E7134";
paths = (
{
closed = 1;
nodes = (
"149 0 LINE",
"149 527 LINE",
"83 527 LINE",
"83 0 LINE"
);
},
{
closed = 1;
nodes = (
"363 467 LINE",
"363 500 LINE",
"25 500 LINE",
"25 467 LINE"
);
},
{
closed = 1;
nodes = (
"149 525 LINE",
"149 614 OFFCURVE",
"193 667 OFFCURVE",
"268 667 CURVE",
"265 700 LINE",
"151 700 OFFCURVE",
"83 635 OFFCURVE",
"83 525 CURVE"
);
},
{
closed = 1;
nodes = (
"398 676 LINE",
"367 688 OFFCURVE",
"316 700 OFFCURVE",
"265 700 CURVE",
"268 667 LINE",
"308 667 OFFCURVE",
"354 656 OFFCURVE",
"388 646 CURVE"
);
}
);
width = 469;
}
);
leftMetricsKey = f;
rightMetricsKey = i;
},
{
glyphname = f_l;
lastChange = "2022-02-06 23:21:15 +0000";
layers = (
{
layerId = "EA4BDF10-EAD0-47D5-9AD5-B8C643A094C2";
paths = (
{
closed = 1;
nodes = (
"435 0 LINE",
"435 685 LINE",
"369 685 LINE",
"369 0 LINE"
);
},
{
closed = 1;
nodes = (
"149 0 LINE",
"149 550 LINE",
"83 550 LINE",
"83 0 LINE"
);
},
{
closed = 1;
nodes = (
"275 440 LINE",
"275 500 LINE",
"25 500 LINE",
"25 440 LINE"
);
},
{
closed = 1;
nodes = (
"149 550 LINE",
"149 613 OFFCURVE",
"192 651 OFFCURVE",
"265 651 CURVE",
"265 715 LINE",
"151 715 OFFCURVE",
"83 654 OFFCURVE",
"83 550 CURVE"
);
},
{
closed = 1;
nodes = (
"435 686 LINE",
"382 704 OFFCURVE",
"319 715 OFFCURVE",
"265 715 CURVE",
"265 651 LINE",
"308 651 OFFCURVE",
"346 640 OFFCURVE",
"369 622 CURVE"
);
}
);
width = 505;
},
{
layerId = "5EDCAC97-4996-4925-B8D9-EA484E9BADFC";
paths = (
{
closed = 1;
nodes = (
"615 0 LINE",
"615 696 LINE",
"449 696 LINE",
"449 0 LINE"
);
},
{
closed = 1;
nodes = (
"249 0 LINE",
"249 527 LINE",
"83 527 LINE",
"83 0 LINE"
);
},
{
closed = 1;
nodes = (
"364 400 LINE",
"364 520 LINE",
"25 520 LINE",
"25 400 LINE"
);
},
{
closed = 1;
nodes = (
"249 526 LINE",
"249 573 OFFCURVE",
"289 600 OFFCURVE",
"358 600 CURVE",
"348 736 LINE",
"181 736 OFFCURVE",
"83 658 OFFCURVE",
"83 526 CURVE"
);
},
{
closed = 1;
nodes = (
"615 696 LINE",
"540 721 OFFCURVE",
"440 736 OFFCURVE",
"348 736 CURVE",
"358 600 LINE",
"392 600 OFFCURVE",
"426 594 OFFCURVE",
"449 584 CURVE"
);
}
);
width = 685;
},
{
layerId = "79308226-C67D-4E5D-B2BB-40C77DA13664";
paths = (
{
closed = 1;
nodes = (
"615 0 LINE",
"615 696 LINE",
"449 696 LINE",
"449 0 LINE"
);
},
{
closed = 1;
nodes = (
"249 0 LINE",
"249 527 LINE",
"83 527 LINE",
"83 0 LINE"
);
},
{
closed = 1;
nodes = (
"364 454 LINE",
"364 520 LINE",
"25 520 LINE",
"25 454 LINE"
);
},
{
closed = 1;
nodes = (
"249 526 LINE",
"249 610 OFFCURVE",
"286 660 OFFCURVE",
"348 660 CURVE",
"338 736 LINE",
"178 736 OFFCURVE",
"83 658 OFFCURVE",
"83 526 CURVE"
);
},
{
closed = 1;
nodes = (
"615 696 LINE",
"539 721 OFFCURVE",
"436 736 OFFCURVE",
"338 736 CURVE",
"348 660 LINE",
"392 660 OFFCURVE",
"430 639 OFFCURVE",
"449 604 CURVE"
);
}
);
width = 685;
},
{
layerId = "F80F23F5-B815-46C8-A0F2-25F52E1E7134";
paths = (
{
closed = 1;
nodes = (
"435 0 LINE",
"435 685 LINE",
"369 685 LINE",
"369 0 LINE"
);
},
{
closed = 1;
nodes = (
"149 0 LINE",
"149 550 LINE",
"83 550 LINE",
"83 0 LINE"
);
},
{
closed = 1;
nodes = (
"275 467 LINE",
"275 500 LINE",
"25 500 LINE",
"25 467 LINE"
);
},
{
closed = 1;
nodes = (
"149 550 LINE",
"149 632 OFFCURVE",
"192 681 OFFCURVE",
"265 681 CURVE",
"265 715 LINE",
"151 715 OFFCURVE",
"83 654 OFFCURVE",
"83 550 CURVE"
);
},
{
closed = 1;
nodes = (
"435 686 LINE",
"379 704 OFFCURVE",
"316 715 OFFCURVE",
"265 715 CURVE",
"265 681 LINE",
"310 681 OFFCURVE",
"353 664 OFFCURVE",
"382 635 CURVE"
);
}
);
width = 505;
}
);
leftMetricsKey = f;
rightMetricsKey = l;
},
{
glyphname = t_t;
lastChange = "2022-02-06 23:26:05 +0000";
layers = (
{
components = (
{
name = t;
},
{
alignment = -1;
name = t;
transform = "{1, 0, 0, 1, 260, 0}";
}
);
layerId = "EA4BDF10-EAD0-47D5-9AD5-B8C643A094C2";
paths = (
{
closed = 1;
nodes = (
"395 440 LINE",
"395 500 LINE",
"145 500 LINE",
"145 440 LINE"
);
}
);
width = 585;
},
{
components = (
{
name = t;
},
{
alignment = -1;
name = t;
transform = "{1, 0, 0, 1, 360, 0}";
}
);
layerId = "5EDCAC97-4996-4925-B8D9-EA484E9BADFC";
paths = (
{
closed = 1;
nodes = (
"549 400 LINE",
"549 520 LINE",
"210 520 LINE",
"210 400 LINE"
);
}
);
width = 800;
},
{
components = (
{
name = t;
},
{
alignment = -1;
name = t;
transform = "{1, 0, 0, 1, 360, 0}";
}
);
layerId = "79308226-C67D-4E5D-B2BB-40C77DA13664";
paths = (
{
closed = 1;
nodes = (
"519 454 LINE",
"519 520 LINE",
"180 520 LINE",
"180 454 LINE"
);
}
);
width = 800;
},
{
components = (
{
name = t;
},
{
alignment = -1;
name = t;
transform = "{1, 0, 0, 1, 260, 0}";
}
);
layerId = "F80F23F5-B815-46C8-A0F2-25F52E1E7134";
paths = (
{
closed = 1;
nodes = (
"395 467 LINE",
"395 500 LINE",
"145 500 LINE",
"145 467 LINE"
);
}
);
width = 585;
}
);
leftKerningGroup = f;
leftMetricsKey = t;
rightKerningGroup = t;
rightMetricsKey = t;
},
{
glyphname = "a-deva";
lastChange = "2022-02-15 00:10:16 +0000";
layers = (
{
anchors = (
{
name = bottom;
position = "{467, 0}";
},
{
name = candra;
position = "{255, 630}";
},
{
name = nukta;
position = "{91, -102}";
},
{
name = top;
position = "{455, 630}";
}
);
components = (
{
name = "_a-deva.comp";
transform = "{1, 0, 0, 1, 25, -21}";
},
{
name = "_aaMatra-deva.cut";
transform = "{1, 0, 0, 1, 408, 0}";
}
);
guideLines = (
{
angle = 90;
position = "{31, 659}";
},
{
angle = 180;
position = "{62, 710}";
}
);
layerId = "EA4BDF10-EAD0-47D5-9AD5-B8C643A094C2";
paths = (
{
closed = 1;
nodes = (
"347 483 LINE",
"347 575 OFFCURVE",
"280 644 OFFCURVE",
"190 644 CURVE",
"190 581 LINE",
"242 581 OFFCURVE",
"281 539 OFFCURVE",
"281 483 CURVE"
);
},
{
closed = 1;
nodes = (
"101 542 OFFCURVE",
"142 581 OFFCURVE",
"191 581 CURVE",
"191 644 LINE",
"110 644 OFFCURVE",
"42 584 OFFCURVE",
"32 505 CURVE",
"96 491 LINE"
);
},
{
closed = 1;
nodes = (
"490 264 LINE",
"490 324 LINE",
"274 324 LINE",
"274 264 LINE"
);
}
);
width = 569;
},
{
anchors = (
{
name = bottom;
position = "{599, 0}";
},
{
name = candra;
position = "{329, 660}";
},
{
name = nukta;
position = "{9, -123}";
},
{
name = top;
position = "{594, 660}";
}
);
components = (
{
name = "_a-deva.comp";
transform = "{1, 0, 0, 1, 25, -18}";
},
{
name = "_aaMatra-deva.cut";
transform = "{1, 0, 0, 1, 487, 0}";
}
);
layerId = "5EDCAC97-4996-4925-B8D9-EA484E9BADFC";
paths = (
{
closed = 1;
nodes = (
"448 484 LINE",
"448 593 OFFCURVE",
"359 674 OFFCURVE",
"241 674 CURVE",
"241 548 LINE",
"274 548 OFFCURVE",
"298 521 OFFCURVE",
"298 484 CURVE"
);
},
{
closed = 1;
nodes = (
"185 519 OFFCURVE",
"208 548 OFFCURVE",
"242 548 CURVE",
"242 674 LINE",
"129 674 OFFCURVE",
"52 608 OFFCURVE",
"33 495 CURVE",
"178 469 LINE"
);
},
{
closed = 1;
nodes = (
"608 214 LINE",
"608 334 LINE",
"382 334 LINE",
"382 214 LINE"
);
}
);
width = 741;
},
{
anchors = (
{
name = bottom;
position = "{599, 0}";
},
{
name = candra;
position = "{329, 660}";
},
{
name = nukta;
position = "{9, -123}";
},
{
name = top;
position = "{594, 660}";
}
);
components = (
{
name = "_a-deva.comp";
transform = "{1, 0, 0, 1, 25, -18}";
},
{
name = "_aaMatra-deva.cut";
transform = "{1, 0, 0, 1, 477, 0}";
}
);
layerId = "79308226-C67D-4E5D-B2BB-40C77DA13664";
paths = (
{
closed = 1;
nodes = (
"438 504 LINE",
"438 601 OFFCURVE",
"355 674 OFFCURVE",
"231 674 CURVE",
"231 608 LINE",
"273 608 OFFCURVE",
"288 569 OFFCURVE",
"288 504 CURVE"
);
},
{
closed = 1;
nodes = (
"179 563 OFFCURVE",
"202 608 OFFCURVE",
"232 608 CURVE",
"232 674 LINE",
"124 674 OFFCURVE",
"50 615 OFFCURVE",
"34 515 CURVE",
"169 487 LINE"
);
},
{
closed = 1;
nodes = (
"598 244 LINE",
"598 304 LINE",
"372 304 LINE",
"372 244 LINE"
);
}
);
width = 731;
},
{
anchors = (
{
name = bottom;
position = "{457, 0}";
},
{
name = candra;
position = "{255, 630}";
},
{
name = nukta;
position = "{91, -102}";
},
{
name = top;
position = "{456, 630}";
}
);
components = (
{
name = "_a-deva.comp";
transform = "{1, 0, 0, 1, 25, -21}";
},
{
name = "_aaMatra-deva.cut";
transform = "{1, 0, 0, 1, 408, 0}";
}
);
guideLines = (
{
angle = 90;
position = "{31, 659}";
},
{
angle = 180;
position = "{62, 710}";
}
);
layerId = "F80F23F5-B815-46C8-A0F2-25F52E1E7134";
paths = (
{
closed = 1;
nodes = (
"347 483 LINE",
"347 584 OFFCURVE",
"289 644 OFFCURVE",
"190 644 CURVE",
"190 611 LINE",
"247 611 OFFCURVE",
"281 563 OFFCURVE",
"281 483 CURVE"
);
},
{
closed = 1;
nodes = (
"96 567 OFFCURVE",
"134 611 OFFCURVE",
"191 611 CURVE",
"191 644 LINE",
"102 644 OFFCURVE",
"43 592 OFFCURVE",
"32 505 CURVE",
"89 493 LINE"
);
},
{
closed = 1;
nodes = (
"490 279 LINE",
"490 309 LINE",
"274 309 LINE",
"274 279 LINE"
);
}
);
width = 569;
}
);
leftMetricsKey = "=aaMatra-deva*-1";
rightMetricsKey = "=aaMatra-deva";
unicode = 0905;
script = devanagari;
category = Letter;
subCategory = Matra;
},
{
glyphname = "u-deva";
lastChange = "2022-02-16 22:46:23 +0000";
layers = (
{
anchors = (
{
name = bottom;
position = "{207, -50}";
},
{
name = candra;
position = "{89, 630}";
},
{
name = top;
position = "{211, 630}";
}
);
components = (
{
name = "_a-deva.comp";
transform = "{1, 0, 0, 1, 30, -29}";
}
);
layerId = "EA4BDF10-EAD0-47D5-9AD5-B8C643A094C2";
paths = (
{
closed = 1;
nodes = (
"352 475 LINE",
"352 555 OFFCURVE",
"279 615 OFFCURVE",
"181 615 CURVE",
"181 567 LINE",
"241 567 OFFCURVE",
"286 528 OFFCURVE",
"286 475 CURVE"
);
},
{
closed = 1;
nodes = (
"423 567 LINE",
"423 630 LINE",
"-25 630 LINE",
"-25 567 LINE"
);
}
);
width = 398;
},
{
anchors = (
{
name = bottom;
position = "{405, -26}";
},
{
name = candra;
position = "{125, 660}";
},
{
name = top;
position = "{325, 660}";
}
);
components = (
{
name = "_a-deva.comp";
transform = "{1, 0, 0, 1, 30, -36}";
}
);
layerId = "5EDCAC97-4996-4925-B8D9-EA484E9BADFC";
paths = (
{
closed = 1;
nodes = (
"453 466 LINE",
"453 566 OFFCURVE",
"363 625 OFFCURVE",
"212 625 CURVE",
"212 547 LINE",
"269 547 OFFCURVE",
"303 517 OFFCURVE",
"303 466 CURVE"
);
},
{
closed = 1;
nodes = (
"525 547 LINE",
"525 660 LINE",
"-25 660 LINE",
"-25 547 LINE"
);
}
);
width = 500;
},
{
anchors = (
{
name = bottom;
position = "{405, -26}";
},
{
name = candra;
position = "{125, 660}";
},
{
name = top;
position = "{325, 660}";
}
);
components = (
{
name = "_a-deva.comp";
transform = "{1, 0, 0, 1, 40, -15}";
}
);
layerId = "79308226-C67D-4E5D-B2BB-40C77DA13664";
paths = (
{
closed = 1;
nodes = (
"453 507 LINE",
"453 593 OFFCURVE",
"371 634 OFFCURVE",
"232 634 CURVE",
"232 607 LINE",
"277 607 OFFCURVE",
"303 576 OFFCURVE",
"303 507 CURVE"
);
},
{
closed = 1;
nodes = (
"525 607 LINE",
"525 660 LINE",
"-25 660 LINE",
"-25 607 LINE"
);
}
);
width = 500;
},
{
anchors = (
{
name = bottom;
position = "{207, -50}";
},
{
name = candra;
position = "{89, 630}";
},
{
name = top;
position = "{211, 630}";
}
);
components = (
{
name = "_a-deva.comp";
transform = "{1, 0, 0, 1, 30, -29}";
}
);
layerId = "F80F23F5-B815-46C8-A0F2-25F52E1E7134";
paths = (
{
closed = 1;
nodes = (
"352 475 LINE",
"352 555 OFFCURVE",
"279 615 OFFCURVE",
"181 615 CURVE",
"181 597 LINE",
"241 597 OFFCURVE",
"286 545 OFFCURVE",
"286 475 CURVE"
);
},
{
closed = 1;
nodes = (
"423 597 LINE",
"423 630 LINE",
"-25 630 LINE",
"-25 597 LINE"
);
}
);
width = 398;
}
);
leftMetricsKey = "=aaMatra-deva";
rightMetricsKey = "=aaMatra-deva";
unicode = 0909;
script = devanagari;
category = Letter;
subCategory = Matra;
},
{
glyphname = "uu-deva";
lastChange = "2022-03-10 04:30:51 +0000";
layers = (
{
components = (
{
name = "u-deva";
},
{
name = _slash.thincurve.comp;
transform = "{1, 0, 0, 1, 303, -130}";
}
);
layerId = "EA4BDF10-EAD0-47D5-9AD5-B8C643A094C2";
paths = (
{
closed = 1;
nodes = (
"575 567 LINE",
"575 630 LINE",
"134 630 LINE",
"134 567 LINE"
);
}
);
width = 550;
},
{
components = (
{
name = "u-deva";
},
{
name = _slash.thincurve.comp;
transform = "{1, 0, 0, 1, 389, -118}";
}
);
layerId = "5EDCAC97-4996-4925-B8D9-EA484E9BADFC";
paths = (
{
closed = 1;
nodes = (
"745 547 LINE",
"745 660 LINE",
"294 660 LINE",
"294 547 LINE"
);
}
);
width = 720;
},
{
components = (
{
name = "u-deva";
},
{
name = _slash.thincurve.comp;
transform = "{1, 0, 0, 1, 379, -88}";
}
);
layerId = "79308226-C67D-4E5D-B2BB-40C77DA13664";
paths = (
{
closed = 1;
nodes = (
"715 607 LINE",
"715 660 LINE",
"294 660 LINE",
"294 607 LINE"
);
}
);
width = 690;
},
{
components = (
{
name = "u-deva";
},
{
name = _slash.thincurve.comp;
transform = "{1, 0, 0, 1, 303, -130}";
}
);
layerId = "F80F23F5-B815-46C8-A0F2-25F52E1E7134";
paths = (
{
closed = 1;
nodes = (
"570 597 LINE",
"570 630 LINE",
"134 630 LINE",
"134 597 LINE"
);
}
);
width = 545;
}
);
leftMetricsKey = "=aaMatra-deva";
rightMetricsKey = "=aaMatra-deva";
unicode = 090A;
script = devanagari;
category = Letter;
subCategory = Matra;
},
{
glyphname = "lVocalic-deva";
lastChange = "2022-03-10 02:37:35 +0000";
layers = (
{
anchors = (
{
name = bottom;
position = "{512, -37}";
},
{
name = candra;
position = "{301, 630}";
},
{
name = top;
position = "{493, 630}";
}
);
components = (
{
name = "lVocalic-base-deva";
},
{
name = "rVocalicMatra-deva";
transform = "{1, 0, 0, 1, 382, 114}";
}
);
layerId = "EA4BDF10-EAD0-47D5-9AD5-B8C643A094C2";
paths = (
{
closed = 1;
nodes = (
"517 123 LINE",
"517 585 LINE",
"454 585 LINE",
"454 123 LINE"
);
},
{
closed = 1;
nodes = (
"614 567 LINE",
"614 630 LINE",
"197 630 LINE",
"197 567 LINE"
);
}
);
width = 589;
},
{
anchors = (
{
name = bottom;
position = "{642, -19}";
},
{
name = candra;
position = "{407, 660}";
},
{
name = top;
position = "{652, 660}";
}
);
components = (
{
name = "lVocalic-base-deva";
},
{
name = "rVocalicMatra-deva";
transform = "{1, 0, 0, 1, 523, 133}";
}
);
layerId = "5EDCAC97-4996-4925-B8D9-EA484E9BADFC";
paths = (
{
closed = 1;
nodes = (
"733 123 LINE",
"733 585 LINE",
"570 585 LINE",
"570 123 LINE"
);
},
{
closed = 1;
nodes = (
"810 547 LINE",
"810 660 LINE",
"383 660 LINE",
"383 547 LINE"
);
}
);
width = 785;
},
{
anchors = (
{
name = bottom;
position = "{643, -19}";
},
{
name = candra;
position = "{408, 660}";
},
{
name = top;
position = "{653, 660}";
}
);
components = (
{
name = "lVocalic-base-deva";
},
{
name = "rVocalicMatra-deva";
transform = "{1, 0, 0, 1, 524, 101}";
}
);
layerId = "79308226-C67D-4E5D-B2BB-40C77DA13664";
paths = (
{
closed = 1;
nodes = (
"734 123 LINE",
"734 645 LINE",
"571 645 LINE",
"571 123 LINE"
);
},
{
closed = 1;
nodes = (
"811 607 LINE",
"811 660 LINE",
"384 660 LINE",
"384 607 LINE"
);
}
);
width = 786;
},
{
anchors = (
{
name = bottom;
position = "{512, -37}";
},
{
name = candra;
position = "{301, 630}";
},
{
name = top;
position = "{485, 630}";
}
);
components = (
{
name = "lVocalic-base-deva";
},
{
name = "rVocalicMatra-deva";
transform = "{1, 0, 0, 1, 382, 114}";
}
);
layerId = "F80F23F5-B815-46C8-A0F2-25F52E1E7134";
paths = (
{
closed = 1;
nodes = (
"517 123 LINE",
"517 605 LINE",
"454 605 LINE",
"454 123 LINE"
);
},
{
closed = 1;
nodes = (
"614 597 LINE",
"614 630 LINE",
"197 630 LINE",
"197 597 LINE"
);
}
);
width = 589;
}
);
leftMetricsKey = "=aaMatra-deva";
rightMetricsKey = "=aaMatra-deva";
unicode = 090C;
script = devanagari;
category = Letter;
subCategory = Matra;
},
{
glyphname = "llVocalic-deva";
lastChange = "2022-03-10 02:38:00 +0000";
layers = (
{
anchors = (
{
name = bottom;
position = "{491, -50}";
},
{
name = candra;
position = "{301, 630}";
},
{
name = top;
position = "{483, 630}";
}
);
components = (
{
alignment = -1;
name = "rrVocalicMatra-deva";
transform = "{1, 0, 0, 1, 381, 24}";
},
{
name = "lVocalic-base-deva";
}
);
layerId = "EA4BDF10-EAD0-47D5-9AD5-B8C643A094C2";
paths = (
{
closed = 1;
nodes = (
"517 123 LINE",
"517 585 LINE",
"454 585 LINE",
"454 103 LINE"
);
},
{
closed = 1;
nodes = (
"614 567 LINE",
"614 630 LINE",
"197 630 LINE",
"197 567 LINE"
);
}
);
width = 589;
},
{
anchors = (
{
name = bottom;
position = "{645, 0}";
},
{
name = candra;
position = "{421, 660}";
},
{
name = top;
position = "{655, 660}";
}
);
components = (
{
alignment = -1;
name = "rrVocalicMatra-deva";
transform = "{1, 0, 0, 1, 541, -119}";
},
{
name = "lVocalic-base-deva";
}
);
layerId = "5EDCAC97-4996-4925-B8D9-EA484E9BADFC";
paths = (
{
closed = 1;
nodes = (
"734 123 LINE",
"734 585 LINE",
"571 585 LINE",
"571 73 LINE"
);
},
{
closed = 1;
nodes = (
"837 547 LINE",
"837 660 LINE",
"384 660 LINE",
"384 547 LINE"
);
}
);
width = 812;
},
{
anchors = (
{
name = bottom;
position = "{645, 0}";
},
{
name = candra;
position = "{421, 660}";
},
{
name = top;
position = "{655, 660}";
}
);
components = (
{
alignment = -1;
name = "rrVocalicMatra-deva";
transform = "{1, 0, 0, 1, 554, -119}";
},
{
name = "lVocalic-base-deva";
}
);
layerId = "79308226-C67D-4E5D-B2BB-40C77DA13664";
paths = (
{
closed = 1;
nodes = (
"734 123 LINE",
"734 625 LINE",
"571 625 LINE",
"571 53 LINE"
);
},
{
closed = 1;
nodes = (
"837 607 LINE",
"837 660 LINE",
"384 660 LINE",
"384 607 LINE"
);
}
);
width = 812;
},
{
anchors = (
{
name = bottom;
position = "{491, -50}";
},
{
name = candra;
position = "{301, 630}";
},
{
name = top;
position = "{483, 630}";
}
);
components = (
{
alignment = -1;
name = "rrVocalicMatra-deva";
transform = "{1, 0, 0, 1, 381, 24}";
},
{
name = "lVocalic-base-deva";
}
);
layerId = "F80F23F5-B815-46C8-A0F2-25F52E1E7134";
paths = (
{
closed = 1;
nodes = (
"517 123 LINE",
"517 615 LINE",
"454 615 LINE",
"454 103 LINE"
);
},
{
closed = 1;
nodes = (
"614 597 LINE",
"614 630 LINE",
"197 630 LINE",
"197 597 LINE"
);
}
);
width = 589;
}
);
leftMetricsKey = "=aaMatra-deva";
rightMetricsKey = "=aaMatra-deva";
unicode = 0961;
script = devanagari;
category = Letter;
subCategory = Matra;
},
{
glyphname = "e-deva";
lastChange = "2022-02-07 23:56:10 +0000";
layers = (
{
anchors = (
{
name = bottom;
position = "{363, 0}";
},
{
name = candra;
position = "{115, 630}";
},
{
name = top;
position = "{353, 630}";
}
);
layerId = "EA4BDF10-EAD0-47D5-9AD5-B8C643A094C2";
paths = (
{
closed = 1;
nodes = (
"325 48 LINE",
"192 48 OFFCURVE",
"151 128 OFFCURVE",
"151 301 CURVE",
"85 301 LINE",
"85 84 OFFCURVE",
"147 -15 OFFCURVE",
"325 -15 CURVE"
);
},
{
closed = 1;
nodes = (
"151 301 LINE",
"151 604 LINE",
"85 604 LINE",
"85 301 LINE"
);
},
{
closed = 1;
nodes = (
"386 430 LINE",
"386 605 LINE",
"320 605 LINE",
"320 430 LINE"
);
},
{
closed = 1;
nodes = (
"475 567 LINE",
"475 630 LINE",
"-25 630 LINE",
"-25 567 LINE"
);
},
{
closed = 1;
nodes = (
"320 430 LINE",
"320 359 OFFCURVE",
"291 305 OFFCURVE",
"224 293 CURVE",
"234 230 LINE",
"336 241 OFFCURVE",
"386 318 OFFCURVE",
"386 430 CURVE"
);
}
);
width = 450;
},
{
anchors = (
{
name = bottom;
position = "{430, -20}";
},
{
name = candra;
position = "{77, 660}";
},
{
name = top;
position = "{420, 660}";
}
);
layerId = "5EDCAC97-4996-4925-B8D9-EA484E9BADFC";
paths = (
{
closed = 1;
nodes = (
"419 88 LINE",
"279 88 OFFCURVE",
"235 155 OFFCURVE",
"235 301 CURVE",
"75 301 LINE",
"75 70 OFFCURVE",
"169 -35 OFFCURVE",
"419 -35 CURVE"
);
},
{
closed = 1;
nodes = (
"235 301 LINE",
"235 604 LINE",
"75 604 LINE",
"75 301 LINE"
);
},
{
closed = 1;
nodes = (
"500 400 LINE",
"500 605 LINE",
"340 605 LINE",
"340 400 LINE"
);
},
{
closed = 1;
nodes = (
"569 547 LINE",
"569 660 LINE",
"-25 660 LINE",
"-25 547 LINE"
);
},
{
closed = 1;
nodes = (
"340 400 LINE",
"340 367 OFFCURVE",
"311 344 OFFCURVE",
"278 336 CURVE",
"298 210 LINE",
"419 218 OFFCURVE",
"500 289 OFFCURVE",
"500 400 CURVE"
);
}
);
width = 544;
},
{
anchors = (
{
name = bottom;
position = "{430, -20}";
},
{
name = candra;
position = "{77, 660}";
},
{
name = top;
position = "{430, 660}";
}
);
layerId = "79308226-C67D-4E5D-B2BB-40C77DA13664";
paths = (
{
closed = 1;
nodes = (
"419 28 LINE",
"279 28 OFFCURVE",
"235 155 OFFCURVE",
"235 301 CURVE",
"75 301 LINE",
"75 70 OFFCURVE",
"169 -35 OFFCURVE",
"419 -35 CURVE"
);
},
{
closed = 1;
nodes = (
"235 301 LINE",
"235 614 LINE",
"75 614 LINE",
"75 301 LINE"
);
},
{
closed = 1;
nodes = (
"500 400 LINE",
"500 615 LINE",
"340 615 LINE",
"340 400 LINE"
);
},
{
closed = 1;
nodes = (
"569 607 LINE",
"569 660 LINE",
"-25 660 LINE",
"-25 607 LINE"
);
},
{
closed = 1;
nodes = (
"340 400 LINE",
"340 367 OFFCURVE",
"316 314 OFFCURVE",
"283 306 CURVE",
"293 240 LINE",
"414 248 OFFCURVE",
"500 289 OFFCURVE",
"500 400 CURVE"
);
}
);
width = 544;
},
{
anchors = (
{
name = bottom;
position = "{363, 0}";
},
{
name = candra;
position = "{115, 630}";
},
{
name = top;
position = "{353, 630}";
}
);
layerId = "F80F23F5-B815-46C8-A0F2-25F52E1E7134";
paths = (
{
closed = 1;
nodes = (
"325 18 LINE",
"192 18 OFFCURVE",
"151 128 OFFCURVE",
"151 301 CURVE",
"85 301 LINE",
"85 84 OFFCURVE",
"147 -15 OFFCURVE",
"325 -15 CURVE"
);
},
{
closed = 1;
nodes = (
"151 301 LINE",
"151 604 LINE",
"85 604 LINE",
"85 301 LINE"
);
},
{
closed = 1;
nodes = (
"386 430 LINE",
"386 605 LINE",
"320 605 LINE",
"320 430 LINE"
);
},
{
closed = 1;
nodes = (
"475 597 LINE",
"475 630 LINE",
"-25 630 LINE",
"-25 597 LINE"
);
},
{
closed = 1;
nodes = (
"320 430 LINE",
"320 359 OFFCURVE",
"295 275 OFFCURVE",
"228 263 CURVE",
"234 230 LINE",
"336 241 OFFCURVE",
"386 318 OFFCURVE",
"386 430 CURVE"
);
}
);
width = 450;
}
);
leftMetricsKey = "=aaMatra-deva";
rightMetricsKey = "=aaMatra-deva";
unicode = 090F;
script = devanagari;
category = Letter;
subCategory = Matra;
},
{
glyphname = "oe-deva";
lastChange = "2022-02-07 23:57:43 +0000";
layers = (
{
components = (
{
name = "a-deva";
}
);
layerId = "EA4BDF10-EAD0-47D5-9AD5-B8C643A094C2";
paths = (
{
closed = 1;
nodes = (
"496 548 LINE",
"496 760 LINE",
"433 760 LINE",
"433 548 LINE"
);
}
);
width = 569;
},
{
components = (
{
name = "a-deva";
}
);
layerId = "5EDCAC97-4996-4925-B8D9-EA484E9BADFC";
paths = (
{
closed = 1;
nodes = (
"675 458 LINE",
"675 796 LINE",
"512 796 LINE",
"512 458 LINE"
);
}
);
width = 741;
},
{
components = (
{
name = "a-deva";
}
);
layerId = "79308226-C67D-4E5D-B2BB-40C77DA13664";
paths = (
{
closed = 1;
nodes = (
"665 458 LINE",
"665 796 LINE",
"502 796 LINE",
"502 458 LINE"
);
}
);
width = 731;
},
{
components = (
{
name = "a-deva";
}
);
layerId = "F80F23F5-B815-46C8-A0F2-25F52E1E7134";
paths = (
{
closed = 1;
nodes = (
"496 548 LINE",
"496 760 LINE",
"433 760 LINE",
"433 548 LINE"
);
}
);
width = 569;
}
);
leftMetricsKey = "=a-deva";
rightMetricsKey = "=a-deva";
unicode = 0973;
script = devanagari;
category = Letter;
subCategory = Matra;
},
{
glyphname = "ooe-deva";
lastChange = "2022-02-08 23:01:33 +0000";
layers = (
{
components = (
{
name = "aa-deva";
}
);
layerId = "EA4BDF10-EAD0-47D5-9AD5-B8C643A094C2";
paths = (
{
closed = 1;
nodes = (
"704 548 LINE",
"704 760 LINE",
"642 760 LINE",
"642 548 LINE"
);
}
);
width = 778;
},
{
components = (
{
name = "aa-deva";
}
);
layerId = "5EDCAC97-4996-4925-B8D9-EA484E9BADFC";
paths = (
{
closed = 1;
nodes = (
"969 458 LINE",
"969 796 LINE",
"806 796 LINE",
"806 458 LINE"
);
}
);
width = 1035;
},
{
components = (
{
name = "aa-deva";
}
);
layerId = "79308226-C67D-4E5D-B2BB-40C77DA13664";
paths = (
{
closed = 1;
nodes = (
"959 458 LINE",
"959 796 LINE",
"796 796 LINE",
"796 458 LINE"
);
}
);
width = 1025;
},
{
components = (
{
name = "aa-deva";
}
);
layerId = "F80F23F5-B815-46C8-A0F2-25F52E1E7134";
paths = (
{
closed = 1;
nodes = (
"704 548 LINE",
"704 760 LINE",
"642 760 LINE",
"642 548 LINE"
);
}
);
width = 778;
}
);
leftMetricsKey = "=a-deva";
rightMetricsKey = "=a-deva";
unicode = 0974;
script = devanagari;
category = Letter;
subCategory = Matra;
},
{
glyphname = "aaMatra-deva";
lastChange = "2022-02-17 01:49:46 +0000";
layers = (
{
anchors = (
{
name = bottom;
position = "{106, 0}";
},
{
name = candra;
position = "{-145, 630}";
},
{
name = top;
position = "{105, 630}";
}
);
guideLines = (
{
angle = 90;
position = "{105, 635}";
}
);
layerId = "EA4BDF10-EAD0-47D5-9AD5-B8C643A094C2";
paths = (
{
closed = 1;
nodes = (
"136 0 LINE",
"136 620 LINE",
"73 620 LINE",
"73 0 LINE"
);
},
{
closed = 1;
nodes = (
"234 567 LINE",
"234 630 LINE",
"-25 630 LINE",
"-25 567 LINE"
);
}
);
width = 209;
},
{
anchors = (
{
name = bottom;
position = "{147, 0}";
},
{
name = candra;
position = "{-183, 660}";
},
{
name = top;
position = "{147, 660}";
}
);
layerId = "5EDCAC97-4996-4925-B8D9-EA484E9BADFC";
paths = (
{
closed = 1;
nodes = (
"228 0 LINE",
"228 645 LINE",
"65 645 LINE",
"65 0 LINE"
);
},
{
closed = 1;
nodes = (
"319 547 LINE",
"319 660 LINE",
"-25 660 LINE",
"-25 547 LINE"
);
}
);
width = 294;
},
{
anchors = (
{
name = bottom;
position = "{147, 0}";
},
{
name = candra;
position = "{-183, 660}";
},
{
name = top;
position = "{147, 660}";
}
);
layerId = "79308226-C67D-4E5D-B2BB-40C77DA13664";
paths = (
{
closed = 1;
nodes = (
"228 0 LINE",
"228 645 LINE",
"65 645 LINE",
"65 0 LINE"
);
},
{
closed = 1;
nodes = (
"319 607 LINE",
"319 660 LINE",
"-25 660 LINE",
"-25 607 LINE"
);
}
);
width = 294;
},
{
anchors = (
{
name = bottom;
position = "{106, 0}";
},
{
name = candra;
position = "{-145, 630}";
},
{
name = top;
position = "{105, 630}";
}
);
guideLines = (
{
angle = 90;
position = "{105, 635}";
}
);
layerId = "F80F23F5-B815-46C8-A0F2-25F52E1E7134";
paths = (
{
closed = 1;
nodes = (
"136 0 LINE",
"136 620 LINE",
"73 620 LINE",
"73 0 LINE"
);
},
{
closed = 1;
nodes = (
"234 597 LINE",
"234 630 LINE",
"-25 630 LINE",
"-25 597 LINE"
);
}
);
width = 209;
}
);
leftMetricsKey = "=-25";
rightMetricsKey = "=-25";
unicode = 093E;
script = devanagari;
category = Letter;
subCategory = Matra;
},
{
glyphname = "iMatra-deva";
lastChange = "2022-02-13 01:20:23 +0000";
layers = (
{
anchors = (
{
name = candra;
position = "{443, 713}";
},
{
name = imatra;
position = "{534, 607}";
},
{
name = top;
position = "{504, 733}";
}
);
background = {
anchors = (
{
name = candra;
position = "{1694, 718}";
},
{
name = imatra;
position = "{1741, 585}";
},
{
name = top;
position = "{1721, 669}";
}
);
components = (
{
name = "aaMatra-deva";
}
);
paths = (
{
closed = 1;
nodes = (
"1638 788 LINE",
"1313 880 OFFCURVE",
"888 930 OFFCURVE",
"618 930 CURVE",
"638 875 LINE",
"894 875 OFFCURVE",
"1317 820 OFFCURVE",
"1621 739 CURVE"
);
},
{
closed = 1;
nodes = (
"133 615 LINE",
"121 679 LINE",
"58 669 LINE",
"69 615 LINE"
);
},
{
closed = 1;
nodes = (
"121 679 LINE",
"103 779 OFFCURVE",
"149 875 OFFCURVE",
"638 875 CURVE",
"618 930 LINE",
"107 930 OFFCURVE",
"32 803 OFFCURVE",
"58 669 CURVE"
);
}
);
};
components = (
{
name = "aaMatra-deva";
}
);
layerId = "EA4BDF10-EAD0-47D5-9AD5-B8C643A094C2";
paths = (
{
closed = 1;
nodes = (
"460 763 LINE",
"409 868 OFFCURVE",
"326 930 OFFCURVE",
"208 930 CURVE",
"228 870 LINE",
"292 870 OFFCURVE",
"356 819 OFFCURVE",
"402 733 CURVE"
);
},
{
closed = 1;
nodes = (
"135 615 LINE",
"115 714 LINE",
"51 703 LINE",
"69 615 LINE"
);
},
{
closed = 1;
nodes = (
"115 714 LINE",
"99 804 OFFCURVE",
"127 870 OFFCURVE",
"228 870 CURVE",
"208 930 LINE",
"93 930 OFFCURVE",
"26 833 OFFCURVE",
"51 703 CURVE"
);
}
);
width = 190;
},
{
anchors = (
{
name = candra;
position = "{586, 790}";
},
{
name = imatra;
position = "{701, 615}";
},
{
name = top;
position = "{746, 800}";
}
);
background = {
anchors = (
{
name = candra;
position = "{2397, 736}";
},
{
name = imatra;
position = "{2487, 568}";
},
{
name = top;
position = "{2476, 639}";
}
);
components = (
{
name = "aaMatra-deva";
}
);
paths = (
{
closed = 1;
nodes = (
"2406 788 LINE",
"1947 905 OFFCURVE",
"1410 960 OFFCURVE",
"900 960 CURVE",
"930 840 LINE",
"1479 840 OFFCURVE",
"1926 784 OFFCURVE",
"2353 682 CURVE"
);
},
{
closed = 1;
nodes = (
"236 635 LINE",
"216 673 LINE",
"53 663 LINE",
"61 635 LINE"
);
},
{
closed = 1;
nodes = (
"216 673 LINE",
"166 784 OFFCURVE",
"239 840 OFFCURVE",
"930 840 CURVE",
"900 960 LINE",
"107 960 OFFCURVE",
"3 843 OFFCURVE",
"53 663 CURVE"
);
}
);
};
components = (
{
name = "aaMatra-deva";
}
);
layerId = "5EDCAC97-4996-4925-B8D9-EA484E9BADFC";
paths = (
{
closed = 1;
nodes = (
"661 796 LINE",
"576 899 OFFCURVE",
"442 960 OFFCURVE",
"300 960 CURVE",
"310 830 LINE",
"403 830 OFFCURVE",
"486 787 OFFCURVE",
"534 713 CURVE"
);
},
{
closed = 1;
nodes = (
"236 635 LINE",
"216 673 LINE",
"53 663 LINE",
"61 635 LINE"
);
},
{
closed = 1;
nodes = (
"216 673 LINE",
"176 763 OFFCURVE",
"216 830 OFFCURVE",
"310 830 CURVE",
"300 960 LINE",
"112 960 OFFCURVE",
"6 833 OFFCURVE",
"53 663 CURVE"
);
}
);
width = 272;
},
{
anchors = (
{
name = candra;
position = "{586, 790}";
},
{
name = imatra;
position = "{642, 633}";
},
{
name = top;
position = "{700, 773}";
}
);
background = {
anchors = (
{
name = candra;
position = "{2397, 736}";
},
{
name = imatra;
position = "{2445, 568}";
},
{
name = top;
position = "{2434, 639}";
}
);
components = (
{
name = "aaMatra-deva";
}
);
paths = (
{
closed = 1;
nodes = (
"2380 739 LINE",
"1931 856 OFFCURVE",
"1410 960 OFFCURVE",
"900 960 CURVE",
"918 894 LINE",
"1467 894 OFFCURVE",
"1936 784 OFFCURVE",
"2353 682 CURVE"
);
},
{
closed = 1;
nodes = (
"236 635 LINE",
"216 673 LINE",
"53 663 LINE",
"61 635 LINE"
);
},
{
closed = 1;
nodes = (
"216 673 LINE",
"166 784 OFFCURVE",
"227 894 OFFCURVE",
"918 894 CURVE",
"900 960 LINE",
"107 960 OFFCURVE",
"3 843 OFFCURVE",
"53 663 CURVE"
);
}
);
};
components = (
{
name = "aaMatra-deva";
}
);
layerId = "79308226-C67D-4E5D-B2BB-40C77DA13664";
paths = (
{
closed = 1;
nodes = (
"622 771 LINE",
"531 870 OFFCURVE",
"421 928 OFFCURVE",
"300 928 CURVE",
"306 862 LINE",
"409 862 OFFCURVE",
"492 803 OFFCURVE",
"556 729 CURVE"
);
},
{
closed = 1;
nodes = (
"236 635 LINE",
"216 673 LINE",
"53 663 LINE",
"61 635 LINE"
);
},
{
closed = 1;
nodes = (
"216 673 LINE",
"163 792 OFFCURVE",
"197 862 OFFCURVE",
"306 862 CURVE",
"300 928 LINE",
"99 928 OFFCURVE",
"7 830 OFFCURVE",
"53 663 CURVE"
);
}
);
width = 272;
},
{
anchors = (
{
name = candra;
position = "{433, 713}";
},
{
name = imatra;
position = "{504, 662}";
},
{
name = top;
position = "{504, 733}";
}
);
background = {
anchors = (
{
name = candra;
position = "{1694, 718}";
},
{
name = imatra;
position = "{1711, 607}";
},
{
name = top;
position = "{1730, 669}";
}
);
components = (
{
name = "aaMatra-deva";
}
);
paths = (
{
closed = 1;
nodes = (
"1633 772 LINE",
"1308 864 OFFCURVE",
"888 930 OFFCURVE",
"618 930 CURVE",
"628 897 LINE",
"884 897 OFFCURVE",
"1317 823 OFFCURVE",
"1621 742 CURVE"
);
},
{
closed = 1;
nodes = (
"133 615 LINE",
"121 679 LINE",
"58 669 LINE",
"69 615 LINE"
);
},
{
closed = 1;
nodes = (
"121 679 LINE",
"103 779 OFFCURVE",
"139 897 OFFCURVE",
"628 897 CURVE",
"618 930 LINE",
"107 930 OFFCURVE",
"32 803 OFFCURVE",
"58 669 CURVE"
);
}
);
};
components = (
{
name = "aaMatra-deva";
}
);
layerId = "F80F23F5-B815-46C8-A0F2-25F52E1E7134";
paths = (
{
closed = 1;
nodes = (
"460 763 LINE",
"404 858 OFFCURVE",
"306 930 OFFCURVE",
"208 930 CURVE",
"219 897 LINE",
"290 897 OFFCURVE",
"368 832 OFFCURVE",
"424 745 CURVE"
);
},
{
closed = 1;
nodes = (
"135 615 LINE",
"115 714 LINE",
"51 703 LINE",
"69 615 LINE"
);
},
{
closed = 1;
nodes = (
"115 714 LINE",
"96 819 OFFCURVE",
"140 897 OFFCURVE",
"219 897 CURVE",
"208 930 LINE",
"94 930 OFFCURVE",
"27 833 OFFCURVE",
"51 703 CURVE"
);
}
);
width = 190;
}
);
leftMetricsKey = "=aaMatra-deva";
unicode = 093F;
script = devanagari;
category = Letter;
subCategory = Matra;
},
{
glyphname = "iMatra_anusvara-deva";
lastChange = "2022-02-12 22:20:07 +0000";
layers = (
{
background = {
anchors = (
{
name = candra;
position = "{1583, 684}";
},
{
name = imatra;
position = "{1617, 630}";
},
{
name = top;
position = "{1665, 650}";
}
);
components = (
{
name = "aaMatra-deva";
},
{
name = "anusvara-deva";
transform = "{1, 0, 0, 1, 1637, 162}";
}
);
paths = (
{
closed = 1;
nodes = (
"1628 788 LINE",
"1303 880 OFFCURVE",
"878 930 OFFCURVE",
"608 930 CURVE",
"628 875 LINE",
"884 875 OFFCURVE",
"1307 820 OFFCURVE",
"1611 739 CURVE"
);
},
{
closed = 1;
nodes = (
"123 615 LINE",
"111 679 LINE",
"48 669 LINE",
"59 615 LINE"
);
},
{
closed = 1;
nodes = (
"111 679 LINE",
"93 779 OFFCURVE",
"139 875 OFFCURVE",
"628 875 CURVE",
"608 930 LINE",
"97 930 OFFCURVE",
"22 803 OFFCURVE",
"48 669 CURVE"
);
}
);
};
components = (
{
name = "iMatra-deva";
},
{
name = "anusvara-deva";
transform = "{1, 0, 0, 1, 453, 193}";
}
);
layerId = "EA4BDF10-EAD0-47D5-9AD5-B8C643A094C2";
width = 190;
},
{
background = {
anchors = (
{
name = candra;
position = "{2397, 736}";
},
{
name = imatra;
position = "{2487, 660}";
},
{
name = top;
position = "{2597, 668}";
}
);
components = (
{
name = "aaMatra-deva";
},
{
name = "anusvara-deva";
transform = "{1, 0, 0, 1, 2427, 192}";
}
);
paths = (
{
closed = 1;
nodes = (
"2396 788 LINE",
"1937 905 OFFCURVE",
"1400 960 OFFCURVE",
"890 960 CURVE",
"920 840 LINE",
"1469 840 OFFCURVE",
"1916 784 OFFCURVE",
"2343 682 CURVE"
);
},
{
closed = 1;
nodes = (
"226 635 LINE",
"206 673 LINE",
"43 663 LINE",
"51 635 LINE"
);
},
{
closed = 1;
nodes = (
"206 673 LINE",
"156 784 OFFCURVE",
"229 840 OFFCURVE",
"920 840 CURVE",
"890 960 LINE",
"97 960 OFFCURVE",
"-7 843 OFFCURVE",
"43 663 CURVE"
);
}
);
};
components = (
{
name = "iMatra-deva";
},
{
name = "anusvara-deva";
transform = "{1, 0, 0, 1, 664, 245}";
}
);
layerId = "5EDCAC97-4996-4925-B8D9-EA484E9BADFC";
width = 272;
},
{
background = {
anchors = (
{
name = candra;
position = "{2397, 736}";
},
{
name = imatra;
position = "{2487, 660}";
},
{
name = top;
position = "{2597, 668}";
}
);
components = (
{
name = "aaMatra-deva";
},
{
name = "anusvara-deva";
transform = "{1, 0, 0, 1, 2397, 172}";
}
);
paths = (
{
closed = 1;
nodes = (
"2370 739 LINE",
"1921 856 OFFCURVE",
"1400 960 OFFCURVE",
"890 960 CURVE",
"908 894 LINE",
"1457 894 OFFCURVE",
"1926 784 OFFCURVE",
"2343 682 CURVE"
);
},
{
closed = 1;
nodes = (
"226 635 LINE",
"206 673 LINE",
"43 663 LINE",
"51 635 LINE"
);
},
{
closed = 1;
nodes = (
"206 673 LINE",
"156 784 OFFCURVE",
"217 894 OFFCURVE",
"908 894 CURVE",
"890 960 LINE",
"97 960 OFFCURVE",
"-7 843 OFFCURVE",
"43 663 CURVE"
);
}
);
};
components = (
{
name = "iMatra-deva";
},
{
name = "anusvara-deva";
transform = "{1, 0, 0, 1, 619, 218}";
}
);
layerId = "79308226-C67D-4E5D-B2BB-40C77DA13664";
width = 272;
},
{
background = {
anchors = (
{
name = candra;
position = "{1583, 684}";
},
{
name = imatra;
position = "{1617, 630}";
},
{
name = top;
position = "{1665, 650}";
}
);
components = (
{
name = "aaMatra-deva";
},
{
name = "anusvara-deva";
transform = "{1, 0, 0, 1, 1637, 162}";
}
);
paths = (
{
closed = 1;
nodes = (
"1623 772 LINE",
"1298 864 OFFCURVE",
"878 930 OFFCURVE",
"608 930 CURVE",
"618 897 LINE",
"874 897 OFFCURVE",
"1307 823 OFFCURVE",
"1611 742 CURVE"
);
},
{
closed = 1;
nodes = (
"123 615 LINE",
"111 679 LINE",
"48 669 LINE",
"59 615 LINE"
);
},
{
closed = 1;
nodes = (
"111 679 LINE",
"93 779 OFFCURVE",
"129 897 OFFCURVE",
"618 897 CURVE",
"608 930 LINE",
"97 930 OFFCURVE",
"22 803 OFFCURVE",
"48 669 CURVE"
);
}
);
};
components = (
{
name = "iMatra-deva";
},
{
name = "anusvara-deva";
transform = "{1, 0, 0, 1, 453, 193}";
}
);
layerId = "F80F23F5-B815-46C8-A0F2-25F52E1E7134";
width = 190;
}
);
leftMetricsKey = "=aaMatra-deva";
},
{
glyphname = "iMatra_reph_anusvara-deva";
lastChange = "2022-02-13 01:18:51 +0000";
layers = (
{
background = {
anchors = (
{
name = bottom;
position = "{96, 0}";
},
{
name = candra;
position = "{1285, 807}";
},
{
name = imatra;
position = "{1667, 520}";
},
{
name = top;
position = "{1671, 630}";
}
);
components = (
{
name = "aaMatra-deva";
},
{
name = period;
transform = "{1.0491, 0, 0, 1.0491, 1633, 794}";
},
{
name = "reph-deva";
transform = "{1, 0, 0, 1, 1559, 109}";
}
);
paths = (
{
closed = 1;
nodes = (
"1628 788 LINE",
"1303 880 OFFCURVE",
"878 930 OFFCURVE",
"608 930 CURVE",
"628 875 LINE",
"884 875 OFFCURVE",
"1307 820 OFFCURVE",
"1611 739 CURVE"
);
},
{
closed = 1;
nodes = (
"123 615 LINE",
"111 679 LINE",
"48 669 LINE",
"59 615 LINE"
);
},
{
closed = 1;
nodes = (
"111 679 LINE",
"93 779 OFFCURVE",
"139 875 OFFCURVE",
"628 875 CURVE",
"608 930 LINE",
"97 930 OFFCURVE",
"22 803 OFFCURVE",
"48 669 CURVE"
);
}
);
};
components = (
{
name = "iMatra-deva";
},
{
name = "reph_anusvara-deva";
transform = "{1, 0, 0, 1, 386, 70}";
}
);
layerId = "EA4BDF10-EAD0-47D5-9AD5-B8C643A094C2";
width = 190;
},
{
background = {
anchors = (
{
name = bottom;
position = "{136, 0}";
},
{
name = candra;
position = "{1943, 883}";
},
{
name = imatra;
position = "{2473, 560}";
},
{
name = top;
position = "{2640, 582}";
}
);
components = (
{
name = "aaMatra-deva";
},
{
name = period;
transform = "{0.9, 0, 0, 0.9, 2459, 731}";
},
{
name = "reph-deva";
transform = "{1, 0, 0, 1, 2288, 22}";
}
);
paths = (
{
closed = 1;
nodes = (
"2396 788 LINE",
"1937 905 OFFCURVE",
"1400 960 OFFCURVE",
"890 960 CURVE",
"920 840 LINE",
"1469 840 OFFCURVE",
"1916 784 OFFCURVE",
"2343 682 CURVE"
);
},
{
closed = 1;
nodes = (
"226 635 LINE",
"206 673 LINE",
"43 663 LINE",
"51 635 LINE"
);
},
{
closed = 1;
nodes = (
"206 673 LINE",
"156 784 OFFCURVE",
"229 840 OFFCURVE",
"920 840 CURVE",
"890 960 LINE",
"97 960 OFFCURVE",
"-7 843 OFFCURVE",
"43 663 CURVE"
);
}
);
};
components = (
{
name = "iMatra-deva";
},
{
name = "reph_anusvara-deva";
transform = "{1, 0, 0, 1, 510, 25}";
}
);
layerId = "5EDCAC97-4996-4925-B8D9-EA484E9BADFC";
width = 272;
},
{
background = {
anchors = (
{
name = bottom;
position = "{136, 0}";
},
{
name = candra;
position = "{1943, 883}";
},
{
name = imatra;
position = "{2473, 560}";
},
{
name = top;
position = "{2640, 582}";
}
);
components = (
{
name = "aaMatra-deva";
},
{
name = period;
transform = "{0.9, 0, 0, 0.9, 2459, 731}";
},
{
name = "reph-deva";
transform = "{1, 0, 0, 1, 2288, 22}";
}
);
paths = (
{
closed = 1;
nodes = (
"2370 739 LINE",
"1921 856 OFFCURVE",
"1400 960 OFFCURVE",
"890 960 CURVE",
"908 894 LINE",
"1457 894 OFFCURVE",
"1926 784 OFFCURVE",
"2343 682 CURVE"
);
},
{
closed = 1;
nodes = (
"226 635 LINE",
"206 673 LINE",
"43 663 LINE",
"51 635 LINE"
);
},
{
closed = 1;
nodes = (
"206 673 LINE",
"156 784 OFFCURVE",
"217 894 OFFCURVE",
"908 894 CURVE",
"890 960 LINE",
"97 960 OFFCURVE",
"-7 843 OFFCURVE",
"43 663 CURVE"
);
}
);
};
components = (
{
name = "iMatra-deva";
},
{
name = "reph_anusvara-deva";
transform = "{1, 0, 0, 1, 491, 43}";
}
);
layerId = "79308226-C67D-4E5D-B2BB-40C77DA13664";
width = 272;
},
{
background = {
anchors = (
{
name = bottom;
position = "{96, 0}";
},
{
name = candra;
position = "{1285, 807}";
},
{
name = imatra;
position = "{1667, 520}";
},
{
name = top;
position = "{1671, 630}";
}
);
components = (
{
name = "aaMatra-deva";
},
{
name = period;
transform = "{1.0491, 0, 0, 1.0491, 1623, 794}";
},
{
name = "reph-deva";
transform = "{1, 0, 0, 1, 1549, 109}";
}
);
paths = (
{
closed = 1;
nodes = (
"1623 772 LINE",
"1298 864 OFFCURVE",
"878 930 OFFCURVE",
"608 930 CURVE",
"618 897 LINE",
"874 897 OFFCURVE",
"1307 823 OFFCURVE",
"1611 742 CURVE"
);
},
{
closed = 1;
nodes = (
"123 615 LINE",
"111 679 LINE",
"48 669 LINE",
"59 615 LINE"
);
},
{
closed = 1;
nodes = (
"111 679 LINE",
"93 779 OFFCURVE",
"129 897 OFFCURVE",
"618 897 CURVE",
"608 930 LINE",
"97 930 OFFCURVE",
"22 803 OFFCURVE",
"48 669 CURVE"
);
}
);
};
components = (
{
name = "iMatra-deva";
},
{
name = "reph_anusvara-deva";
transform = "{1, 0, 0, 1, 396, 95}";
}
);
layerId = "F80F23F5-B815-46C8-A0F2-25F52E1E7134";
width = 190;
}
);
script = devanagari;
category = Letter;
subCategory = Matra;
},
